<?xml version="1.0" encoding="utf-8"?>
<!-- Generator: Adobe Illustrator 24.3.0, SVG Export Plug-In . SVG Version: 6.00 Build 0)  -->
<svg version="1.1" id="Layer_1" xmlns="http://www.w3.org/2000/svg" xmlns:xlink="http://www.w3.org/1999/xlink" x="0px" y="0px"
	 viewBox="0 0 512 512" style="enable-background:new 0 0 512 512;" xml:space="preserve">
<g id="XMLID_1_">
	<polygon id="XMLID_3_" points="120.11,191.33 116.33,209.01 127.83,209.01 132.04,191.33 148.87,191.33 137.93,240.43 
		120.96,240.43 124.88,221.49 113.8,221.49 109.17,240.43 91.64,240.43 99.78,204.1 84.63,204.1 76.49,240.43 58.39,240.43 
		66.53,204.1 26.97,204.1 25.57,209.99 49.98,209.99 47.45,221.49 22.9,221.49 21.5,227.66 47.03,227.66 44.09,240.43 0.46,240.43 
		11.4,191.33 	"/>
	<polygon id="XMLID_4_" points="0.88,281.39 0.88,264.84 9.58,264.84 9.58,267.08 3.55,267.08 3.55,271.71 9.3,271.71 9.3,273.96 
		3.55,273.96 3.55,279.15 9.58,279.15 9.58,281.39 	"/>
	<path id="XMLID_7_" d="M13.79,269.19h2.67v12.2h-2.67V269.19z M15.19,267.36c-0.98,0-1.68-0.7-1.68-1.68s0.7-1.68,1.68-1.68
		s1.68,0.7,1.68,1.68C16.87,266.66,16.03,267.36,15.19,267.36"/>
	<path id="XMLID_10_" d="M30.9,281.39v-17.96h-2.67v5.61c-0.7,0-1.26-0.14-1.82-0.14c-3.93,0-6.45,2.67-6.45,6.87
		c0,3.51,1.54,5.75,4.49,5.75c1.96,0,3.37-0.98,3.93-2.52l0,0c-0.14,0.7-0.14,1.68-0.14,2.24h2.67V281.39z M28.38,275.08
		c0,2.1-1.12,4.35-3.09,4.35c-1.68,0-2.38-1.4-2.38-3.79c0-3.23,1.4-4.63,3.51-4.63c0.7,0,1.26,0.14,1.96,0.28L28.38,275.08
		L28.38,275.08z"/>
	<path id="XMLID_14_" d="M43.81,283.35c0,1.26-1.26,2.24-3.51,2.24c-1.82,0-2.95-0.7-2.95-2.1c0-0.84,0.56-1.54,1.4-2.1
		c0.14,0,0.42,0,0.7,0h2.24C43.1,281.53,43.81,282.23,43.81,283.35 M46.33,282.93c0-2.24-1.54-3.51-4.21-3.51h-2.1
		c-1.54,0-1.96-0.28-1.96-0.84c0-0.28,0.28-0.7,0.7-0.84c0.42,0.14,0.98,0.14,1.4,0.14c3.51,0,5.33-1.82,5.33-4.49
		c0-0.84-0.28-1.68-0.84-2.1h1.82v-2.1H42.4c-0.7-0.14-1.26-0.28-1.96-0.28c-3.51,0-5.47,2.1-5.47,4.77c0,1.54,0.56,2.81,1.82,3.51
		c-0.84,0.42-1.4,1.26-1.4,2.1c0,0.84,0.42,1.4,1.26,1.82c-1.12,0.56-1.96,1.68-1.96,3.09c0,2.38,1.96,3.65,5.19,3.65
		C43.67,287.7,46.33,285.6,46.33,282.93 M42.96,273.39c0,1.54-1.12,2.52-2.67,2.52c-1.82,0-2.81-0.98-2.81-2.52
		c0-1.54,0.98-2.52,2.81-2.52C41.98,270.87,42.96,271.85,42.96,273.39"/>
	<path id="XMLID_17_" d="M59.52,274.24c0-2.95-1.54-5.33-5.05-5.33s-5.61,2.81-5.61,6.45c0,4.35,2.1,6.31,5.89,6.31
		c1.54,0,2.95-0.28,4.21-0.84l-0.28-2.1c-0.98,0.42-2.24,0.84-3.51,0.84c-2.38,0-3.65-1.26-3.65-4.07h7.86
		C59.52,274.94,59.52,274.52,59.52,274.24 M56.85,273.53h-5.19c0.28-1.68,1.26-2.67,2.67-2.67
		C56.01,270.87,56.99,271.99,56.85,273.53"/>
	<path id="XMLID_18_" d="M70.88,281.39v-7.86c0-1.54-0.42-2.38-1.82-2.38c-1.82,0-3.23,1.96-3.23,4.35v5.89h-2.67v-12.2h2.52
		c0,0.7,0,1.68-0.14,2.38l0,0c0.7-1.54,2.24-2.67,4.21-2.67c2.81,0,3.65,1.68,3.65,3.93v8.56H70.88z"/>
	<path id="XMLID_23_" d="M88.83,275.08c0-4.35-2.24-6.17-5.61-6.17c-3.65,0-6.03,2.81-6.03,6.45c0,4.35,2.24,6.17,5.61,6.17
		C86.31,281.67,88.83,278.86,88.83,275.08 M82.1,265.4c0-0.84-0.7-1.54-1.54-1.54c-0.84,0-1.54,0.7-1.54,1.54s0.7,1.54,1.54,1.54
		C81.4,266.8,82.1,266.24,82.1,265.4 M86.87,265.4c0-0.84-0.7-1.54-1.54-1.54c-0.84,0-1.54,0.7-1.54,1.54s0.7,1.54,1.54,1.54
		C86.17,266.8,86.87,266.24,86.87,265.4 M86.03,275.22c0,2.81-1.4,4.21-3.09,4.21c-2.1,0-3.09-1.4-3.09-4.21s1.54-4.07,3.09-4.07
		C85.05,271.15,86.03,272.55,86.03,275.22"/>
	<path id="XMLID_24_" d="M94.44,281.67c-0.84,0-1.82-0.14-2.52-0.28l0.14-2.24c0.7,0.28,1.68,0.42,2.67,0.42
		c1.4,0,2.38-0.56,2.38-1.68c0-2.38-5.33-0.98-5.33-5.19c0-2.1,1.68-3.79,5.05-3.79c0.7,0,1.54,0.14,2.24,0.28l-0.14,2.1
		c-0.7-0.28-1.54-0.28-2.38-0.28c-1.4,0-2.1,0.56-2.1,1.54c0,2.38,5.47,1.12,5.47,5.19C99.78,279.99,97.67,281.67,94.44,281.67"/>
	<path id="XMLID_25_" d="M105.53,281.67c-0.84,0-1.82-0.14-2.52-0.28l0.14-2.24c0.7,0.28,1.68,0.42,2.67,0.42
		c1.4,0,2.38-0.56,2.38-1.68c0-2.38-5.33-0.98-5.33-5.19c0-2.1,1.68-3.79,5.05-3.79c0.7,0,1.54,0.14,2.24,0.28v2.1
		c-0.7-0.28-1.54-0.28-2.38-0.28c-1.4,0-2.1,0.56-2.1,1.54c0,2.38,5.47,1.12,5.47,5.19C110.86,279.99,108.89,281.67,105.53,281.67"
		/>
	<path id="XMLID_28_" d="M114.64,269.19h2.67v12.2h-2.67V269.19z M116.05,267.36c-0.98,0-1.68-0.7-1.68-1.68s0.7-1.68,1.68-1.68
		c0.84,0,1.68,0.7,1.68,1.68C117.73,266.66,116.89,267.36,116.05,267.36"/>
	<path id="XMLID_29_" d="M123.9,281.67c-0.84,0-1.82-0.14-2.52-0.28v-2.24c0.7,0.28,1.68,0.42,2.67,0.42c1.4,0,2.38-0.56,2.38-1.68
		c0-2.38-5.33-0.98-5.33-5.19c0-2.1,1.68-3.79,5.05-3.79c0.7,0,1.54,0.14,2.24,0.28l-0.14,2.1c-0.7-0.28-1.54-0.28-2.38-0.28
		c-1.4,0-2.1,0.56-2.1,1.54c0,2.38,5.47,1.12,5.47,5.19C129.23,279.99,127.27,281.67,123.9,281.67"/>
	<path id="XMLID_30_" d="M137.51,281.53c-3.09,0-5.47-1.54-5.47-5.89c0-3.93,1.96-6.73,6.17-6.73c0.84,0,1.82,0.14,2.67,0.42
		l-0.28,2.24c-0.7-0.28-1.54-0.42-2.38-0.42c-2.24,0-3.37,1.68-3.37,4.21c0,2.24,0.84,3.93,3.23,3.93c0.98,0,1.96-0.28,2.67-0.56
		l0.28,2.24C140.17,281.25,138.91,281.53,137.51,281.53"/>
	<path id="XMLID_31_" d="M152.1,281.39v-7.86c0-1.54-0.42-2.38-1.82-2.38c-1.82,0-3.23,1.96-3.23,4.35v5.89h-2.67v-17.96h2.67v5.47
		c0,0.7,0,1.82-0.28,2.52l0,0c0.7-1.54,2.1-2.52,4.21-2.52c2.81,0,3.65,1.68,3.65,3.93v8.56H152.1L152.1,281.39z"/>
	<path id="XMLID_34_" d="M168.93,274.24c0-2.95-1.54-5.33-5.05-5.33c-3.51,0-5.61,2.81-5.61,6.45c0,4.35,2.1,6.31,5.89,6.31
		c1.54,0,2.95-0.28,4.21-0.84l-0.28-2.1c-0.98,0.42-2.24,0.84-3.51,0.84c-2.38,0-3.65-1.26-3.65-4.07h7.86
		C168.93,274.94,168.93,274.52,168.93,274.24 M166.26,273.53h-5.19c0.28-1.68,1.26-2.67,2.67-2.67
		C165.42,270.87,166.26,271.99,166.26,273.53"/>
	<polygon id="XMLID_35_" points="183.66,267.08 183.66,281.39 180.99,281.39 180.99,267.08 176.36,267.08 176.36,264.84 
		188.29,264.84 188.29,267.08 	"/>
	<path id="XMLID_38_" d="M198.81,274.24c0-2.95-1.54-5.33-5.05-5.33s-5.61,2.81-5.61,6.45c0,4.35,2.1,6.31,5.89,6.31
		c1.54,0,2.95-0.28,4.21-0.84l-0.28-2.1c-0.98,0.42-2.24,0.84-3.51,0.84c-2.38,0-3.65-1.26-3.65-4.07h7.86
		C198.81,274.94,198.81,274.52,198.81,274.24 M196.14,273.53h-5.19c0.28-1.68,1.26-2.67,2.67-2.67
		C195.3,270.87,196.28,271.99,196.14,273.53"/>
	<path id="XMLID_39_" d="M207.08,281.53c-3.09,0-5.47-1.54-5.47-5.89c0-3.93,1.96-6.73,6.17-6.73c0.84,0,1.82,0.14,2.67,0.42
		l-0.28,2.24c-0.7-0.28-1.54-0.42-2.38-0.42c-2.24,0-3.37,1.68-3.37,4.21c0,2.24,0.84,3.93,3.23,3.93c0.98,0,1.96-0.28,2.67-0.56
		l0.28,2.24C209.61,281.25,208.35,281.53,207.08,281.53"/>
	<path id="XMLID_40_" d="M221.53,281.39v-7.86c0-1.54-0.42-2.38-1.82-2.38c-1.82,0-3.23,1.96-3.23,4.35v5.89h-2.52v-17.96h2.67v5.47
		c0,0.7,0,1.82-0.28,2.52l0,0c0.7-1.54,2.1-2.52,4.21-2.52c2.81,0,3.65,1.68,3.65,3.93v8.56H221.53L221.53,281.39z"/>
	<path id="XMLID_41_" d="M236.4,281.39v-7.86c0-1.54-0.42-2.38-1.82-2.38c-1.82,0-3.23,1.96-3.23,4.35v5.89h-2.67v-12.2h2.52
		c0,0.7,0,1.68-0.14,2.38l0,0c0.7-1.54,2.24-2.67,4.21-2.67c2.81,0,3.65,1.68,3.65,3.93v8.56H236.4z"/>
	<path id="XMLID_44_" d="M243.7,269.19h2.67v12.2h-2.67V269.19z M244.96,267.36c-0.98,0-1.68-0.7-1.68-1.68s0.7-1.68,1.68-1.68
		s1.68,0.7,1.68,1.68C246.64,266.66,245.94,267.36,244.96,267.36"/>
	<path id="XMLID_45_" d="M252.95,281.67c-0.84,0-1.82-0.14-2.52-0.28l0.14-2.24c0.7,0.28,1.68,0.42,2.67,0.42
		c1.4,0,2.38-0.56,2.38-1.68c0-2.38-5.33-0.98-5.33-5.19c0-2.1,1.68-3.79,5.05-3.79c0.7,0,1.54,0.14,2.24,0.28l-0.14,2.1
		c-0.7-0.28-1.54-0.28-2.38-0.28c-1.4,0-2.1,0.56-2.1,1.54c0,2.38,5.47,1.12,5.47,5.19C258.28,279.99,256.18,281.67,252.95,281.67"
		/>
	<path id="XMLID_46_" d="M266.56,281.53c-3.09,0-5.47-1.54-5.47-5.89c0-3.93,1.96-6.73,6.17-6.73c0.84,0,1.82,0.14,2.67,0.42
		l-0.28,2.24c-0.7-0.28-1.54-0.42-2.52-0.42c-2.24,0-3.37,1.68-3.37,4.21c0,2.24,0.84,3.93,3.23,3.93c0.98,0,1.96-0.28,2.67-0.56
		l0.28,2.24C269.23,281.25,267.82,281.53,266.56,281.53"/>
	<path id="XMLID_47_" d="M281.15,281.39v-7.86c0-1.54-0.42-2.38-1.82-2.38c-1.82,0-3.23,1.96-3.23,4.35v5.89h-2.67v-17.96h2.67v5.47
		c0,0.7,0,1.82-0.28,2.52l0,0c0.7-1.54,2.1-2.52,4.21-2.52c2.81,0,3.65,1.68,3.65,3.93v8.56H281.15L281.15,281.39z"/>
	<path id="XMLID_50_" d="M297.98,274.24c0-2.95-1.54-5.33-5.05-5.33c-3.51,0-5.61,2.81-5.61,6.45c0,4.35,2.1,6.31,5.89,6.31
		c1.54,0,2.95-0.28,4.21-0.84l-0.28-2.1c-0.98,0.42-2.24,0.84-3.51,0.84c-2.38,0-3.65-1.26-3.65-4.07h7.86
		C297.84,274.94,297.98,274.52,297.98,274.24 M295.32,273.53h-5.19c0.28-1.68,1.26-2.67,2.67-2.67
		C294.34,270.87,295.32,271.99,295.32,273.53"/>
	<polygon id="XMLID_51_" points="318.32,281.39 318.32,273.96 310.47,273.96 310.47,281.39 307.8,281.39 307.8,264.84 
		310.47,264.84 310.47,271.71 318.32,271.71 318.32,264.84 320.99,264.84 320.99,281.39 	"/>
	<path id="XMLID_54_" d="M336.28,275.08c0-4.35-2.24-6.17-5.61-6.17c-3.65,0-6.03,2.81-6.03,6.45c0,4.35,2.24,6.17,5.61,6.17
		C333.89,281.67,336.28,278.86,336.28,275.08 M333.61,275.22c0,2.81-1.4,4.21-3.09,4.21c-2.1,0-3.09-1.4-3.09-4.21
		s1.54-4.07,3.09-4.07C332.63,271.15,333.61,272.55,333.61,275.22"/>
	<path id="XMLID_55_" d="M344.41,281.53c-3.09,0-5.47-1.54-5.47-5.89c0-3.93,1.96-6.73,6.17-6.73c0.84,0,1.82,0.14,2.67,0.42
		l-0.28,2.24c-0.7-0.28-1.54-0.42-2.38-0.42c-2.24,0-3.37,1.68-3.37,4.21c0,2.24,0.84,3.93,3.23,3.93c0.98,0,1.96-0.28,2.67-0.56
		l0.28,2.24C346.94,281.25,345.68,281.53,344.41,281.53"/>
	<path id="XMLID_56_" d="M359,281.39v-7.86c0-1.54-0.42-2.38-1.82-2.38c-1.82,0-3.23,1.96-3.23,4.35v5.89h-2.67v-17.96h2.67v5.47
		c0,0.7,0,1.82-0.28,2.52l0,0c0.7-1.54,2.1-2.52,4.21-2.52c2.81,0,3.65,1.68,3.65,3.93v8.56H359L359,281.39z"/>
	<path id="XMLID_57_" d="M368.12,281.67c-0.98,0-1.82-0.14-2.52-0.28l0.14-2.24c0.7,0.28,1.68,0.42,2.67,0.42
		c1.4,0,2.38-0.56,2.38-1.68c0-2.38-5.33-0.98-5.33-5.19c0-2.1,1.68-3.79,5.05-3.79c0.7,0,1.54,0.14,2.24,0.28l-0.14,2.1
		c-0.7-0.28-1.54-0.28-2.38-0.28c-1.4,0-2.1,0.56-2.1,1.54c0,2.38,5.47,1.12,5.47,5.19C373.45,279.99,371.49,281.67,368.12,281.67"
		/>
	<path id="XMLID_58_" d="M381.73,281.53c-3.09,0-5.47-1.54-5.47-5.89c0-3.93,1.96-6.73,6.17-6.73c0.84,0,1.82,0.14,2.67,0.42
		l-0.28,2.24c-0.7-0.28-1.54-0.42-2.52-0.42c-2.24,0-3.37,1.68-3.37,4.21c0,2.24,0.84,3.93,3.23,3.93c0.98,0,1.96-0.28,2.67-0.56
		l0.28,2.24C384.39,281.25,383.13,281.53,381.73,281.53"/>
	<path id="XMLID_59_" d="M396.31,281.39v-7.86c0-1.54-0.42-2.38-1.82-2.38c-1.82,0-3.23,1.96-3.23,4.35v5.89h-2.67v-17.96h2.67v5.47
		c0,0.7,0,1.82-0.28,2.52l0,0c0.7-1.54,2.1-2.52,4.21-2.52c2.81,0,3.65,1.68,3.65,3.93v8.56H396.31L396.31,281.39z"/>
	<path id="XMLID_60_" d="M411.32,281.39c0-0.7,0-1.68,0.14-2.38l0,0c-0.7,1.54-2.24,2.67-4.21,2.67c-2.81,0-3.65-1.68-3.65-3.93
		v-8.56h2.67v7.86c0,1.54,0.42,2.38,1.82,2.38c1.82,0,3.23-1.96,3.23-4.35v-5.89h2.67v12.2H411.32z"/>
	<rect id="XMLID_61_" x="418.48" y="263.43" width="2.67" height="17.96"/>
	<path id="XMLID_64_" d="M435.31,274.24c0-2.95-1.54-5.33-5.05-5.33c-3.51,0-5.61,2.81-5.61,6.45c0,4.35,2.1,6.31,5.89,6.31
		c1.54,0,2.95-0.28,4.21-0.84l-0.28-2.1c-0.98,0.42-2.24,0.84-3.51,0.84c-2.38,0-3.65-1.26-3.65-4.07h7.86
		C435.17,274.94,435.31,274.52,435.31,274.24 M432.65,273.53h-5.19c0.28-1.68,1.26-2.67,2.67-2.67
		C431.66,270.87,432.65,271.99,432.65,273.53"/>
	<path id="XMLID_65_" d="M444.29,281.39v-2.1l6.59-10.38c0.42-0.7,0.84-1.26,1.26-1.82c-0.7,0-1.68,0-3.37,0h-4.21v-2.38h10.66v2.1
		l-6.87,10.8c-0.28,0.42-0.56,0.84-0.84,1.26c0.42,0,1.82,0,3.93,0h3.93v2.52H444.29L444.29,281.39z"/>
	<path id="XMLID_69_" d="M466.45,281.39c0-0.7,0-1.68,0.14-2.38l0,0c-0.7,1.54-2.24,2.67-4.21,2.67c-2.81,0-3.65-1.68-3.65-3.93
		v-8.56h2.67v7.86c0,1.54,0.42,2.38,1.82,2.38c1.82,0,3.23-1.96,3.23-4.35v-5.89h2.67v12.2H466.45z M461.4,266.8
		c-0.84,0-1.54-0.7-1.54-1.54c0-0.84,0.7-1.54,1.54-1.54s1.54,0.7,1.54,1.54C462.8,266.24,462.24,266.8,461.4,266.8 M466.17,266.8
		c-0.84,0-1.54-0.7-1.54-1.54c0-0.84,0.7-1.54,1.54-1.54s1.54,0.7,1.54,1.54C467.71,266.24,467.01,266.8,466.17,266.8"/>
	<path id="XMLID_70_" d="M479.92,271.57c-2.38-0.42-3.65,1.26-3.65,4.91v4.91h-2.67v-12.2h2.52c0,0.7-0.14,1.82-0.28,2.67l0,0
		c0.56-1.68,1.82-3.23,4.07-2.95L479.92,271.57z"/>
	<path id="XMLID_73_" d="M485.81,269.19h-2.67v12.2h2.67V269.19z M486.23,265.68c0-0.98-0.7-1.68-1.68-1.68s-1.68,0.7-1.68,1.68
		c0,0.84,0.7,1.68,1.68,1.68C485.39,267.36,486.23,266.66,486.23,265.68"/>
	<path id="XMLID_74_" d="M494.93,281.53c-3.09,0-5.47-1.54-5.47-5.89c0-3.93,1.96-6.73,6.17-6.73c0.84,0,1.82,0.14,2.67,0.42
		l-0.28,2.24c-0.7-0.28-1.54-0.42-2.38-0.42c-2.24,0-3.37,1.68-3.37,4.21c0,2.24,0.84,3.93,3.23,3.93c0.98,0,1.96-0.28,2.67-0.56
		l0.28,2.24C497.45,281.25,496.19,281.53,494.93,281.53"/>
	<path id="XMLID_75_" d="M509.38,281.39v-7.86c0-1.54-0.42-2.38-1.82-2.38c-1.82,0-3.23,1.96-3.23,4.35v5.89h-2.67v-17.96h2.67v5.47
		c0,0.7,0,1.82-0.28,2.52l0,0c0.7-1.54,2.1-2.52,4.21-2.52c2.81,0,3.65,1.68,3.65,3.93v8.56H509.38L509.38,281.39z"/>
	<path id="XMLID_76_" d="M3.69,314.63c-1.26,0-2.38-0.14-3.37-0.42l0.14-2.52c0.98,0.28,2.24,0.56,3.51,0.56
		c1.82,0,3.23-0.7,3.23-2.52c0-3.51-7.29-1.96-7.29-7.43c0-2.81,2.24-4.91,6.03-4.91c0.98,0,1.96,0.14,2.95,0.28l-0.14,2.38
		c-0.98-0.28-1.96-0.42-2.95-0.42c-2.1,0-3.09,0.98-3.09,2.38c0,3.37,7.29,2.1,7.29,7.29C10.14,312.39,7.76,314.63,3.69,314.63"/>
	<path id="XMLID_77_" d="M26.97,314.35h-2.95l-2.1-6.45c-0.28-0.84-0.56-1.68-0.7-2.52l0,0c-0.28,1.12-0.56,2.1-0.84,3.09
		l-1.82,5.89h-2.81l-3.79-12.2h2.81l1.68,5.61c0.28,1.12,0.7,2.24,0.98,3.37l0,0c0.28-1.26,0.56-2.24,0.84-3.37l1.82-5.75h2.67
		l1.82,5.61c0.42,1.54,0.7,2.38,0.98,3.51l0,0c0.28-1.12,0.42-2.1,0.84-3.37l1.68-5.75h2.67L26.97,314.35z"/>
	<path id="XMLID_80_" d="M33.85,302.15h2.67v12.2h-2.67V302.15z M35.25,300.33c-0.98,0-1.68-0.7-1.68-1.68
		c0-0.84,0.7-1.68,1.68-1.68c0.84,0,1.68,0.7,1.68,1.68C36.93,299.63,36.09,300.33,35.25,300.33"/>
	<path id="XMLID_81_" d="M43.1,314.63c-0.84,0-1.82-0.14-2.52-0.28v-2.24c0.7,0.28,1.68,0.42,2.67,0.42c1.4,0,2.38-0.56,2.38-1.68
		c0-2.38-5.33-0.98-5.33-5.19c0-2.1,1.68-3.79,5.05-3.79c0.7,0,1.54,0.14,2.24,0.28l-0.14,2.1c-0.7-0.28-1.54-0.28-2.38-0.28
		c-1.4,0-2.1,0.56-2.1,1.54c0,2.38,5.47,1.12,5.47,5.19C48.43,312.95,46.47,314.63,43.1,314.63"/>
	<path id="XMLID_82_" d="M54.33,314.63c-0.98,0-1.82-0.14-2.52-0.28l0.14-2.24c0.7,0.28,1.68,0.42,2.67,0.42
		c1.4,0,2.38-0.56,2.38-1.68c0-2.38-5.33-0.98-5.33-5.19c0-2.1,1.68-3.79,5.05-3.79c0.7,0,1.54,0.14,2.24,0.28l-0.14,2.1
		c-0.7-0.28-1.54-0.28-2.38-0.28c-1.4,0-2.1,0.56-2.1,1.54c0,2.38,5.47,1.12,5.47,5.19C59.66,312.95,57.55,314.63,54.33,314.63"/>
	<polygon id="XMLID_83_" points="72.28,300.05 72.28,304.96 77.89,304.96 77.89,307.06 72.28,307.06 72.28,314.35 69.62,314.35 
		69.62,297.8 78.17,297.8 78.17,300.05 	"/>
	<path id="XMLID_86_" d="M90.8,307.2c0-2.95-1.54-5.33-5.05-5.33s-5.61,2.81-5.61,6.45c0,4.35,2.1,6.31,5.89,6.31
		c1.54,0,2.95-0.28,4.21-0.84l-0.28-2.1c-0.98,0.56-2.24,0.84-3.51,0.84c-2.38,0-3.65-1.26-3.65-4.07h7.86
		C90.8,307.9,90.8,307.48,90.8,307.2 M88.27,306.5h-5.19c0.28-1.68,1.26-2.67,2.67-2.67C87.29,303.83,88.27,304.96,88.27,306.5"/>
	<path id="XMLID_89_" d="M104.4,314.35V296.4h-2.67v5.61c-0.7,0-1.26-0.14-1.82-0.14c-3.93,0-6.45,2.67-6.45,6.87
		c0,3.51,1.54,5.75,4.49,5.75c1.82,0,3.37-0.98,3.93-2.52l0,0c-0.14,0.7-0.14,1.68-0.14,2.24h2.67V314.35z M101.88,308.04
		c0,2.1-1.12,4.35-3.09,4.35c-1.68,0-2.38-1.4-2.38-3.79c0-3.23,1.4-4.63,3.51-4.63c0.7,0,1.26,0.14,1.96,0.28V308.04L101.88,308.04
		z"/>
	<path id="XMLID_92_" d="M118.71,307.2c0-2.95-1.54-5.33-5.05-5.33c-3.51,0-5.61,2.81-5.61,6.45c0,4.35,2.1,6.31,5.89,6.31
		c1.54,0,2.95-0.28,4.21-0.84l-0.28-2.1c-0.98,0.56-2.24,0.84-3.51,0.84c-2.38,0-3.65-1.26-3.65-4.07h7.86
		C118.71,307.9,118.71,307.48,118.71,307.2 M116.05,306.5h-5.19c0.28-1.68,1.26-2.67,2.67-2.67
		C115.06,303.83,116.05,304.96,116.05,306.5"/>
	<path id="XMLID_93_" d="M128.67,304.53c-2.38-0.42-3.65,1.26-3.65,4.91v4.91h-2.67v-12.2h2.52c0,0.7-0.14,1.82-0.28,2.67l0,0
		c0.56-1.68,1.82-3.23,4.07-2.95V304.53z"/>
	<path id="XMLID_96_" d="M140.45,314.35c0-0.98-0.14-2.24-0.14-3.37v-5.05c0-2.52-0.98-4.07-4.77-4.07c-1.54,0-3.09,0.28-4.35,0.84
		l0.28,2.24c0.98-0.7,2.52-0.98,3.65-0.98c1.96,0,2.52,0.84,2.52,2.24v0.84c-4.35,0-7.15,1.68-7.15,4.49c0,1.96,1.26,3.09,3.37,3.09
		c1.96,0,3.51-1.12,4.07-2.52l0,0c-0.14,0.7-0.14,1.54-0.14,2.24L140.45,314.35L140.45,314.35z M137.79,309.02
		c0,1.68-1.26,3.51-2.95,3.51c-0.98,0-1.68-0.56-1.68-1.54c0-1.12,0.84-2.24,4.63-2.24V309.02L137.79,309.02z"/>
	<rect id="XMLID_97_" x="145.08" y="296.4" width="2.67" height="17.96"/>
	<rect id="XMLID_98_" x="158.55" y="297.8" width="2.67" height="16.55"/>
	<path id="XMLID_99_" d="M173.42,314.35v-7.86c0-1.54-0.42-2.38-1.82-2.38c-1.82,0-3.23,1.96-3.23,4.35v5.89h-2.67v-12.2h2.52
		c0,0.7,0,1.68-0.14,2.38l0,0c0.7-1.54,2.24-2.67,4.21-2.67c2.81,0,3.65,1.68,3.65,3.93v8.56H173.42z"/>
	<path id="XMLID_100_" d="M182.68,314.63c-0.84,0-1.82-0.14-2.52-0.28l0.14-2.24c0.7,0.28,1.68,0.42,2.67,0.42
		c1.4,0,2.38-0.56,2.38-1.68c0-2.38-5.33-0.98-5.33-5.19c0-2.1,1.68-3.79,5.05-3.79c0.7,0,1.54,0.14,2.24,0.28l-0.14,2.1
		c-0.7-0.28-1.54-0.28-2.38-0.28c-1.4,0-2.1,0.56-2.1,1.54c0,2.38,5.47,1.12,5.47,5.19C188.01,312.95,186.04,314.63,182.68,314.63"
		/>
	<path id="XMLID_101_" d="M195.72,314.63c-2.67,0-3.37-0.98-3.37-3.79v-6.59h-2.38v-2.1h2.38v-3.93l2.67-0.7v4.63h3.23v2.1h-3.23
		v5.89c0,1.82,0.42,2.24,1.54,2.24c0.56,0,1.12-0.14,1.54-0.14v2.1C197.41,314.49,196.56,314.63,195.72,314.63"/>
	<path id="XMLID_104_" d="M204.42,302.15h-2.67v12.2h2.67V302.15z M204.84,298.64c0-0.98-0.7-1.68-1.68-1.68
		c-0.98,0-1.68,0.7-1.68,1.68s0.7,1.68,1.68,1.68C204,300.33,204.84,299.63,204.84,298.64"/>
	<path id="XMLID_105_" d="M212.98,314.63c-2.67,0-3.37-0.98-3.37-3.79v-6.59h-2.38v-2.1h2.38v-3.93l2.67-0.7v4.63h3.23v2.1h-3.23
		v5.89c0,1.82,0.42,2.24,1.54,2.24c0.56,0,1.12-0.14,1.54-0.14v2.1C214.66,314.49,213.82,314.63,212.98,314.63"/>
	<path id="XMLID_106_" d="M226.72,314.35c0-0.7,0-1.68,0.14-2.38l0,0c-0.7,1.54-2.24,2.67-4.21,2.67c-2.81,0-3.65-1.68-3.65-3.93
		v-8.56h2.67v7.86c0,1.54,0.42,2.38,1.82,2.38c1.82,0,3.23-1.96,3.23-4.35v-5.89h2.67v12.2H226.72z"/>
	<path id="XMLID_107_" d="M237.8,314.63c-2.67,0-3.37-0.98-3.37-3.79v-6.59h-2.38v-2.1h2.38v-3.93l2.67-0.7v4.63h3.23v2.1h-3.23
		v5.89c0,1.82,0.42,2.24,1.54,2.24c0.56,0,1.12-0.14,1.54-0.14v2.1C239.49,314.49,238.65,314.63,237.8,314.63"/>
	<path id="XMLID_110_" d="M253.38,307.2c0-2.95-1.54-5.33-5.05-5.33s-5.61,2.81-5.61,6.45c0,4.35,2.1,6.31,5.89,6.31
		c1.54,0,2.95-0.28,4.21-0.84l-0.28-2.1c-0.98,0.56-2.24,0.84-3.51,0.84c-2.38,0-3.65-1.26-3.65-4.07h7.86
		C253.38,307.9,253.38,307.48,253.38,307.2 M250.71,306.5h-5.19c0.28-1.68,1.26-2.67,2.67-2.67
		C249.87,303.83,250.85,304.96,250.71,306.5"/>
	<path id="XMLID_113_" d="M274,308.04c0-4.35-2.24-6.17-5.61-6.17c-3.65,0-6.03,2.81-6.03,6.45c0,4.35,2.24,6.17,5.61,6.17
		C271.47,314.63,274,311.83,274,308.04 M271.19,308.18c0,2.81-1.4,4.21-3.09,4.21c-2.1,0-3.09-1.4-3.09-4.21s1.54-4.07,3.09-4.07
		C270.21,304.11,271.19,305.52,271.19,308.18"/>
	<path id="XMLID_114_" d="M284.8,298.64c-0.56-0.14-1.12-0.28-1.68-0.28c-1.54,0-2.24,0.84-2.24,2.81v0.98h3.23v2.1h-3.23v10.24
		h-2.67v-10.24h-2.38v-2.1h2.38v-0.98c0-3.37,1.54-4.91,4.77-4.91c0.7,0,1.4,0.14,1.96,0.28L284.8,298.64z"/>
	<polygon id="XMLID_115_" points="298.12,300.05 298.12,314.35 295.46,314.35 295.46,300.05 290.83,300.05 290.83,297.8 
		302.61,297.8 302.61,300.05 	"/>
	<path id="XMLID_118_" d="M313.27,307.2c0-2.95-1.54-5.33-5.05-5.33c-3.51,0-5.61,2.81-5.61,6.45c0,4.35,2.1,6.31,5.89,6.31
		c1.54,0,2.95-0.28,4.21-0.84l-0.28-2.1c-0.98,0.56-2.24,0.84-3.51,0.84c-2.38,0-3.65-1.26-3.65-4.07h7.86
		C313.27,307.9,313.27,307.48,313.27,307.2 M310.61,306.5h-5.19c0.28-1.68,1.26-2.67,2.67-2.67
		C309.77,303.83,310.61,304.96,310.61,306.5"/>
	<path id="XMLID_119_" d="M321.41,314.49c-3.09,0-5.47-1.54-5.47-5.89c0-3.93,1.96-6.73,6.17-6.73c0.84,0,1.82,0.14,2.67,0.42
		l-0.28,2.24c-0.7-0.28-1.54-0.42-2.52-0.42c-2.24,0-3.37,1.68-3.37,4.21c0,2.24,0.84,3.93,3.23,3.93c0.98,0,1.96-0.28,2.67-0.56
		l0.28,2.24C324.07,314.21,322.81,314.49,321.41,314.49"/>
	<path id="XMLID_120_" d="M336,314.35v-7.86c0-1.54-0.42-2.38-1.82-2.38c-1.82,0-3.23,1.96-3.23,4.35v5.89h-2.67V296.4h2.67v5.47
		c0,0.7,0,1.82-0.28,2.52l0,0c0.7-1.54,2.1-2.52,4.21-2.52c2.81,0,3.65,1.68,3.65,3.93v8.56H336z"/>
	<path id="XMLID_121_" d="M350.87,314.35v-7.86c0-1.54-0.42-2.38-1.82-2.38c-1.82,0-3.23,1.96-3.23,4.35v5.89h-2.67v-12.2h2.52
		c0,0.7,0,1.68-0.14,2.38l0,0c0.7-1.54,2.24-2.67,4.21-2.67c2.81,0,3.65,1.68,3.65,3.93v8.56H350.87z"/>
	<path id="XMLID_124_" d="M368.82,308.04c0-4.35-2.24-6.17-5.61-6.17c-3.65,0-6.03,2.81-6.03,6.45c0,4.35,2.24,6.17,5.61,6.17
		C366.3,314.63,368.82,311.83,368.82,308.04 M366.02,308.18c0,2.81-1.4,4.21-3.09,4.21c-2.1,0-3.09-1.4-3.09-4.21
		s1.54-4.07,3.09-4.07C365.03,304.11,366.02,305.52,366.02,308.18"/>
	<rect id="XMLID_125_" x="372.47" y="296.4" width="2.67" height="17.96"/>
	<path id="XMLID_128_" d="M390.28,308.04c0-4.35-2.24-6.17-5.61-6.17c-3.65,0-6.03,2.81-6.03,6.45c0,4.35,2.24,6.17,5.61,6.17
		C387.9,314.63,390.28,311.83,390.28,308.04 M387.62,308.18c0,2.81-1.4,4.21-3.09,4.21c-2.1,0-3.09-1.4-3.09-4.21
		s1.54-4.07,3.09-4.07C386.64,304.11,387.62,305.52,387.62,308.18"/>
	<path id="XMLID_132_" d="M402.07,316.32c0,1.26-1.26,2.24-3.51,2.24c-1.82,0-2.95-0.7-2.95-2.1c0-0.84,0.56-1.54,1.4-2.1
		c0.14,0,0.42,0,0.7,0h2.24C401.36,314.49,402.07,315.2,402.07,316.32 M404.73,315.9c0-2.24-1.54-3.51-4.21-3.51h-2.1
		c-1.54,0-1.96-0.28-1.96-0.84c0-0.28,0.28-0.7,0.7-0.98c0.42,0.14,0.98,0.14,1.4,0.14c3.51,0,5.33-1.82,5.33-4.49
		c0-0.84-0.28-1.68-0.84-2.1h1.82v-2.1h-4.07c-0.7-0.14-1.26-0.28-1.96-0.28c-3.51,0-5.47,2.1-5.47,4.77c0,1.54,0.56,2.81,1.82,3.51
		c-0.84,0.42-1.4,1.26-1.4,2.1c0,0.84,0.42,1.4,1.26,1.82c-1.12,0.56-1.96,1.68-1.96,3.09c0,2.38,1.96,3.65,5.19,3.65
		C402.07,320.67,404.73,318.56,404.73,315.9 M401.36,306.36c0,1.54-1.12,2.52-2.67,2.52c-1.82,0-2.81-0.98-2.81-2.52
		s0.98-2.52,2.81-2.52C400.38,303.83,401.36,304.82,401.36,306.36"/>
	<path id="XMLID_133_" d="M413.57,315.48c-1.4,3.79-2.67,5.05-5.33,5.05c-0.56,0-1.12-0.14-1.68-0.14l0.14-2.24
		c0.56,0.14,0.98,0.28,1.54,0.28c1.26,0,1.96-0.56,2.67-2.67l0.56-1.26l-4.63-12.2h2.95l1.96,5.61c0.42,1.12,0.7,2.1,0.98,3.23l0,0
		c0.28-0.98,0.7-2.52,1.26-3.79l1.68-4.91h2.81L413.57,315.48z"/>
	<path id="XMLID_134_" d="M426.75,314.35v-2.1l6.59-10.38c0.42-0.7,0.84-1.26,1.26-1.82c-0.7,0-1.68,0-3.37,0h-4.21v-2.38h10.66v2.1
		l-6.87,10.8c-0.28,0.42-0.56,0.84-0.84,1.26c0.42,0,1.82,0,3.93,0h3.93v2.38L426.75,314.35L426.75,314.35z"/>
	<path id="XMLID_135_" d="M448.92,314.35c0-0.7,0-1.68,0.14-2.38l0,0c-0.7,1.54-2.24,2.67-4.21,2.67c-2.81,0-3.65-1.68-3.65-3.93
		v-8.56h2.67v7.86c0,1.54,0.42,2.38,1.82,2.38c1.82,0,3.23-1.96,3.23-4.35v-5.89h2.67v12.2H448.92z"/>
	<path id="XMLID_136_" d="M462.38,304.53c-2.38-0.42-3.65,1.26-3.65,4.91v4.91h-2.67v-12.2h2.52c0,0.7-0.14,1.82-0.28,2.67l0,0
		c0.56-1.68,1.82-3.23,4.07-2.95L462.38,304.53z"/>
	<path id="XMLID_139_" d="M465.61,302.15h2.67v12.2h-2.67V302.15z M467.01,300.33c-0.98,0-1.68-0.7-1.68-1.68
		c0-0.84,0.7-1.68,1.68-1.68c0.84,0,1.68,0.7,1.68,1.68S467.85,300.33,467.01,300.33"/>
	<path id="XMLID_140_" d="M477.39,314.49c-3.09,0-5.47-1.54-5.47-5.89c0-3.93,1.96-6.73,6.17-6.73c0.84,0,1.82,0.14,2.67,0.42
		l-0.28,2.24c-0.7-0.28-1.54-0.42-2.52-0.42c-2.24,0-3.37,1.68-3.37,4.21c0,2.24,0.84,3.93,3.23,3.93c0.98,0,1.96-0.28,2.67-0.56
		l0.28,2.24C479.92,314.21,478.66,314.49,477.39,314.49"/>
	<path id="XMLID_141_" d="M491.84,314.35v-7.86c0-1.54-0.42-2.38-1.82-2.38c-1.82,0-3.23,1.96-3.23,4.35v5.89h-2.67V296.4h2.67v5.47
		c0,0.7,0,1.82-0.28,2.52l0,0c0.7-1.54,2.1-2.52,4.21-2.52c2.81,0,3.65,1.68,3.65,3.93v8.56H491.84z"/>
</g>
</svg>
