<svg xmlns="http://www.w3.org/2000/svg" height="800" width="1200" viewBox="-28.66614 -5.98295 248.43988 35.8977"><path fill="#4e2a84" d="M70.1561.0001L65.293 1.6446v.7559c1.578 0 2.3007.7813 2.3007 3.6485l.0038 15.8437-2.1699.8223v.8535h7.6543l-.0038-.832-2.127-.7422-.629-.791v-9.4688s1.3155-1.5117 3.3536-1.5117c2.3992 0 4.4687.7245 4.4687 4.4062h.0025l-.0996 7.2871-2.1035.7989v.8535h7.6524l-.0025-.832-2.127-.7422-.629-.791.0026-8.1524c0-3.9776-2.4979-5.0958-5.1934-5.0958-2.1694 0-5.3242 2.5313-5.3242 2.5313V5.918c0-2.5312.164-5.918.164-5.918h-.3301zM.7636 1.6369v.8691l2.1798 2.4493v16.805L0 22.5825v.9864h7.9708v-.9942l-2.5118-.664-.6406-.7872V7.0998l13.9712 16.6325h1.2285V3.746l2.959-.8964v-1.043h-8.0878v1.1758l2.5702.6445.625.7871v13.285l-.0037-.0156h-.164L4.358 1.6359H.7642zm57.9125 2.9336l-1.9062.3281-.8203 3.7149-2.6973.2617v1.2833c1.4794 0 2.6973.1315 2.6973 1.5448 0 1.4134-.1328 5.8505-.1328 7.625 0 3.3533 1.2832 4.6035 3.4198 4.6035 1.8405 0 3.352-.7574 4.7324-1.875l-.3613-.7558s-.9204.5918-2.3008.5918c-1.4793 0-2.8282-.821-2.7948-2.8594l.1328-8.6133h4.9082l.0664-.5351h.0025l.3281-2.6993-.625-.1132-.4707 1.0312-.2676.2246-3.8672.1504v.0025h-.043V4.5711zm80.4763 0l-1.9063.3281-.8222 3.7149-2.6954.2637v1.2812c1.479 0 2.6954.1316 2.6954 1.5449s-.1309 5.8505-.1309 7.625c0 3.3532 1.2813 4.6035 3.418 4.6035 1.8405 0 3.3536-.7575 4.7344-1.875l-.3613-.7559h-.0025s-.9208.5918-2.3008.5918c-1.4797 0-2.8256-.8209-2.793-2.8594l.1309-8.6132h4.8752l.0644-.5352h.0037l.3282-2.6992-.625-.1133-.4707 1.0313-.2676.2246-3.8691.1504v.0037h-.0063V4.5703zM44.8286 7.8556l-4.6992 1.7423v.789c1.7749 0 2.332 1.6114 2.332 4.3399v7.166l-2.168.8223v.8535H47.85l-.0037-.832-2.125-.7422-.629-.7891v-7.0371c0-2.1694 1.7103-3.3848 3.5508-3.3848.3768 0 .7632.0919 1.0937.2031l.5137.7598.6328.0528.4883-3.6465h-.0025c-.016-.0063-.5737-.1973-1.6426-.1973-2.301 0-4.7011 3.6152-4.7011 3.6152 0-2.005.0663-3.7148.0663-3.7148h-.2636zm120.2288 0l-4.7011 1.7423v.789c1.7748 0 2.334 1.6114 2.334 4.3399v7.166l-2.17.8223v.8535h7.5587l-.0037-.832-2.125-.7422-.629-.7891v-7.0371c0-2.1694 1.7083-3.3848 3.549-3.3848.377 0 .7635.0919 1.0937.2031l.5156.7598.6328.0528.4863-3.6465h-.0025c-.0163-.0063-.5734-.1973-1.6426-.1973-2.3006 0-4.6992 3.6152-4.6992 3.6152 0-2.005.0645-3.7148.0645-3.7148h-.2618zm12.8412 0l-4.7988 1.7423v.789c1.8405 0 2.334 1.6451 2.334 4.6035v6.9024l-2.172.8223v.8535h7.5587l.0606-.832-2.125-.7422-.6289-.791v-9.4356s1.152-1.5448 3.2226-1.5448c2.1368 0 4.338.7575 4.338 4.4062l-.0997 7.293-2.0996.793v.8535h7.5586l.0605-.832-2.127-.7422-.629-.791.0333-8.3184c0-3.846-2.4986-4.9298-5.0625-4.9298-2.1697 0-5.2265 2.5313-5.2265 2.5313 0-1.381.0645-2.6309.0645-2.6309h-.2617zm-147.225.0996c-3.7143 0-7.7246 2.6944-7.7246 8.0528 0 5.3906 3.7796 7.9219 7.7246 7.9219 3.6488 0 7.789-3.023 7.789-8.1837 0-5.3582-3.9103-7.791-7.789-7.791zm82.8225 0c-4.0102 0-7.2305 3.3848-7.2305 8.0528 0 5.1277 3.3525 7.9219 7.0997 7.9219 2.7615 0 4.9632-1.6763 5.752-2.465l-.3282-.625s-2.2017.7579-4.043.7579c-2.958 0-5.5547-1.9073-5.5547-6.4765h9.6972s.164-.8213.164-1.7423c0-3.55-2.434-5.4238-5.5565-5.4238zm13.8675 0c-3.3198 0-5.457 1.4128-5.457 4.3712 0 2.3666 1.184 3.3535 3.584 4.5702l1.6758.8535c1.2488.6574 2.2695 1.315 2.2695 2.5645 0 1.3148-.758 2.3008-2.6641 2.3008-1.8743 0-3.3188-1.379-3.713-3.5157h-1.4472l.1973 3.1212c.033.6903.6236 1.0189.8535 1.1172.9533.3945 2.4328.5918 4.1094.5918 2.6299 0 5.3261-1.6093 5.3261-4.3048 0-2.2347-.7557-3.3872-3.4511-4.7676l-1.4805-.7559c-2.5973-1.3474-3.0235-1.8072-3.0235-2.8594 0-1.315 1.248-1.8417 2.5957-1.8417 2.0048 0 2.9923.8894 2.9923 3.289h1.3476l.4278-3.8476s-1.8087-.8868-4.1427-.8868zm25.4513 0c-4.01 0-7.2305 3.3848-7.2305 8.0528 0 5.1277 3.3529 7.9219 7.0996 7.9219 2.7615 0 4.9646-1.6763 5.7539-2.465l-.3301-.625s-2.2017.7579-4.043.7579c-2.9577 0-5.5547-1.9073-5.5547-6.4765h9.6972s.164-.8213.164-1.7423c0-3.55-2.4336-5.4238-5.5566-5.4238zm-69.9088.3946v.9199c1.052 0 1.371.888 1.9298 2.4004l3.9649 12.0625h1.3788l4.0352-9.7637 3.5235 9.7637h1.5468l3.963-11.2403c1.0514-2.6955 1.7088-3.0587 3.0565-3.2226v-.92H100.42v.8555l2.2364.7871-3.465 9.9278-3.334-9.9923 1.9786-.5937v-.9844h-6.2754v.92l1.127.2792.8925 2.541-.6054 1.584-2.5977 6.2462-2.957-9.9923 1.9747-.6484v-.9297h-6.4883zm-52.66 1.0507c3.1557 0 5.1602 3.1233 5.1602 6.8048 0 3.6817-1.4793 6.2461-4.3067 6.2461-3.3198 0-5.0937-3.2212-5.0937-6.9024 0-3.6817 1.4131-6.1485 4.2402-6.1485zm82.8238.0664c2.1037 0 3.0899 1.0532 3.0899 2.4336 0 1.611-.5588 1.9064-2.1368 1.9727l-4.832.164c0-2.6295 1.6765-4.5702 3.8789-4.5702zm39.3187 0c2.1038 0 3.09 1.0532 3.09 2.4336 0 1.611-.5588 1.9064-2.1368 1.9727l-4.832.164c0-2.6295 1.6762-4.5702 3.8788-4.5702z"/></svg>