<?xml version="1.0" encoding="utf-8"?>
<!-- Generator: Adobe Illustrator 26.5.0, SVG Export Plug-In . SVG Version: 6.00 Build 0)  -->
<svg version="1.1" id="Layer_1" xmlns="http://www.w3.org/2000/svg" xmlns:xlink="http://www.w3.org/1999/xlink" x="0px" y="0px"
	 viewBox="0 0 512 512" style="enable-background:new 0 0 512 512;" xml:space="preserve">
<style type="text/css">
	.st0{fill:#1569B7;}
</style>
<g id="XMLID_1_">
	<path id="XMLID_3_" class="st0" d="M31,302.49H0v-92.44c0-0.14,0-0.7,0-0.7h50.78c13.75,0,25.67,8.98,29.46,20.76
		c3.65,10.94,0.56,22.86-7.57,31.28c1.12,2.95,2.1,5.19,3.09,7.86c2.24,5.19,4.35,10.38,6.59,15.43l7.43,17.67H58.35
		c0,0-0.28-0.7-0.56-1.12c-1.26-2.81-2.38-5.61-3.65-8.42l-7.57-17.96c-2.95-7.29-6.03-14.03-8.98-21.32
		c3.79-0.14,6.59,0.56,10.1-1.12c2.52-1.26,6.31-4.35,6.45-10.24c-0.14-2.95-0.98-5.19-2.81-7.43c-1.96-2.1-4.77-3.79-8.42-3.79
		H30.86v71.54"/>
	<path id="XMLID_6_" class="st0" d="M374.11,289.02h-3.23l-4.77,13.75h2.95l0.98-2.81h5.05l0.98,2.81h2.95L374.11,289.02z
		 M372.43,292.39l1.82,5.33h-3.51L372.43,292.39"/>
	<path id="XMLID_9_" class="st0" d="M387.58,289.02h-3.23l-4.77,13.75h2.95l0.98-2.81h5.05l0.98,2.81h2.95L387.58,289.02z
		 M386.03,292.39l1.82,5.33h-3.51L386.03,292.39"/>
	<path id="XMLID_10_" class="st0" d="M401.88,298.14c-0.14,0.56-0.14,1.96-2.1,2.52c-0.42,0.14-0.84,0.14-1.12,0.14
		c-0.42,0-0.7-0.14-1.12-0.28c-0.7-0.28-1.26-0.98-1.82-1.96c-0.42-0.84-0.42-1.96-0.42-2.95s0.28-1.82,0.42-2.38
		c0.42-1.12,1.4-2.1,2.81-2.24c2.81-0.14,3.37,1.68,3.51,2.52h2.67c0-0.7-0.14-2.52-2.1-3.79c-1.4-0.98-2.67-1.12-3.65-1.12
		c-3.51,0-5.19,1.96-6.03,4.63c-0.28,0.84-0.28,1.68-0.28,2.67c0,0.84,0.14,1.82,0.28,2.38c0.7,2.95,2.81,4.91,5.89,4.77
		c1.68,0,3.23-0.7,4.07-1.4c0.98-0.84,1.82-2.38,1.82-3.79h-2.81"/>
	<polyline id="XMLID_11_" class="st0" points="406.23,302.77 409.18,302.77 409.18,296.6 414.65,296.6 414.65,302.77 417.46,302.77 
		417.46,289.02 414.65,289.02 414.65,294.21 409.18,294.21 409.18,289.02 406.23,289.02 406.23,302.77 	"/>
	<polyline id="XMLID_12_" class="st0" points="419.7,289.02 419.7,302.77 429.94,302.77 429.94,300.53 422.51,300.53 422.51,296.88 
		429.1,296.88 429.1,294.49 422.51,294.49 422.51,291.41 429.66,291.41 429.66,289.02 419.7,289.02 	"/>
	<polyline id="XMLID_13_" class="st0" points="431.9,289.02 431.9,302.77 434.85,302.77 434.85,293.23 440.32,302.77 443.13,302.77 
		443.13,289.02 440.32,289.02 440.32,298.56 434.71,289.02 431.9,289.02 	"/>
	<polyline id="XMLID_14_" class="st0" points="366.82,282.85 369.62,282.85 369.62,276.54 375.09,276.54 375.09,282.85 
		377.9,282.85 377.9,269.1 375.09,269.1 375.09,274.3 369.62,274.3 369.62,269.1 366.82,269.1 366.82,282.85 	"/>
	<path id="XMLID_17_" class="st0" d="M393.33,275.98c0-2.1-0.7-4.21-2.1-5.47c-1.12-1.12-2.81-1.68-4.63-1.68
		c-1.82,0-3.51,0.56-4.63,1.68c-1.26,1.4-2.1,3.37-2.1,5.47c0,2.1,0.7,4.21,2.1,5.47c1.12,1.12,2.81,1.68,4.63,1.68
		c1.82,0,3.51-0.56,4.63-1.68C392.49,280.19,393.33,278.08,393.33,275.98z M386.6,280.75c-0.84,0-1.82-0.28-2.52-0.98
		c-0.84-0.84-1.4-2.38-1.4-3.79c0-1.54,0.42-2.95,1.4-3.79c0.7-0.7,1.68-0.98,2.52-0.98c0.84,0,1.82,0.28,2.52,0.98
		c0.84,0.84,1.4,2.38,1.4,3.79c0,1.54-0.42,2.95-1.4,3.79C388.42,280.47,387.58,280.75,386.6,280.75"/>
	<path id="XMLID_18_" class="st0" d="M403.85,278.08c-0.14,0.56-0.14,1.96-2.1,2.52c-0.42,0.14-0.84,0.14-1.12,0.14
		c-0.42,0-0.7-0.14-1.12-0.28c-0.7-0.28-1.26-0.98-1.82-1.96c-0.42-0.84-0.42-1.96-0.42-2.95s0.28-1.82,0.42-2.38
		c0.42-1.12,1.4-2.1,2.81-2.24c2.81-0.14,3.37,1.68,3.51,2.52h2.67c0-0.7-0.14-2.52-2.1-3.79c-1.4-0.98-2.67-1.12-3.65-1.12
		c-3.51,0-5.19,1.96-6.03,4.63c-0.28,0.84-0.28,1.68-0.28,2.67c0,0.84,0.14,1.82,0.28,2.38c0.7,2.95,2.81,4.91,5.89,4.77
		c1.68,0,3.23-0.7,4.07-1.4c0.98-0.84,1.82-2.38,1.82-3.79h-2.81"/>
	<polyline id="XMLID_19_" class="st0" points="408.62,282.85 411.42,282.85 411.42,276.54 416.89,276.54 416.89,282.85 
		419.84,282.85 419.84,269.1 416.89,269.1 416.89,274.3 411.42,274.3 411.42,269.1 408.62,269.1 408.62,282.85 	"/>
	<path id="XMLID_20_" class="st0" d="M432.46,273.31c0.14-0.42-0.14-1.68-0.84-2.67c-1.4-1.68-3.93-1.82-4.63-1.82
		c-3.37,0-4.91,1.68-5.19,3.79c-0.28,2.24,0.98,3.37,2.52,3.79c1.82,0.56,4.49,0.56,5.47,1.54c0.7,0.7,0.56,1.82,0,2.38
		c-0.42,0.28-1.26,0.56-2.24,0.7c-0.98,0-1.96-0.14-2.52-0.84c-0.42-0.56-0.56-1.12-0.56-1.4h-2.81c0.14,1.26,0.7,2.67,1.96,3.51
		c0.98,0.7,2.67,0.98,3.37,0.98c1.54,0,3.09-0.14,4.35-0.98c1.68-1.12,2.52-4.35,0.84-6.03c-0.84-0.84-2.52-1.26-3.23-1.4
		c-0.56-0.14-3.09-0.56-3.51-0.84c-0.56-0.28-0.98-0.42-0.84-1.4c0.14-1.12,1.12-1.54,2.52-1.54c1.96,0,2.81,1.12,2.81,2.1h2.52"/>
	<path id="XMLID_21_" class="st0" d="M443.83,278.08c-0.14,0.56-0.14,1.96-2.1,2.52c-0.42,0.14-0.84,0.14-1.12,0.14
		c-0.42,0-0.7-0.14-1.12-0.28c-0.7-0.28-1.26-0.98-1.82-1.96c-0.42-0.84-0.42-1.96-0.42-2.95s0.28-1.82,0.42-2.38
		c0.42-1.12,1.4-2.1,2.81-2.24c2.81-0.14,3.37,1.68,3.51,2.52h2.67c0-0.7-0.14-2.52-2.1-3.79c-1.4-0.98-2.67-1.12-3.65-1.12
		c-3.51,0-5.19,1.96-6.03,4.63c-0.28,0.84-0.28,1.68-0.28,2.67c0,0.84,0.14,1.82,0.28,2.38c0.7,2.95,2.81,4.91,5.89,4.77
		c1.68,0,3.23-0.7,4.07-1.4c0.98-0.84,1.82-2.38,1.82-3.79h-2.81"/>
	<polyline id="XMLID_22_" class="st0" points="448.6,282.85 451.4,282.85 451.4,276.54 456.87,276.54 456.87,282.85 459.82,282.85 
		459.82,269.1 456.87,269.1 456.87,274.3 451.4,274.3 451.4,269.1 448.6,269.1 448.6,282.85 	"/>
	<path id="XMLID_23_" class="st0" d="M470.34,269.1v9.54c0,0.84-0.42,2.24-2.67,2.24c-2.24,0-2.52-1.4-2.67-2.24v-9.54h-2.81v9.54
		c0,1.4,0.56,2.95,2.81,4.21c0.7,0.28,1.68,0.42,2.67,0.42c0.98,0,1.96-0.14,2.81-0.56c2.24-1.12,2.52-2.95,2.52-4.21v-9.54h-2.67"
		/>
	<polyline id="XMLID_24_" class="st0" points="475.81,269.1 475.81,282.85 485.21,282.85 485.21,280.47 478.61,280.47 478.61,269.1 
		475.81,269.1 	"/>
	<polyline id="XMLID_25_" class="st0" points="487.31,269.1 487.31,282.85 497.69,282.85 497.69,280.47 490.26,280.47 
		490.26,276.96 496.85,276.96 496.85,274.58 490.26,274.58 490.26,271.35 497.41,271.35 497.41,269.1 487.31,269.1 	"/>
	<polyline id="XMLID_26_" class="st0" points="365.83,249.05 365.83,251.43 369.9,251.43 369.9,262.79 372.85,262.79 372.85,251.43 
		376.78,251.43 376.78,249.05 365.83,249.05 	"/>
	<polyline id="XMLID_27_" class="st0" points="378.6,249.05 378.6,262.79 388.98,262.79 388.98,260.55 381.55,260.55 381.55,256.9 
		388.14,256.9 388.14,254.52 381.55,254.52 381.55,251.43 388.56,251.43 388.56,249.05 378.6,249.05 	"/>
	<path id="XMLID_28_" class="st0" d="M399.92,258.16c-0.14,0.56-0.14,1.96-2.1,2.52c-0.42,0.14-0.84,0.14-1.12,0.14
		c-0.42,0-0.7-0.14-1.12-0.28c-0.7-0.28-1.26-0.98-1.82-1.96c-0.42-0.84-0.42-1.96-0.42-2.95c0-0.98,0.28-1.82,0.42-2.38
		c0.42-1.12,1.4-2.1,2.81-2.24c2.81-0.14,3.37,1.68,3.51,2.52h2.67c0-0.7-0.14-2.52-2.1-3.79c-1.4-0.98-2.67-1.12-3.65-1.12
		c-3.51,0-5.19,1.96-6.03,4.63c-0.28,0.84-0.28,1.68-0.28,2.67c0,0.84,0.14,1.82,0.28,2.38c0.7,2.95,2.81,4.91,5.89,4.77
		c1.68,0,3.23-0.7,4.07-1.4c0.98-0.84,1.82-2.38,1.82-3.79h-2.81"/>
	<polyline id="XMLID_29_" class="st0" points="404.55,262.79 407.36,262.79 407.36,256.62 412.83,256.62 412.83,262.79 
		415.63,262.79 415.63,249.05 412.83,249.05 412.83,254.24 407.36,254.24 407.36,249.05 404.55,249.05 404.55,262.79 	"/>
	<polyline id="XMLID_30_" class="st0" points="418.16,249.05 418.16,262.79 421.1,262.79 421.1,253.25 426.57,262.79 429.38,262.79 
		429.38,249.05 426.57,249.05 426.57,258.58 420.96,249.05 418.16,249.05 	"/>
	<rect id="XMLID_31_" x="431.62" y="249.05" class="st0" width="2.81" height="13.75"/>
	<path id="XMLID_32_" class="st0" d="M447.19,253.25c0.14-0.42-0.14-1.68-0.84-2.67c-1.4-1.68-3.93-1.82-4.63-1.82
		c-3.37,0-4.91,1.68-5.19,3.79c-0.28,2.24,0.98,3.37,2.52,3.79c1.82,0.56,4.49,0.56,5.47,1.54c0.7,0.7,0.56,1.82,0,2.38
		c-0.42,0.28-1.26,0.56-2.24,0.7c-0.98,0-1.96-0.14-2.52-0.84c-0.42-0.42-0.56-1.12-0.56-1.4h-2.81c0.14,1.26,0.7,2.67,1.96,3.51
		c0.98,0.7,2.67,0.98,3.37,0.98c1.54,0,3.09-0.14,4.35-0.98c1.68-1.12,2.52-4.35,0.84-6.03c-0.84-0.84-2.52-1.26-3.23-1.4
		c-0.56-0.14-3.09-0.56-3.51-0.84c-0.56-0.28-0.98-0.42-0.84-1.4c0.14-1.12,1.12-1.54,2.52-1.54c1.96,0,2.81,1.12,2.81,2.1h2.52"/>
	<path id="XMLID_33_" class="st0" d="M458.7,258.16c-0.14,0.56-0.14,1.96-2.1,2.52c-0.42,0.14-0.84,0.14-1.12,0.14
		c-0.42,0-0.7-0.14-1.12-0.28c-0.7-0.28-1.26-0.98-1.82-1.96c-0.42-0.84-0.42-1.96-0.42-2.95c0-0.98,0.28-1.82,0.42-2.38
		c0.42-1.12,1.4-2.1,2.81-2.24c2.81-0.14,3.37,1.68,3.51,2.52h2.67c0-0.7-0.14-2.52-2.1-3.79c-1.4-0.98-2.67-1.12-3.65-1.12
		c-3.51,0-5.19,1.96-6.03,4.63c-0.28,0.84-0.28,1.68-0.28,2.67c0,0.84,0.14,1.82,0.28,2.38c0.7,2.95,2.81,4.91,5.89,4.77
		c1.68,0,3.23-0.7,4.07-1.4c0.98-0.84,1.82-2.38,1.82-3.79h-2.81"/>
	<polyline id="XMLID_34_" class="st0" points="463.47,262.79 466.27,262.79 466.27,256.62 471.74,256.62 471.74,262.79 
		474.55,262.79 474.55,249.05 471.74,249.05 471.74,254.24 466.27,254.24 466.27,249.05 463.47,249.05 463.47,262.79 	"/>
	<polyline id="XMLID_35_" class="st0" points="477.21,249.05 477.21,262.79 487.45,262.79 487.45,260.55 480.02,260.55 
		480.02,256.9 486.61,256.9 486.61,254.52 480.02,254.52 480.02,251.43 487.17,251.43 487.17,249.05 477.21,249.05 	"/>
	<polyline id="XMLID_36_" class="st0" points="365.69,229.13 369.62,242.87 372.15,242.87 374.39,232.35 376.78,242.87 
		379.3,242.87 383.09,229.13 380.14,229.13 378.04,239.51 375.93,229.13 372.99,229.13 370.88,239.37 368.78,229.13 365.69,229.13 	
		"/>
	<polyline id="XMLID_37_" class="st0" points="384.77,229.13 384.77,242.87 395.01,242.87 395.01,240.49 387.58,240.49 
		387.58,236.98 394.17,236.98 394.17,234.6 387.58,234.6 387.58,231.37 394.73,231.37 394.73,229.13 384.77,229.13 	"/>
	<path id="XMLID_38_" class="st0" d="M407.22,233.34c0.14-0.42-0.14-1.68-0.84-2.67c-1.4-1.68-3.93-1.82-4.63-1.82
		c-3.37,0-4.91,1.68-5.19,3.79c-0.28,2.24,0.98,3.37,2.52,3.79c1.82,0.56,4.49,0.56,5.47,1.54c0.7,0.7,0.56,1.82,0,2.38
		c-0.42,0.28-1.26,0.56-2.24,0.7c-0.98,0-1.96-0.14-2.52-0.84c-0.42-0.42-0.56-1.12-0.56-1.4h-2.81c0.14,1.26,0.7,2.67,1.96,3.51
		c0.98,0.7,2.67,0.98,3.37,0.98c1.54,0,3.09-0.14,4.35-0.98c1.68-1.12,2.52-4.35,0.84-6.03c-0.84-0.84-2.52-1.26-3.23-1.4
		c-0.56-0.14-3.09-0.56-3.51-0.84c-0.56-0.28-0.98-0.42-0.84-1.4c0.14-1.12,1.12-1.54,2.52-1.54c1.96,0,2.81,1.12,2.81,2.1h2.52"/>
	<polyline id="XMLID_39_" class="st0" points="407.92,229.13 407.92,231.37 412.12,231.37 412.12,242.87 414.93,242.87 
		414.93,231.37 419,231.37 419,229.13 407.92,229.13 	"/>
	<polyline id="XMLID_40_" class="st0" points="420.4,229.13 420.4,242.87 423.21,242.87 423.21,236.98 429.24,236.98 429.24,234.6 
		423.21,234.6 423.21,231.37 430.08,231.37 430.08,229.13 420.4,229.13 	"/>
	<path id="XMLID_45_" class="st0" d="M433.31,227.72h2.1v-2.24h-2.1V227.72z M438.92,225.48h-2.1v2.24h2.1V225.48z M437.8,229.13
		h-3.23l-4.77,13.75h2.95l0.98-2.81h5.05l0.98,2.81h2.95L437.8,229.13z M436.25,232.35l1.82,5.33h-3.51L436.25,232.35"/>
	<polyline id="XMLID_46_" class="st0" points="444.39,229.13 444.39,242.87 453.79,242.87 453.79,240.49 447.19,240.49 
		447.19,229.13 444.39,229.13 	"/>
	<rect id="XMLID_47_" x="455.89" y="229.13" class="st0" width="2.81" height="13.75"/>
	<path id="XMLID_48_" class="st0" d="M471.74,233.34c0.14-0.42-0.14-1.68-0.84-2.67c-1.4-1.68-3.93-1.82-4.63-1.82
		c-3.37,0-4.91,1.68-5.19,3.79c-0.28,2.24,0.98,3.37,2.52,3.79c1.82,0.56,4.49,0.56,5.47,1.54c0.7,0.7,0.56,1.82,0,2.38
		c-0.42,0.28-1.26,0.56-2.24,0.7c-0.98,0-1.96-0.14-2.52-0.84c-0.42-0.42-0.56-1.12-0.56-1.4h-2.81c0.14,1.26,0.7,2.67,1.96,3.51
		c0.98,0.7,2.67,0.98,3.37,0.98c1.54,0,3.09-0.14,4.35-0.98c1.68-1.12,2.52-4.35,0.84-6.03c-0.84-0.84-2.52-1.26-3.23-1.4
		c-0.56-0.14-3.09-0.56-3.51-0.84c-0.56-0.28-0.98-0.42-0.84-1.4c0.14-1.12,1.12-1.54,2.52-1.54c1.96,0,2.81,1.12,2.81,2.1h2.52"/>
	<path id="XMLID_49_" class="st0" d="M483.24,238.1c-0.14,0.56-0.14,1.96-2.1,2.52c-0.42,0.14-0.84,0.14-1.12,0.14
		c-0.42,0-0.7-0.14-1.12-0.28c-0.7-0.28-1.26-0.98-1.82-1.96c-0.42-0.84-0.42-1.96-0.42-2.95c0-0.98,0.28-1.82,0.42-2.38
		c0.42-1.12,1.4-2.1,2.81-2.24c2.81-0.14,3.37,1.68,3.51,2.52h2.67c0-0.7-0.14-2.52-2.1-3.79c-1.4-0.98-2.67-1.12-3.65-1.12
		c-3.51,0-5.19,1.96-6.03,4.63c-0.28,0.84-0.28,1.68-0.28,2.67c0,0.84,0.14,1.82,0.28,2.38c0.7,2.95,2.81,4.91,5.89,4.77
		c1.68,0,3.23-0.7,4.07-1.4c0.98-0.84,1.82-2.38,1.82-3.79h-2.81"/>
	<polyline id="XMLID_50_" class="st0" points="488.01,242.87 490.82,242.87 490.82,236.56 496.29,236.56 496.29,242.87 
		499.09,242.87 499.09,229.13 496.29,229.13 496.29,234.32 490.82,234.32 490.82,229.13 488.01,229.13 488.01,242.87 	"/>
	<polyline id="XMLID_51_" class="st0" points="501.76,229.13 501.76,242.87 512,242.87 512,240.49 504.57,240.49 504.57,236.98 
		511.16,236.98 511.16,234.6 504.57,234.6 504.57,231.37 511.72,231.37 511.72,229.13 501.76,229.13 	"/>
	<path id="XMLID_54_" class="st0" d="M366.96,222.81h2.81v-5.47h3.37c0.98,0,1.68,0.42,1.68,1.4c0,0.98,0,2.1,0,2.81
		c0,0.42,0.14,0.84,0.42,1.26h3.09v-0.42c-0.28-0.14-0.56-0.42-0.56-1.12s0-2.52-0.14-3.09c-0.14-1.26-1.12-1.54-1.54-1.96
		c0.98-0.56,1.54-0.98,1.82-2.1c0.28-1.12,0-2.1-0.14-2.81c-0.42-1.54-1.82-2.1-3.23-2.24h-7.72v13.75H366.96z M369.9,211.45h3.79
		c1.26,0,1.68,0.56,1.68,1.54c0.14,1.4-0.98,2.1-1.68,2.1h-3.93v-3.65"/>
	<polyline id="XMLID_55_" class="st0" points="380.28,222.81 383.23,222.81 383.23,216.64 388.7,216.64 388.7,222.81 391.5,222.81 
		391.5,209.07 388.7,209.07 388.7,214.26 383.23,214.26 383.23,209.07 380.28,209.07 380.28,222.81 	"/>
	<polyline id="XMLID_56_" class="st0" points="393.75,209.07 393.75,222.81 403.99,222.81 403.99,220.57 396.55,220.57 
		396.55,216.92 403.15,216.92 403.15,214.54 396.55,214.54 396.55,211.45 403.71,211.45 403.71,209.07 393.75,209.07 	"/>
	<rect id="XMLID_57_" x="406.23" y="209.07" class="st0" width="2.81" height="13.75"/>
	<polyline id="XMLID_58_" class="st0" points="411.84,209.07 411.84,222.81 414.65,222.81 414.65,213.28 420.26,222.81 
		422.93,222.81 422.93,209.07 420.12,209.07 420.12,218.61 414.65,209.07 411.84,209.07 	"/>
	<rect id="XMLID_59_" x="425.45" y="209.07" class="st0" width="2.81" height="13.75"/>
	<path id="XMLID_60_" class="st0" d="M440.88,213.28c0.14-0.42-0.14-1.68-0.84-2.67c-1.4-1.68-3.93-1.82-4.63-1.82
		c-3.37,0-4.91,1.68-5.19,3.79c-0.28,2.24,0.98,3.37,2.52,3.79c1.82,0.56,4.49,0.56,5.47,1.54c0.7,0.7,0.56,1.82,0,2.38
		c-0.42,0.28-1.26,0.56-2.24,0.7c-0.98,0-1.96-0.14-2.52-0.84c-0.42-0.56-0.56-1.12-0.56-1.4h-2.81c0.14,1.26,0.7,2.67,1.96,3.51
		c0.98,0.7,2.67,0.98,3.37,0.98c1.54,0,3.09-0.14,4.35-0.98c1.68-1.12,2.52-4.35,0.84-6.03c-0.84-0.84-2.52-1.26-3.23-1.4
		c-0.56-0.14-3.09-0.56-3.51-0.84c-0.56-0.28-0.98-0.42-0.84-1.4c0.14-1.12,1.12-1.54,2.52-1.54c1.96,0,2.81,1.12,2.81,2.1h2.52"/>
	<path id="XMLID_61_" class="st0" d="M451.96,218.19c-0.14,0.56-0.14,1.96-2.1,2.52c-0.42,0.14-0.84,0.14-1.12,0.14
		c-0.42,0-0.7-0.14-1.12-0.28c-0.7-0.28-1.26-0.98-1.82-1.96c-0.42-0.84-0.42-1.96-0.42-2.95c0-0.98,0.28-1.82,0.42-2.38
		c0.42-1.12,1.4-2.1,2.81-2.24c2.81-0.14,3.37,1.68,3.51,2.52h2.67c0-0.7-0.14-2.52-2.1-3.79c-1.4-0.98-2.67-1.12-3.65-1.12
		c-3.51,0-5.19,1.96-6.03,4.63c-0.28,0.84-0.28,1.68-0.28,2.67c0,0.84,0.14,1.82,0.28,2.38c0.7,2.95,2.81,4.91,5.89,4.77
		c1.68,0,3.23-0.7,4.07-1.4c0.98-0.84,1.82-2.38,1.82-3.79h-2.81"/>
	<polyline id="XMLID_62_" class="st0" points="456.73,222.81 459.68,222.81 459.68,216.64 465.01,216.64 465.01,222.81 
		467.95,222.81 467.95,209.07 465.01,209.07 465.01,214.26 459.68,214.26 459.68,209.07 456.73,209.07 456.73,222.81 	"/>
	<rect id="XMLID_63_" x="469.78" y="216.36" class="st0" width="5.19" height="2.52"/>
	<path id="XMLID_64_" class="st0" d="M354.47,209.35v93.14h-31v-38.01h-21.74v38.01c-5.61,0-11.64,0-17.25,0h-13.61v-71.54h-21.6
		c0,0.7,0,1.4,0,2.24v69.3h-31v-71.54h-21.88v71.54h-31.84c-5.61-13.47-11.36-26.93-16.83-40.4c-0.56-2.81-1.26-5.61-2.1-8.42v48.68
		h-31.98c-6.31-14.73-12.48-29.18-18.8-44.19c-2.24-5.19-3.93-9.4-6.31-14.73l-0.28-0.7l-4.91-11.5l-7.01-16.55
		c-0.56-1.82-1.68-3.51-2.24-5.47h31.84c6.59,15.99,13.19,31.7,20.06,47.27l0.14,0.42c-0.28-1.82-0.84-4.07-1.12-5.89v-27.77
		c0-4.49,0-9.54,0-14.03h31.98c0.42,0.98,0.56,1.54,0.98,2.38c3.79,8.84,7.29,17.53,11.08,26.23l8.42,19.08
		c-0.14-1.96-0.56-3.93-0.84-5.89v-41.8h125.26v33.53c0,0,0.98,0,1.54,0h20.2v-33.53c0,0,10.8,0,16.13,0h14.73"/>
</g>
</svg>
