<?xml version="1.0" encoding="utf-8"?>
<!-- Generator: Adobe Illustrator 27.0.0, SVG Export Plug-In . SVG Version: 6.00 Build 0)  -->
<svg version="1.1" id="Layer_1" xmlns="http://www.w3.org/2000/svg" xmlns:xlink="http://www.w3.org/1999/xlink" x="0px" y="0px"
	 viewBox="0 0 512 512" style="enable-background:new 0 0 512 512;" xml:space="preserve">
<style type="text/css">
	.st0{fill:#E2001A;}
	.st1{fill:#FFFFFF;}
</style>
<g id="XMLID_1_">
	<path id="XMLID_102_" d="M157.25,299.06c-8,0-9.68-4.63-9.68-9.54v-17.53h4.07v17.25c0,3.51,1.12,6.17,5.89,6.17
		c4.07,0,6.03-1.82,6.03-6.73v-16.69h4.07v16.41C167.49,295.42,163.84,299.06,157.25,299.06z"/>
	<path id="XMLID_103_" d="M185.72,298.64V287c0-2.24-0.56-3.65-2.67-3.65c-2.81,0-4.77,2.95-4.77,6.45v8.7h-3.93v-18.1h3.79
		c0,0.98-0.14,2.52-0.28,3.51l0,0c1.12-2.38,3.23-3.93,6.31-3.93c4.07,0,5.47,2.52,5.47,5.75v12.76L185.72,298.64z"/>
	<path id="XMLID_106_" d="M198.35,277.74c-1.4,0-2.52-1.12-2.52-2.38s1.12-2.38,2.52-2.38c1.4,0,2.52,1.12,2.52,2.38
		C200.87,276.76,199.75,277.74,198.35,277.74z M196.38,298.64v-18.1h3.93v18.1H196.38z"/>
	<path id="XMLID_107_" d="M215.32,298.64h-3.93l-6.73-18.1h4.35l3.37,9.54c0.42,1.26,0.84,2.52,1.12,3.79l0,0
		c0.28-1.12,0.7-2.38,1.12-3.65l3.51-9.82h4.21L215.32,298.64z"/>
	<path id="XMLID_110_" d="M240.43,289.81h-11.64c-0.14,4.21,1.68,6.03,5.33,6.03c1.82,0,3.79-0.42,5.33-1.12l0.42,3.09
		c-1.82,0.7-4.07,1.12-6.31,1.12c-5.61,0-8.7-2.95-8.7-9.26c0-5.47,2.95-9.54,8.28-9.54c5.19,0,7.43,3.51,7.43,7.86
		C240.57,288.54,240.57,289.1,240.43,289.81z M233,283.07c-2.24,0-3.79,1.54-4.07,4.07h7.72C236.78,284.62,235.24,283.07,233,283.07
		z"/>
	<path id="XMLID_111_" d="M255.3,283.91c-3.65-0.7-5.33,1.82-5.33,7.29v7.43h-3.93v-18.1h3.79c0,0.98-0.14,2.67-0.42,4.07h0.14
		c0.84-2.38,2.67-4.77,6.03-4.35L255.3,283.91z"/>
	<path id="XMLID_112_" d="M263.15,299.06c-1.4,0-2.67-0.14-3.79-0.42l0.14-3.37c1.12,0.28,2.52,0.56,3.93,0.56
		c2.1,0,3.65-0.98,3.65-2.38c0-3.65-8-1.4-8-7.72c0-3.09,2.52-5.61,7.43-5.61c1.12,0,2.24,0.14,3.37,0.28l-0.14,3.23
		c-1.12-0.28-2.38-0.56-3.51-0.56c-2.1,0-3.23,0.84-3.23,2.24c0,3.51,8,1.68,8,7.72C271.01,296.54,268.06,299.06,263.15,299.06z"/>
	<path id="XMLID_115_" d="M278.58,277.74c-1.4,0-2.52-1.12-2.52-2.38s1.12-2.38,2.52-2.38s2.52,1.12,2.52,2.38
		C281.11,276.76,279.99,277.74,278.58,277.74z M276.62,298.64v-18.1h3.93v18.1H276.62z"/>
	<path id="XMLID_116_" d="M293.87,298.92c-3.93,0-5.05-1.4-5.05-5.47v-9.68h-3.51v-2.95h3.51v-5.61l3.93-0.98v6.73h4.77v2.95h-4.77
		v8.56c0,2.67,0.56,3.37,2.38,3.37c0.84,0,1.68-0.14,2.38-0.28v3.09C296.4,298.78,295,298.92,293.87,298.92z"/>
	<path id="XMLID_121_" d="M312.39,298.64c0-1.12,0-2.38,0.14-3.37l0,0c-0.84,2.1-3.09,3.79-6.03,3.79c-3.09,0-5.05-1.82-5.05-4.63
		c0-4.21,4.21-6.59,10.66-6.59v-1.12c0-2.24-0.98-3.37-3.79-3.37c-1.68,0-3.93,0.56-5.47,1.4l-0.42-3.37
		c1.82-0.7,4.07-1.26,6.45-1.26c5.61,0,7.15,2.38,7.15,6.17v7.43c0,1.54,0,3.37,0.14,4.91L312.39,298.64L312.39,298.64z
		 M305.8,277.04c-1.26,0-2.24-0.98-2.24-2.24c0-1.26,0.98-2.24,2.24-2.24c1.26,0,2.24,0.98,2.24,2.24
		C307.9,276.06,306.92,277.04,305.8,277.04z M312.25,290.37c-5.75,0-6.87,1.68-6.87,3.23c0,1.4,0.98,2.24,2.52,2.24
		c2.67,0,4.49-2.52,4.49-5.19v-0.28H312.25z M312.95,277.04c-1.26,0-2.24-0.98-2.24-2.24c0-1.26,0.98-2.24,2.24-2.24
		s2.24,0.98,2.24,2.24C315.06,276.06,314.07,277.04,312.95,277.04z"/>
	<path id="XMLID_122_" d="M328.8,298.92c-3.93,0-5.05-1.4-5.05-5.47v-9.68h-3.51v-2.95h3.51v-5.61l3.93-0.98v6.73h4.77v2.95h-4.77
		v8.56c0,2.67,0.56,3.37,2.38,3.37c0.84,0,1.68-0.14,2.38-0.28v3.09C331.33,298.78,329.92,298.92,328.8,298.92z"/>
	<polygon id="XMLID_123_" points="369.2,298.64 369.2,286.72 357.14,286.72 357.14,298.64 353.07,298.64 353.07,271.99 
		357.14,271.99 357.14,283.07 369.2,283.07 369.2,271.99 373.27,271.99 373.27,298.64 	"/>
	<path id="XMLID_126_" d="M391.36,298.64c0-1.12,0-2.38,0.14-3.37l0,0c-0.84,2.1-3.09,3.79-6.03,3.79c-3.09,0-5.05-1.82-5.05-4.63
		c0-4.21,4.21-6.59,10.66-6.59v-1.12c0-2.24-0.98-3.37-3.79-3.37c-1.68,0-3.93,0.56-5.47,1.4l-0.42-3.37
		c1.82-0.7,4.07-1.26,6.45-1.26c5.61,0,7.15,2.38,7.15,6.17v7.43c0,1.54,0,3.37,0.14,4.91L391.36,298.64L391.36,298.64z
		 M391.08,290.37c-5.75,0-6.87,1.68-6.87,3.23c0,1.4,0.98,2.24,2.52,2.24c2.67,0,4.49-2.52,4.49-5.19v-0.28H391.08z"/>
	<path id="XMLID_127_" d="M424.61,298.64V287c0-2.24-0.56-3.65-2.67-3.65c-2.38,0-4.63,2.52-4.63,6.59v8.7h-3.79V287
		c0-2.1-0.42-3.65-2.67-3.65c-2.52,0-4.63,2.81-4.63,6.59v8.7h-3.93v-18.1h3.79c0,0.98-0.14,2.52-0.28,3.51h0.14
		c1.12-2.38,3.37-3.93,6.17-3.93c3.65,0,4.77,2.24,5.05,3.93c0.7-1.68,2.81-3.93,6.03-3.93c3.51,0,5.47,1.82,5.47,6.03v12.48
		L424.61,298.64L424.61,298.64z"/>
	<path id="XMLID_130_" d="M441.72,298.92c-2.52,0-4.49-0.28-6.45-0.7v-26.23h3.93v8.42c0,1.12-0.14,2.52-0.28,3.51h0.14
		c0.98-2.24,3.09-3.65,5.75-3.65c4.35,0,6.73,3.09,6.73,8.56C451.26,295,447.75,298.92,441.72,298.92z M443.69,283.35
		c-2.95,0-4.49,3.37-4.49,6.45v5.61c0.84,0.28,1.68,0.42,2.81,0.42c3.09,0,5.19-1.96,5.19-6.73
		C447.19,285.32,446.07,283.35,443.69,283.35z"/>
	<path id="XMLID_131_" d="M468.94,298.64c0-0.98,0.14-2.52,0.28-3.51l0,0c-1.12,2.38-3.23,3.93-6.31,3.93
		c-4.07,0-5.47-2.52-5.47-5.75v-12.76h3.93v11.64c0,2.24,0.56,3.65,2.67,3.65c2.81,0,4.77-2.95,4.77-6.45v-8.7h3.93v18.1h-3.79
		V298.64z"/>
	<path id="XMLID_132_" d="M489.84,283.91c-3.65-0.7-5.33,1.82-5.33,7.29v7.43h-3.93v-18.1h3.79c0,0.98-0.14,2.67-0.42,4.07h0.14
		c0.84-2.38,2.67-4.77,6.03-4.35L489.84,283.91z"/>
	<path id="XMLID_136_" d="M501.9,308.04c-4.77,0-7.72-1.82-7.72-5.33c0-2.1,1.4-3.79,2.95-4.63c-1.12-0.56-1.82-1.54-1.82-2.67
		c0-1.26,0.84-2.52,2.1-3.09c-1.82-0.98-2.67-2.81-2.67-5.05c0-3.79,2.95-7.01,8.14-7.01c1.12,0,1.96,0.14,2.95,0.42H512v3.09h-2.81
		c0.7,0.56,1.26,1.68,1.26,3.09c0,3.93-2.81,6.73-7.86,6.73c-0.7,0-1.54-0.14-2.1-0.14c-0.7,0.28-1.12,0.84-1.12,1.4
		c0,0.98,0.84,1.26,2.95,1.26h3.09c3.93,0,6.17,1.82,6.17,5.19C511.72,304.96,507.79,308.04,501.9,308.04z M504.57,298.92h-3.37
		c-0.28,0-0.7,0-0.98,0c-1.26,0.7-1.96,1.82-1.96,3.09c0,1.96,1.82,3.09,4.49,3.09c3.37,0,5.33-1.4,5.33-3.37
		C507.93,299.91,506.81,298.92,504.57,298.92z M502.74,283.07c-2.52,0-4.07,1.54-4.07,3.79c0,2.38,1.4,3.79,4.07,3.79
		c2.38,0,4.07-1.4,4.07-3.79C506.67,284.48,505.27,283.07,502.74,283.07z"/>
	<rect id="XMLID_137_" x="0.56" y="173.1" class="st0" width="125.26" height="125.26"/>
	<polygon id="XMLID_138_" class="st1" points="81.08,247.3 82.76,247.3 81.92,245.76 82.76,244.08 81.08,244.08 80.1,242.53 
		79.25,244.08 77.43,244.08 78.41,245.76 77.43,247.3 79.25,247.3 80.1,248.85 	"/>
	<polygon id="XMLID_139_" class="st1" points="108.99,247.3 110.82,247.3 109.97,245.76 110.82,244.08 108.99,244.08 108.15,242.53 
		107.17,244.08 105.49,244.08 106.33,245.76 105.49,247.3 107.17,247.3 108.15,248.85 	"/>
	<path id="XMLID_140_" class="st1" d="M89.21,248v0.28h-1.96v2.24h2.24v14.31h-5.05v-14.03h-8.42v14.03h-2.81v2.38h41.94v-2.38
		h-2.81v-14.03h-8.42v14.03h-5.05v-14.31h2.24v-2.24h-1.96c-0.14-2.52-1.4-4.63-3.93-5.19v-2.52h1.82v-1.68h-1.82v-2.1h-1.96v2.1
		h-1.82v1.68h1.82v2.52C90.9,243.66,89.21,245.62,89.21,248z"/>
	<path id="XMLID_141_" class="st1" d="M94.12,277.04c-3.09,0-5.61,2.52-5.61,5.61l-0.14,9.4H70.84c2.67-7.29,4.35-14.59,4.91-22.3
		h18.38h18.38c0.56,7.72,2.24,15.01,4.91,22.3H99.73l-0.14-9.4C99.73,279.57,97.21,277.04,94.12,277.04z"/>
	<path id="XMLID_142_" class="st1" d="M54.99,213.92h-5.05v-14.03H35.35v3.23c0,7.01-4.21,11.36-12.34,11.36
		c-8.42,0-12.34-3.93-12.34-11.22V182.5h5.05v19.64c0,5.05,1.82,8,7.29,8c5.47,0,7.29-2.95,7.29-8V182.5h4.91v13.05h14.73V182.5
		h5.05v13.05h14.73V182.5h5.05v31.42h-5.05v-14.03H54.99L54.99,213.92L54.99,213.92z"/>
	<path id="XMLID_145_" d="M4.49,337.08c-1.68,0-3.09-0.14-4.49-0.14v-15.85c1.26,0,3.23-0.14,5.19-0.14c4.91,0,8.14,2.24,8.14,7.86
		C13.19,334.27,9.68,337.08,4.49,337.08z M4.91,323.61c-0.7,0-1.4,0-1.82,0.14v10.8c0.42,0.14,1.12,0.14,1.68,0.14
		c2.95,0,5.19-1.68,5.19-5.47C9.96,325.58,8.56,323.61,4.91,323.61z"/>
	<polygon id="XMLID_146_" points="15.99,336.94 15.99,321.09 24.69,321.09 24.69,323.61 19.08,323.61 19.08,327.54 24.41,327.54 
		24.41,330.06 19.08,330.06 19.08,334.41 24.69,334.41 24.69,336.94 	"/>
	<path id="XMLID_149_" d="M35.49,336.94L31,330.35h-0.14v6.59h-3.09v-15.99c1.26-0.14,2.81-0.14,4.63-0.14
		c3.51,0,5.75,1.26,5.75,4.49c0,2.38-1.68,4.07-4.07,4.49c0.42,0.56,0.84,1.26,1.26,1.68l3.79,5.33L35.49,336.94L35.49,336.94z
		 M32.12,323.47c-0.42,0-0.84,0-1.26,0.14v4.63c0.28,0,0.7,0,1.12,0c1.82,0,2.95-0.98,2.95-2.38
		C35.07,324.17,34.09,323.47,32.12,323.47z"/>
	<polygon id="XMLID_150_" points="53.44,323.75 53.44,327.82 58.63,327.82 58.63,330.35 53.44,330.35 53.44,336.94 50.36,336.94 
		50.36,321.09 58.92,321.09 58.92,323.75 	"/>
	<path id="XMLID_153_" d="M67.89,337.22c-4.77,0-7.15-3.09-7.15-8c0-5.19,3.51-8.42,7.72-8.42c4.21,0,7.15,2.52,7.15,8
		C75.75,334.13,72.24,337.22,67.89,337.22z M68.17,323.61c-2.24,0-4.21,1.68-4.21,5.33c0,3.37,1.26,5.61,4.21,5.61
		c2.1,0,4.21-1.54,4.21-5.47C72.38,325.58,70.98,323.61,68.17,323.61z"/>
	<path id="XMLID_156_" d="M85.99,336.94l-4.35-6.59H81.5v6.59h-3.09v-15.85c1.26-0.14,2.67-0.14,4.49-0.14
		c3.51,0,5.75,1.26,5.75,4.49c0,2.38-1.68,4.07-4.07,4.35c0.42,0.56,0.84,1.26,1.26,1.68l3.79,5.33L85.99,336.94L85.99,336.94z
		 M82.76,323.61c-0.42,0-0.84,0-1.26,0.14v4.63c0.28,0,0.7,0,1.12,0c1.82,0,2.95-0.98,2.95-2.38
		C85.57,324.31,84.59,323.61,82.76,323.61z"/>
	<path id="XMLID_157_" d="M94.97,337.22c-1.12,0-2.24-0.14-3.23-0.42l0.14-2.81c0.84,0.28,2.1,0.56,3.37,0.56
		c1.54,0,2.81-0.7,2.81-2.1c0-3.09-6.59-1.68-6.59-6.87c0-2.81,2.24-4.77,6.03-4.77c0.84,0,1.96,0.14,2.81,0.28l-0.14,2.67
		c-0.84-0.28-1.82-0.42-2.81-0.42c-1.82,0-2.67,0.84-2.67,1.96c0,2.81,6.73,1.82,6.73,6.73C101.28,335.11,98.89,337.22,94.97,337.22
		z"/>
	<path id="XMLID_158_" d="M110.82,337.22c-5.61,0-7.29-3.65-7.29-7.57c0-5.05,2.67-8.56,8-8.56c1.12,0,2.38,0.14,3.37,0.42
		l-0.28,2.81c-0.98-0.28-2.1-0.42-3.23-0.42c-2.95,0-4.35,2.24-4.35,5.33c0,3.51,1.4,5.33,4.63,5.33c0.98,0,2.24-0.28,3.09-0.7
		l0.42,2.67C113.76,336.94,112.36,337.22,110.82,337.22z"/>
	<polygon id="XMLID_159_" points="127.79,336.94 127.79,330.06 121.06,330.06 121.06,336.94 118.11,336.94 118.11,321.09 
		121.06,321.09 121.06,327.54 127.79,327.54 127.79,321.09 130.88,321.09 130.88,336.94 	"/>
	<path id="XMLID_160_" d="M141.12,337.22c-5.05,0-6.17-2.67-6.17-5.75v-10.38h3.09v10.24c0,1.96,0.7,3.37,3.23,3.37
		c2.38,0,3.37-0.98,3.37-3.65v-9.82h3.09v9.68C147.71,335.25,145.18,337.22,141.12,337.22z"/>
	<path id="XMLID_161_" d="M160.75,336.94l-4.63-8c-0.7-1.26-1.26-2.38-1.68-3.37c0.14,1.4,0.14,3.79,0.14,5.75v5.61h-2.95v-15.85
		h3.93l4.35,7.57c0.7,1.26,1.4,2.52,1.96,3.79c-0.14-1.54-0.14-4.35-0.14-6.31v-4.91h2.95v15.85h-3.93V336.94z"/>
	<path id="XMLID_162_" d="M180.53,324.45c-1.26-0.56-2.67-0.84-4.21-0.84c-3.09,0-5.33,1.96-5.33,5.47c0,3.37,1.82,5.33,5.05,5.33
		c0.7,0,1.4-0.14,1.96-0.28v-5.47h3.09v7.57c-1.54,0.7-3.51,0.98-5.47,0.98c-5.05,0-8-2.95-8-7.86c0-4.91,3.37-8.56,8.84-8.56
		c1.54,0,3.09,0.28,4.49,0.7L180.53,324.45z"/>
	<rect id="XMLID_163_" x="198.35" y="320.53" width="2.1" height="18.38"/>
	<path id="XMLID_166_" d="M222.05,337.08c-1.68,0-3.09-0.14-4.35-0.14v-15.85c1.26,0,3.23-0.14,5.19-0.14c4.91,0,8,2.24,8,7.72
		C230.89,334.27,227.24,337.08,222.05,337.08z M222.61,323.61c-0.7,0-1.4,0-1.82,0.14v10.66c0.42,0.14,1.12,0.14,1.68,0.14
		c2.95,0,5.19-1.68,5.19-5.47C227.52,325.58,226.26,323.61,222.61,323.61z"/>
	<polygon id="XMLID_167_" points="233.56,336.94 233.56,321.09 242.25,321.09 242.25,323.75 236.64,323.75 236.64,327.54 
		241.97,327.54 241.97,330.06 236.64,330.06 236.64,334.41 242.25,334.41 242.25,336.94 	"/>
	<path id="XMLID_170_" d="M253.05,336.94l-4.35-6.59h-0.14v6.59h-3.09v-15.85c1.26-0.14,2.67-0.14,4.49-0.14
		c3.51,0,5.75,1.26,5.75,4.49c0,2.38-1.68,4.07-4.07,4.35c0.42,0.56,0.84,1.26,1.26,1.68l3.79,5.33L253.05,336.94L253.05,336.94z
		 M249.69,323.61c-0.42,0-0.84,0-1.26,0.14v4.63c0.28,0,0.7,0,1.12,0c1.82,0,2.95-0.98,2.95-2.38
		C252.49,324.31,251.65,323.61,249.69,323.61z"/>
	<polygon id="XMLID_171_" points="267.78,336.94 267.78,321.09 270.87,321.09 270.87,334.27 276.06,334.27 276.06,336.94 	"/>
	<polygon id="XMLID_172_" points="278.3,336.94 278.3,321.09 286.86,321.09 286.86,323.75 281.25,323.75 281.25,327.54 
		286.58,327.54 286.58,330.06 281.25,330.06 281.25,334.41 286.86,334.41 286.86,336.94 	"/>
	<polygon id="XMLID_173_" points="299.91,336.94 299.91,330.06 293.31,330.06 293.31,336.94 290.23,336.94 290.23,321.09 
		293.31,321.09 293.31,327.54 299.91,327.54 299.91,321.09 302.99,321.09 302.99,336.94 	"/>
	<path id="XMLID_176_" d="M314.77,336.94l-4.35-6.59h-0.14v6.59h-3.09v-15.85c1.26-0.14,2.67-0.14,4.49-0.14
		c3.51,0,5.75,1.26,5.75,4.49c0,2.38-1.68,4.07-4.07,4.35c0.42,0.56,0.84,1.26,1.26,1.68l3.79,5.33L314.77,336.94L314.77,336.94z
		 M311.41,323.61c-0.42,0-0.84,0-1.26,0.14v4.63c0.28,0,0.7,0,1.12,0c1.82,0,2.95-0.98,2.95-2.38
		C314.21,324.31,313.23,323.61,311.41,323.61z"/>
	<polygon id="XMLID_177_" points="320.95,336.94 320.95,321.09 329.5,321.09 329.5,323.75 324.03,323.75 324.03,327.54 
		329.22,327.54 329.22,330.06 324.03,330.06 324.03,334.41 329.5,334.41 329.5,336.94 	"/>
	<rect id="XMLID_178_" x="346.76" y="320.53" width="2.1" height="18.38"/>
	<path id="XMLID_181_" d="M370.04,337.08c-1.68,0-3.09-0.14-4.35-0.14v-15.85c1.26,0,3.23-0.14,5.19-0.14c4.91,0,8,2.24,8,7.72
		C378.74,334.27,375.09,337.08,370.04,337.08z M370.46,323.61c-0.7,0-1.4,0-1.82,0.14v10.66c0.42,0.14,1.12,0.14,1.68,0.14
		c2.95,0,5.19-1.68,5.19-5.47C375.37,325.58,374.11,323.61,370.46,323.61z"/>
	<polygon id="XMLID_182_" points="381.4,336.94 381.4,321.09 390.1,321.09 390.1,323.75 384.49,323.75 384.49,327.54 389.82,327.54 
		389.82,330.06 384.49,330.06 384.49,334.41 390.1,334.41 390.1,336.94 	"/>
	<path id="XMLID_185_" d="M400.9,336.94l-4.35-6.59h-0.28v6.59h-3.09v-15.85c1.26-0.14,2.67-0.14,4.49-0.14
		c3.51,0,5.75,1.26,5.75,4.49c0,2.38-1.68,4.07-4.07,4.35c0.42,0.56,0.84,1.26,1.26,1.68l3.79,5.33L400.9,336.94L400.9,336.94z
		 M397.54,323.61c-0.42,0-0.84,0-1.26,0.14v4.63c0.28,0,0.7,0,1.12,0c1.82,0,2.95-0.98,2.95-2.38
		C400.34,324.31,399.5,323.61,397.54,323.61z"/>
	<path id="XMLID_189_" d="M420.26,337.08c-0.98,0-2.67,0-4.63,0v-15.85c1.4-0.14,3.37-0.14,5.33-0.14c3.37,0,5.33,1.4,5.33,3.93
		c0,1.54-0.98,2.95-2.52,3.51l0,0c1.82,0.42,2.81,1.96,2.81,3.51C426.71,334.41,425.17,337.08,420.26,337.08z M420.54,323.47
		c-0.7,0-1.26,0-1.82,0v4.07c0.42,0,0.7,0,1.26,0c2.1,0,3.23-0.84,3.23-2.24C423.21,324.31,422.51,323.47,420.54,323.47z
		 M420.12,330.06c-0.28,0-0.98,0-1.4,0v4.49c0.42,0,0.98,0.14,1.68,0.14c1.96,0,2.95-0.98,2.95-2.38
		C423.49,330.63,422.08,330.06,420.12,330.06z"/>
	<rect id="XMLID_190_" x="429.8" y="321.09" width="3.09" height="15.85"/>
	<polygon id="XMLID_191_" points="436.95,336.94 436.95,321.09 440.04,321.09 440.04,334.27 445.23,334.27 445.23,336.94 	"/>
	<path id="XMLID_194_" d="M451.82,337.08c-1.68,0-3.09-0.14-4.35-0.14v-15.85c1.26,0,3.23-0.14,5.05-0.14c4.91,0,8,2.24,8,7.72
		C460.52,334.27,457.01,337.08,451.82,337.08z M452.38,323.61c-0.7,0-1.4,0-1.82,0.14v10.66c0.42,0.14,1.12,0.14,1.68,0.14
		c2.95,0,5.19-1.68,5.19-5.47C457.29,325.58,455.89,323.61,452.38,323.61z"/>
	<path id="XMLID_195_" d="M469.5,337.22c-5.05,0-6.17-2.67-6.17-5.75v-10.38h3.09v10.24c0,1.96,0.7,3.37,3.23,3.37
		c2.38,0,3.37-0.98,3.37-3.65v-9.82h3.09v9.68C476.09,335.25,473.71,337.22,469.5,337.22z"/>
	<path id="XMLID_196_" d="M489.28,336.94l-4.63-8c-0.7-1.26-1.26-2.38-1.68-3.37c0.14,1.4,0.14,3.79,0.14,5.75v5.61h-2.95v-15.85
		h3.93l4.35,7.57c0.7,1.26,1.4,2.52,1.96,3.79c-0.14-1.54-0.14-4.35-0.14-6.31v-4.91h2.95v15.85h-3.93V336.94z"/>
	<path id="XMLID_197_" d="M508.91,324.45c-1.26-0.56-2.67-0.84-4.21-0.84c-3.09,0-5.33,1.96-5.33,5.47c0,3.37,1.82,5.33,5.05,5.33
		c0.7,0,1.4-0.14,1.96-0.28v-5.47h3.09v7.57c-1.54,0.7-3.51,0.98-5.47,0.98c-5.05,0-8-2.95-8-7.86c0-4.91,3.37-8.56,8.84-8.56
		c1.54,0,3.09,0.28,4.49,0.7L508.91,324.45z"/>
</g>
</svg>
