<?xml version="1.0" encoding="utf-8"?>
<!-- Generator: Adobe Illustrator 26.5.0, SVG Export Plug-In . SVG Version: 6.00 Build 0)  -->
<svg version="1.1" id="Layer_1" xmlns="http://www.w3.org/2000/svg" xmlns:xlink="http://www.w3.org/1999/xlink" x="0px" y="0px"
	 viewBox="0 0 512 512" style="enable-background:new 0 0 512 512;" xml:space="preserve">
<style type="text/css">
	.st0{fill:#004890;}
	.st1{fill:#00478E;}
	.st2{fill:#C9DA43;}
	.st3{fill:#FFFFFF;}
	.st4{fill:#00488E;}
</style>
<g id="XMLID_138_">
	<path id="XMLID_140_" class="st0" d="M21.46,246.32h-8.7v9.12h7.72c0.28,0,0.56,0.14,0.56,0.56v1.54c0,0.42-0.14,0.56-0.56,0.56
		h-7.72v11.92c0,0.28-0.14,0.56-0.56,0.56H9.96c-0.28,0-0.56-0.14-0.56-0.56v-25.81c0-0.42,0.14-0.56,0.56-0.56h12.06
		c0.28,0,0.56,0.14,0.56,0.28v0.28v0.14l-0.56,1.68C21.88,246.18,21.74,246.32,21.46,246.32"/>
	<path id="XMLID_144_" class="st0" d="M28.2,252.49c0.14,0.28,0.28,0.84,0.56,1.68l0.42-0.56c0.98-1.12,1.68-1.82,2.38-2.24
		c0.56-0.28,1.26-0.56,2.1-0.56c0.56,0,1.12,0.14,1.68,0.42c0.14,0.14,0.28,0.14,0.28,0.28c0,0,0,0.14,0,0.28l-0.98,2.1l-0.28,0.14
		h-0.14c-0.42-0.14-0.84-0.28-1.26-0.28c-0.98,0-2.24,0.98-3.93,2.95v13.05c0,0.28-0.14,0.42-0.42,0.42h-2.1
		c-0.28,0-0.42-0.14-0.42-0.42v-11.78c0-1.4,0-2.24-0.14-2.67c-0.14-0.84-0.42-1.68-0.84-2.52c-0.14-0.14-0.14-0.28-0.14-0.42
		c0-0.14,0.14-0.28,0.28-0.28l1.68-0.98l0.28-0.14C27.49,251.09,27.91,251.51,28.2,252.49"/>
	<path id="XMLID_280_" class="st0" d="M52.04,261.61H40.82c0.14,4.49,1.96,6.59,5.19,6.59c1.4,0,2.95-0.42,4.49-1.4
		c0.14-0.14,0.28-0.14,0.28-0.14c0.14,0,0.28,0,0.28,0.28l0.7,1.54c0,0.28,0.14,0.28,0.14,0.28c0,0.56-0.98,1.12-2.67,1.54
		c-1.54,0.42-2.67,0.56-3.51,0.56c-2.52,0-4.49-0.84-5.89-2.67c-1.4-1.82-2.24-4.21-2.24-7.29s0.7-5.47,2.1-7.29
		s3.23-2.67,5.61-2.67c2.24,0,3.93,0.84,5.33,2.24c1.26,1.54,1.96,3.65,1.96,6.45v1.12C52.46,261.33,52.32,261.61,52.04,261.61z
		 M45.03,253.33c-2.67,0-4.07,1.96-4.35,5.89h8.42C49.1,255.3,47.83,253.33,45.03,253.33"/>
	<path id="XMLID_283_" class="st0" d="M57.65,253.9h-3.23c-0.14,0-0.28-0.14-0.28-0.42v-1.54c0-0.28,0.14-0.42,0.28-0.42h5.89
		c0.14,0,0.28,0.14,0.28,0.42v18.1c0,0.28-0.14,0.42-0.42,0.42h-2.1c-0.28,0-0.42-0.14-0.42-0.28L57.65,253.9L57.65,253.9z
		 M58.77,242.11c0.7,0,1.26,0.28,1.68,0.7c0.42,0.42,0.7,0.98,0.7,1.68s-0.28,1.26-0.7,1.68c-0.42,0.42-0.98,0.7-1.68,0.7
		s-1.26-0.28-1.68-0.7c-0.42-0.42-0.7-0.98-0.7-1.68s0.28-1.26,0.7-1.68C57.65,242.39,58.07,242.11,58.77,242.11"/>
	<path id="XMLID_286_" class="st0" d="M80.24,261.61H69.01c0.28,4.49,1.96,6.59,5.19,6.59c1.4,0,2.95-0.42,4.49-1.4
		c0.14-0.14,0.28-0.14,0.42-0.14c0.14,0,0.28,0,0.28,0.28l0.7,1.54c0,0.28,0.14,0.28,0.14,0.28c0,0.56-0.98,1.12-2.81,1.54
		c-1.54,0.42-2.67,0.56-3.51,0.56c-2.52,0-4.49-0.84-5.89-2.67c-1.54-1.82-2.24-4.21-2.24-7.29s0.7-5.47,2.1-7.29
		s3.23-2.67,5.61-2.67c2.24,0,4.07,0.84,5.33,2.24c1.26,1.54,1.96,3.65,1.96,6.45v1.12C80.66,261.33,80.52,261.61,80.24,261.61z
		 M73.36,253.33c-2.67,0-4.07,1.96-4.35,5.89h8.42C77.43,255.3,76.03,253.33,73.36,253.33"/>
	<path id="XMLID_288_" class="st0" d="M95.39,244.08c0-0.42,0.14-0.56,0.56-0.56h2.24c0.28,0,0.56,0.14,0.56,0.56v19.08
		c0,1.82,0.42,3.23,1.12,4.07s1.96,1.26,3.79,1.26c3.51,0,5.33-1.68,5.33-5.19v-19.08c0-0.42,0.14-0.56,0.56-0.56h1.96
		c0.28,0,0.56,0.14,0.56,0.56v19.08c0,2.67-0.84,4.77-2.52,6.03c-1.4,1.12-3.51,1.68-5.89,1.68c-5.47,0-8.14-2.52-8.14-7.72v-19.22"
		/>
	<path id="XMLID_289_" class="st0" d="M119.23,251.09c0.56,0,0.84,0.84,1.26,2.67c2.1-1.68,4.21-2.67,6.31-2.67
		c1.68,0,2.95,0.42,3.65,1.26c0.7,0.84,0.98,2.38,0.98,4.49v13.05c0,0.28-0.14,0.42-0.42,0.42h-2.1c-0.28,0-0.42-0.14-0.42-0.42
		V256.7c0-2.24-0.84-3.23-2.67-3.23c-1.68,0-3.37,0.84-5.05,2.52v13.89c0,0.28-0.14,0.42-0.42,0.42h-2.1
		c-0.28,0-0.42-0.14-0.42-0.42v-13.61c0-1.54-0.28-2.81-0.7-3.79l-0.14-0.14c0-0.14,0-0.28,0.14-0.28l1.82-0.98H119.23"/>
	<path id="XMLID_295_" class="st0" d="M138.45,253.9h-3.23c-0.14,0-0.28-0.14-0.28-0.42v-1.54c0-0.28,0.14-0.42,0.28-0.42h5.89
		c0.28,0,0.28,0.14,0.28,0.42v18.1c0,0.28-0.14,0.42-0.42,0.42h-2.1c-0.28,0-0.42-0.14-0.42-0.28L138.45,253.9L138.45,253.9z
		 M139.71,242.11c0.7,0,1.26,0.28,1.68,0.7c0.42,0.42,0.7,0.98,0.7,1.68s-0.28,1.26-0.7,1.68c-0.42,0.42-0.98,0.7-1.68,0.7
		s-1.26-0.28-1.68-0.7c-0.42-0.42-0.7-0.98-0.7-1.68s0.28-1.26,0.7-1.68C138.45,242.39,139.01,242.11,139.71,242.11"/>
	<path id="XMLID_296_" class="st0" d="M152.62,266.1c0,0.14,0.14,0.42,0.14,0.7c0.14-0.42,0.42-1.26,0.7-2.52l4.63-12.91
		c0-0.28,0.14-0.28,0.28-0.28h0.28l2.1,0.56c0.28,0,0.42,0.14,0.42,0.28c0,0.14,0,0.14,0,0.14v0.14l-7.29,18.24
		c0,0.14-0.14,0.28-0.42,0.28h-1.68c-0.14,0-0.28-0.14-0.28-0.42l-6.73-18.24l0,0l0,0c0-0.14,0.14-0.28,0.42-0.28l2.24-0.42h0.14
		c0.14,0,0.28,0.14,0.28,0.28l4.21,12.91c0.14,0.28,0.14,0.56,0.28,0.84C152.48,265.26,152.48,265.54,152.62,266.1"/>
	<path id="XMLID_303_" class="st0" d="M177.87,261.61h-11.22c0.28,4.49,1.96,6.59,5.19,6.59c1.4,0,2.95-0.42,4.49-1.4
		c0.14-0.14,0.28-0.14,0.42-0.14c0.14,0,0.28,0,0.28,0.28l0.7,1.54c0,0.28,0.14,0.28,0.14,0.28c0,0.56-0.98,1.12-2.81,1.54
		c-1.54,0.42-2.67,0.56-3.51,0.56c-2.52,0-4.49-0.84-5.89-2.67c-1.54-1.82-2.24-4.21-2.24-7.29s0.7-5.47,2.1-7.29
		s3.23-2.67,5.61-2.67c2.24,0,4.07,0.84,5.33,2.24c1.26,1.54,1.96,3.65,1.96,6.45v1.12C178.29,261.33,178.15,261.61,177.87,261.61z
		 M170.85,253.33c-2.67,0-4.07,1.96-4.35,5.89h8.42C174.92,255.3,173.66,253.33,170.85,253.33"/>
	<path id="XMLID_304_" class="st0" d="M185.3,252.49c0.14,0.28,0.28,0.84,0.56,1.68l0.42-0.56c0.98-1.12,1.68-1.82,2.38-2.24
		c0.56-0.28,1.26-0.56,2.1-0.56c0.56,0,1.12,0.14,1.68,0.42c0.14,0.14,0.28,0.14,0.28,0.28c0,0,0,0.14-0.14,0.28l-0.98,2.1
		l-0.28,0.14h-0.14c-0.42-0.14-0.84-0.28-1.26-0.28c-0.98,0-2.24,0.98-3.93,2.95v13.05c0,0.28-0.14,0.42-0.42,0.42h-2.1
		c-0.28,0-0.42-0.14-0.42-0.42v-11.78c0-1.4,0-2.24,0-2.67c-0.14-0.84-0.42-1.68-0.84-2.52c-0.14-0.14-0.14-0.28-0.14-0.42
		c0-0.14,0.14-0.28,0.28-0.28l1.68-0.98l0.28-0.14C184.6,251.09,184.88,251.51,185.3,252.49"/>
	<path id="XMLID_305_" class="st0" d="M194,268.91c0,0,0.28-0.56,0.7-1.68c0-0.14,0.14-0.14,0.28-0.14c0,0,0.14,0,0.28,0.14
		c1.82,0.84,3.37,1.26,4.77,1.26c0.98,0,1.68-0.28,2.24-0.84c0.56-0.56,0.84-1.26,0.84-2.1c0-1.12-0.84-2.1-2.52-2.95
		c-2.1-0.98-3.65-1.82-4.35-2.38c-1.26-0.98-1.82-2.24-1.82-3.65c0-1.54,0.56-2.95,1.68-3.93c1.12-0.98,2.52-1.54,4.35-1.54
		c1.54,0,3.09,0.42,4.63,1.12c0.28,0.14,0.42,0.28,0.42,0.42v0.28l-0.7,1.4c0,0.14-0.14,0.28-0.28,0.28l-0.28-0.14
		c-1.54-0.7-2.67-0.98-3.65-0.98c-1.96,0-2.95,0.84-2.95,2.67c0,1.26,0.7,2.1,2.1,2.81l2.67,1.26c1.4,0.7,2.52,1.4,3.09,2.1
		c0.56,0.7,0.84,1.68,0.84,2.81c0,1.68-0.56,2.95-1.68,4.07c-1.12,0.98-2.67,1.54-4.49,1.54c-2.1,0-4.07-0.42-5.75-1.54
		C194,269.33,194,269.19,194,268.91L194,268.91"/>
	<path id="XMLID_308_" class="st0" d="M211.67,253.9h-3.23c-0.14,0-0.28-0.14-0.28-0.42v-1.54c0-0.28,0.14-0.42,0.28-0.42h5.89
		c0.28,0,0.28,0.14,0.28,0.42v18.1c0,0.28-0.14,0.42-0.42,0.42h-2.1c-0.28,0-0.42-0.14-0.42-0.28L211.67,253.9L211.67,253.9z
		 M212.94,242.11c0.7,0,1.26,0.28,1.68,0.7c0.42,0.42,0.7,0.98,0.7,1.68s-0.28,1.26-0.7,1.68c-0.42,0.42-0.98,0.7-1.68,0.7
		s-1.26-0.28-1.68-0.7c-0.42-0.42-0.7-0.98-0.7-1.68s0.28-1.26,0.7-1.68C211.67,242.39,212.23,242.11,212.94,242.11"/>
	<path id="XMLID_309_" class="st0" d="M218.83,251.51h2.81v-5.33c0-0.28,0.14-0.42,0.42-0.42l2.1-0.56l0,0l0,0
		c0.14,0,0.28,0.14,0.28,0.42v6.03h5.89c0.28,0,0.28,0.14,0.28,0.28v0.28l-0.42,1.54c-0.14,0.28-0.28,0.42-0.56,0.42h-5.19v11.08
		c0,1.26,0.14,2.1,0.42,2.52c0.28,0.42,0.98,0.7,1.96,0.7c0.84,0,1.96-0.28,3.51-0.98h0.28c0.14,0,0.14,0,0.28,0.28l0.56,1.68v0.14
		c0,0.14-0.14,0.28-0.28,0.42c-1.54,0.84-3.09,1.12-4.77,1.12c-1.68,0-2.95-0.42-3.65-1.26s-1.12-2.38-1.12-4.49v-11.08h-2.81
		c-0.28,0-0.56-0.14-0.56-0.42v-1.54C218.27,251.65,218.41,251.51,218.83,251.51"/>
	<path id="XMLID_314_" class="st0" d="M233.56,265.4c0-4.49,3.51-6.73,10.38-6.87v-1.26c0-1.26-0.28-2.1-0.84-2.67
		c-0.56-0.56-1.54-0.84-2.81-0.84c-1.26,0-2.95,0.42-4.63,1.12c-0.14,0-0.28,0-0.28,0c-0.14,0-0.28,0-0.28-0.14l-0.56-1.54v-0.28
		c0-0.28,0.42-0.56,1.4-0.98c1.68-0.7,3.23-0.98,4.91-0.98c4.07,0,6.17,1.82,6.17,5.61V264c0,2.24,0.28,3.93,0.98,5.19l0.14,0.14
		l-0.14,0.28l-1.68,1.12c-0.14,0-0.28,0.14-0.28,0.14c-0.42,0-0.98-0.84-1.4-2.52c-1.68,1.68-3.65,2.52-5.61,2.52
		c-1.54,0-2.81-0.42-3.79-1.4C234.12,268.34,233.56,267.08,233.56,265.4z M237.06,247.72c-0.56,0-1.12-0.28-1.54-0.7
		c-0.42-0.42-0.56-0.98-0.56-1.54c0-0.56,0.14-1.12,0.56-1.54c0.42-0.42,0.98-0.7,1.54-0.7c0.56,0,0.98,0.28,1.4,0.7
		c0.42,0.42,0.7,0.98,0.7,1.54c0,0.56-0.28,1.12-0.7,1.54C238.19,247.44,237.62,247.72,237.06,247.72z M243.94,266.1v-5.05
		c-4.91,0-7.29,1.4-7.29,4.21c0,0.98,0.28,1.68,0.84,2.24c0.56,0.56,1.26,0.84,2.1,0.84C240.71,268.34,242.25,267.64,243.94,266.1z
		 M244.78,247.72c-0.56,0-1.12-0.28-1.54-0.7c-0.42-0.42-0.56-0.98-0.56-1.54c0-0.56,0.28-1.12,0.56-1.54
		c0.42-0.42,0.84-0.7,1.54-0.7c0.56,0,1.12,0.28,1.54,0.7c0.42,0.42,0.56,0.98,0.56,1.54s-0.14,1.12-0.56,1.54
		C245.9,247.58,245.34,247.72,244.78,247.72"/>
	<path id="XMLID_315_" class="st0" d="M251.09,251.51h2.81v-5.33c0-0.28,0.14-0.42,0.42-0.42l2.24-0.56l0,0l0,0
		c0.14,0,0.28,0.14,0.28,0.42v6.03h5.89c0.28,0,0.28,0.14,0.28,0.28v0.28l-0.42,1.54c-0.14,0.28-0.28,0.42-0.56,0.42h-5.19v11.08
		c0,1.26,0.14,2.1,0.42,2.52s0.98,0.7,1.96,0.7c0.84,0,1.96-0.28,3.51-0.98h0.28c0.14,0,0.14,0,0.28,0.28l0.56,1.68v0.14
		c0,0.14-0.14,0.28-0.28,0.42c-1.54,0.84-3.09,1.12-4.77,1.12s-2.95-0.42-3.65-1.26s-1.12-2.38-1.12-4.49v-11.08h-2.81
		c-0.28,0-0.42-0.14-0.42-0.42v-1.54C250.53,251.65,250.67,251.51,251.09,251.51"/>
	<path id="XMLID_319_" class="st0" d="M431.48,249.97c0,3.09-1.26,5.19-3.79,6.45c1.26,0.28,2.1,0.84,2.81,1.4
		c1.4,1.26,2.1,3.09,2.1,5.33c0,1.82-0.56,3.51-1.54,4.77c-0.98,1.26-2.38,2.1-4.07,2.38c-0.84,0.14-2.24,0.28-4.07,0.28h-5.61
		c-0.28,0-0.56-0.14-0.56-0.56v-25.81c0-0.42,0.14-0.56,0.56-0.56h6.45c2.95,0,4.91,0.56,6.03,1.68
		C430.92,246.32,431.48,247.86,431.48,249.97z M423.63,246.18h-3.65v9.26h2.81c3.51,0,5.19-1.68,5.19-5.05
		c0-1.54-0.28-2.67-0.98-3.23C426.29,246.46,425.17,246.18,423.63,246.18z M423.63,257.96h-3.65v9.82h3.93
		c3.51,0,5.33-1.68,5.33-4.91C429.1,259.65,427.27,257.96,423.63,257.96"/>
	<path id="XMLID_322_" class="st0" d="M451.26,261.61h-11.22c0.28,4.35,1.96,6.59,5.19,6.59c1.4,0,2.95-0.42,4.49-1.4
		c0.14-0.14,0.28-0.14,0.42-0.14s0.28,0,0.28,0.14l0.7,1.54c0,0.28,0.14,0.28,0.14,0.28c0,0.56-0.98,1.12-2.81,1.54
		c-1.54,0.42-2.67,0.56-3.51,0.56c-2.52,0-4.49-0.84-5.89-2.67c-1.54-1.82-2.24-4.21-2.24-7.29s0.7-5.47,2.1-7.29
		c1.4-1.82,3.23-2.67,5.61-2.67c2.24,0,4.07,0.7,5.33,2.24c1.26,1.54,1.96,3.65,1.96,6.45v1.12
		C451.68,261.47,451.54,261.61,451.26,261.61z M444.25,253.33c-2.67,0-4.07,1.96-4.35,5.89h8.42
		C448.46,255.3,447.05,253.33,444.25,253.33"/>
	<path id="XMLID_323_" class="st0" d="M458.7,252.63c0.14,0.28,0.28,0.84,0.42,1.68l0.42-0.56c0.98-1.12,1.68-1.82,2.38-2.24
		c0.56-0.28,1.26-0.56,2.1-0.56c0.56,0,1.12,0.14,1.68,0.28c0.14,0.14,0.28,0.14,0.28,0.28c0,0,0,0.14-0.14,0.28l-0.98,2.1
		l-0.14,0.14h-0.14c-0.42-0.14-0.84-0.28-1.26-0.28c-0.98,0-2.24,0.98-3.93,2.95v13.05c0,0.28-0.14,0.42-0.42,0.42h-2.1
		c-0.28,0-0.42-0.14-0.42-0.42v-11.78c0-1.4,0-2.24-0.14-2.67c-0.14-0.84-0.42-1.68-0.84-2.52c-0.14-0.14-0.14-0.28-0.14-0.42
		c0-0.14,0.14-0.28,0.28-0.28l1.68-0.98h0.28C457.99,251.09,458.28,251.51,458.7,252.63"/>
	<path id="XMLID_324_" class="st1" d="M469.22,265.12v-22.16c0-0.28,0.14-0.42,0.42-0.56l1.96-0.42l0,0h0.14
		c0.14,0,0.28,0.14,0.28,0.42v23.43c0,1.68,0.56,2.52,1.68,2.52c0.56,0,1.12-0.14,1.68-0.42c0.14,0,0.28,0,0.28,0
		c0.14,0,0.28,0,0.28,0.28l0.42,1.4c0,0.14,0,0.28,0,0.28c0,0.14-0.14,0.28-0.28,0.28c-0.98,0.42-2.1,0.7-3.09,0.7
		c-1.54,0-2.67-0.42-3.23-1.26C469.5,268.76,469.22,267.36,469.22,265.12"/>
	<path id="XMLID_327_" class="st1" d="M480.02,254.04h-3.23c-0.14,0-0.28-0.14-0.28-0.42v-1.54c0-0.28,0.14-0.42,0.28-0.42h5.89
		c0.14,0,0.28,0.14,0.28,0.42v17.96c0,0.28-0.14,0.42-0.42,0.42h-2.1c-0.28,0-0.42-0.14-0.42-0.28V254.04z M481.28,242.25
		c0.7,0,1.26,0.28,1.68,0.7c0.42,0.42,0.7,0.98,0.7,1.68s-0.28,1.26-0.7,1.68s-0.98,0.7-1.68,0.7c-0.7,0-1.26-0.28-1.68-0.7
		c-0.42-0.42-0.7-0.98-0.7-1.68s0.28-1.26,0.7-1.68C480.02,242.53,480.58,242.25,481.28,242.25"/>
	<path id="XMLID_328_" class="st1" d="M491.24,251.09c0.56,0,0.84,0.84,1.26,2.67c2.24-1.68,4.35-2.67,6.31-2.67
		c1.68,0,2.95,0.42,3.65,1.26c0.7,0.84,0.98,2.38,0.98,4.49v13.05c0,0.28-0.14,0.42-0.42,0.42h-2.1c-0.28,0-0.42-0.14-0.42-0.42
		V256.7c0-2.24-0.84-3.23-2.67-3.23c-1.68,0-3.37,0.84-5.05,2.52v13.89c0,0.28-0.14,0.42-0.42,0.42h-2.1
		c-0.28,0-0.42-0.14-0.42-0.42v-13.61c0-1.54-0.28-2.81-0.7-3.79l-0.14-0.14c0-0.14,0-0.14,0.14-0.28l1.82-0.98H491.24"/>
	<rect id="XMLID_329_" y="278.44" class="st2" width="512" height="7.57"/>
	<path id="XMLID_330_" class="st3" d="M407.08,256c0,37.45-30.3,67.75-67.75,67.75c-37.45,0-67.75-30.3-67.75-67.75
		s30.3-67.75,67.75-67.75C376.64,188.25,407.08,218.55,407.08,256"/>
	<path id="XMLID_559_" class="st4" d="M387.16,208.03c-13.19-13.19-29.18-19.78-47.97-19.78c-18.66,0-34.65,6.59-47.97,19.78
		c-13.19,13.19-19.78,29.18-19.78,47.97c0,18.8,6.59,34.65,19.78,47.83c12.76,12.76,27.91,19.36,45.73,19.78c0.28,0,0.7,0,0.98,0
		c0.42,0,0.84,0,1.26,0c18.66,0,34.65-6.59,47.97-19.92c13.19-13.19,19.78-29.18,19.78-47.83S400.48,221.35,387.16,208.03z
		 M386.31,302.99c-13.05,13.05-28.62,19.5-46.99,19.5c-0.42,0-0.84,0-1.12,0c-0.28,0-0.7,0-0.98,0c-17.39-0.56-32.4-7.01-44.89-19.5
		c-13.05-13.05-19.5-28.62-19.5-46.99s6.45-34.09,19.5-46.99c13.05-13.05,28.62-19.5,46.99-19.5c18.38,0,34.09,6.45,46.99,19.5
		c13.05,13.05,19.5,28.62,19.5,46.99S399.36,290.09,386.31,302.99z M385.75,209.57c-12.91-12.76-28.34-19.22-46.43-19.22
		s-33.67,6.45-46.43,19.22c-12.76,12.91-19.22,28.34-19.22,46.43s6.45,33.67,19.22,46.43c12.34,12.34,27.07,18.8,44.33,19.22
		c0.28,0,0.7,0,0.98,0c0.42,0,0.7,0,1.12,0c18.1,0,33.67-6.45,46.43-19.22c12.76-12.76,19.22-28.34,19.22-46.43
		S398.52,222.33,385.75,209.57z M385.33,302.01c-12.76,12.76-28.05,19.08-46.15,19.08c-0.42,0-0.7,0-1.12,0c-0.28,0-0.7,0-0.98,0
		c-17.11-0.56-31.7-6.87-43.91-19.08c-12.76-12.76-19.08-28.05-19.08-46.01s6.31-33.39,19.08-46.15
		c12.76-12.76,28.05-19.08,46.15-19.08c17.96,0,33.39,6.31,46.15,19.08c12.76,12.76,19.08,28.05,19.08,46.15
		C404.41,273.96,398.1,289.39,385.33,302.01z M377.48,217.85c-10.52-10.52-23.29-15.85-38.15-15.85s-27.63,5.33-38.15,15.85
		c-10.52,10.52-15.85,23.29-15.85,38.15c0,14.87,5.33,27.63,15.85,38.15c10.1,10.1,22.3,15.43,36.47,15.85c0.28,0,0.56,0,0.84,0
		s0.7,0,0.98,0c14.87,0,27.63-5.33,38.15-15.85s15.85-23.29,15.85-38.15C393.33,241.13,388,228.37,377.48,217.85z M377.2,293.87
		c-10.52,10.52-23.15,15.71-37.87,15.71c-0.28,0-0.7,0-0.98,0c-0.28,0-0.56,0-0.84,0c-14.03-0.42-26.09-5.61-36.19-15.71
		c-10.52-10.52-15.71-23.15-15.71-37.87s5.19-27.49,15.71-37.87c10.52-10.52,23.15-15.71,37.87-15.71
		c14.73,0,27.49,5.19,37.87,15.71c10.52,10.52,15.71,23.15,15.71,37.87S387.72,283.49,377.2,293.87z M341.15,212.8l1.54-1.96
		l-2.52,0.28l-0.98-2.52l-0.98,2.52l-2.52-0.42l1.68,2.1l-1.68,1.96l2.52-0.42l0.84,2.38l0.98-2.52l2.52,0.42L341.15,212.8z
		 M340.02,214.06l-0.7,1.96l-0.7-1.82l-1.96,0.28l1.26-1.54l-1.26-1.68l1.96,0.28l0.7-1.96l0.7,1.96l1.96-0.28l-1.26,1.54l1.26,1.54
		L340.02,214.06z M300.89,272.55l0.7-2.52l-2.24,1.26l-1.68-1.96v2.67l-2.52,0.56l2.24,1.4l-0.84,2.52l2.24-1.26l1.68,1.96v-2.67
		l2.52-0.56L300.89,272.55z M300.33,274.24v2.1l-1.26-1.54l-1.82,0.98l0.56-1.96l-1.82-0.98l1.96-0.42v-2.1l1.4,1.54l1.68-0.98
		l-0.56,1.96l1.68,1.12L300.33,274.24z M383.65,272.69l-2.52-0.56v-2.67l-1.68,1.96l-2.24-1.26l0.7,2.52l-2.24,1.26l2.52,0.7
		l-0.14,2.67l1.82-1.96l2.1,1.4l-0.7-2.52L383.65,272.69z M381.69,275.92L380,274.8l-1.4,1.54l0.14-1.96l-1.96-0.42l1.68-0.98
		l-0.7-1.96l1.82,0.98l1.26-1.54l0.14,2.1l1.96,0.42l-1.68,1.12L381.69,275.92z M355.59,200.73c0.14-0.14,0.28-0.28,0.42-0.14
		 M361.07,204.24c-0.14-0.14-0.28-0.14-0.28-0.28c-0.14-0.14-0.28-0.28-0.28-0.56c-0.14-1.12-0.28-2.67-0.42-4.63
		s-0.28-2.95-0.42-3.09c-0.14-0.14-0.28-0.14-0.42-0.28c-0.28,0-0.28,0-0.42,0.14c0,0.14-0.84,1.12-2.38,2.95
		c-0.7,0.98-1.54,1.82-2.24,2.81c-0.42,0.14-0.7,0.28-1.12,0.42c-0.14,0.14-0.14,0.28,0,0.42c0.42,0.14,0.7,0.28,1.12,0.42h0.28
		c0.28,0.14,0.7,0.14,1.12,0.14c0.14,0,0.14-0.14,0.28-0.28c0-0.14-0.14-0.28-0.28-0.42l0,0l-0.28-0.28l-0.14-0.28v-0.14
		c0-0.28,0.28-0.56,0.56-0.84l0.42-0.14c0.7,0.14,1.68,0.42,2.67,0.84c0.14,0.42,0.14,0.98,0,1.54c0,0.14-0.14,0.14-0.28,0.28
		c-0.28,0-0.42,0-0.56,0c-0.28,0.14-0.28,0.28-0.14,0.56c0.98,0.42,1.82,0.7,2.81,0.84c0.14,0,0.28-0.14,0.28-0.14
		C361.21,204.38,361.21,204.24,361.07,204.24z M356.3,199.89l1.96-2.38h0.14l0.14,3.09L356.3,199.89z M349.14,193.02
		c0.14,0,0.28,0,0.28,0.14c0,0,0.14,0.14,0.14,0.28c0.14,0.7,0.14,1.26,0,1.82c-0.14,0.14-0.28,0.14-0.42,0.14
		c-0.14-0.14-0.14-0.42-0.28-0.84c0-0.28-0.14-0.42-0.28-0.56c-0.28-0.28-0.7-0.28-1.12-0.28c-0.14,0-0.28,0.14-0.28,0.42
		c-0.14,0.84-0.28,1.54-0.28,2.38c0,0.28,0,0.56-0.14,0.84c-0.14,0.98-0.14,1.82-0.28,2.81l0.56,0.42l0.14,0.28l-0.14,0.14
		c-0.28,0.14-0.7,0.14-1.26,0.14s-0.98-0.14-1.4-0.28c-0.14-0.28-0.28-0.42,0-0.56l0.56-0.28c0.14,0,0.14-0.14,0.14-0.28l0.84-5.89
		c0-0.28-0.14-0.42-0.28-0.42c-0.28-0.14-0.56-0.14-0.84-0.14c-0.42,0.14-0.7,0.42-0.98,0.98c-0.28,0.42-0.56,0.42-0.7,0.14
		c0-0.56,0.14-1.26,0.42-1.82c0-0.14,0.14-0.14,0.28-0.28h0.28c1.4,0.28,2.38,0.42,2.81,0.42
		C347.46,192.88,348.3,193.02,349.14,193.02 M353.63,194.98c-0.14,0-0.28,0.14-0.28,0.28c-0.42,1.68-0.84,3.65-1.26,5.89
		c0,0.14,0,0.28,0,0.28l0.14,0.14c0.28,0.14,0.42,0.28,0.42,0.42c0,0.14-0.14,0.28-0.42,0.28c-0.84-0.14-1.68-0.28-2.38-0.56
		l-0.14-0.28c0-0.14,0.14-0.14,0.28-0.28l0.42-0.14c0.14,0,0.14-0.14,0.14-0.28c0.56-1.82,0.98-3.79,1.26-5.89l-0.14-0.28
		l-0.42-0.28c-0.28-0.28-0.14-0.42,0.14-0.56c0.84,0,1.68,0.28,2.52,0.56c0.14,0.14,0.28,0.14,0.28,0.28c0,0.14,0,0.14-0.28,0.28
		C353.91,194.84,353.77,194.84,353.63,194.98 M339.18,193.44l-0.14-0.28l-0.42-0.28c-0.28-0.14-0.14-0.42,0.14-0.56
		c0.84-0.14,1.68,0,2.52,0c0.14,0,0.28,0.14,0.28,0.28c0,0.14,0,0.28-0.14,0.28c-0.14,0.14-0.28,0.14-0.42,0.28
		c-0.14,0.14-0.14,0.14-0.14,0.28c-0.14,1.68-0.14,3.65-0.14,5.89c0,0.14,0,0.28,0,0.28l0.14,0.14c0.28,0.14,0.42,0.28,0.42,0.42
		c0,0.14-0.14,0.28-0.42,0.42c-0.84,0.14-1.68,0-2.52-0.14l-0.14-0.28c0-0.14,0-0.28,0.14-0.28l0.42-0.28l0.14-0.28
		C339.18,197.51,339.32,195.54,339.18,193.44 M335.96,193.44c-0.28-0.14-0.7-0.14-1.12-0.14c-0.14,0-0.28,0.14-0.28,0.42
		c0.14,2.1,0.28,4.07,0.42,6.03l0.7,0.28l0.14,0.28v0.14c-0.28,0.14-0.7,0.28-1.26,0.28c-0.56,0-0.98,0-1.54,0
		c-0.28-0.14-0.28-0.28-0.14-0.42l0.42-0.28c0.14-0.14,0.14-0.28,0.14-0.28l-0.28-5.89c-0.14-0.28-0.28-0.28-0.28-0.28
		c-0.28,0-0.7,0-0.84,0c-0.42,0.14-0.7,0.56-0.84,1.12c-0.28,0.42-0.42,0.56-0.7,0.28c-0.14-0.56-0.14-1.12,0-1.96
		c0-0.14,0.14-0.28,0.14-0.28h0.28c1.4,0,2.38,0,2.81-0.14c0.98,0,1.96-0.14,2.81-0.28c0.14,0,0.28,0,0.28,0
		c0.14,0,0.14,0.14,0.28,0.28c0.28,0.7,0.28,1.26,0.28,1.82c-0.14,0.14-0.28,0.28-0.42,0.14c-0.14-0.14-0.28-0.42-0.42-0.7
		C336.24,193.72,336.1,193.58,335.96,193.44 M326.98,193.72c0.28-0.28,0.56-0.28,0.7-0.14c0.28,0.14,0.56,0.7,0.84,1.4
		c0,0.28,0,0.42-0.14,0.42s-0.42,0-0.7-0.28c-0.42-0.28-0.7-0.42-0.98-0.56c-1.12-0.14-1.68,0.14-1.96,0.84
		c-0.28,0.84,0.28,1.4,1.68,1.68l1.68,0.28c0.84,0.14,1.4,0.56,1.54,1.26c0.28,0.84,0.28,1.4-0.14,1.96
		c-0.28,0.42-0.7,0.84-1.26,1.12c-0.7,0.28-1.54,0.42-2.67,0.42c-0.56,0-0.98-0.14-1.12-0.42c-0.14-0.28-0.28-0.42-0.42-0.7v-0.14
		c-0.14-0.28-0.14-0.56-0.14-0.84c0.14-0.28,0.42-0.28,0.7-0.14l0.7,0.7c0.28,0.28,0.7,0.56,0.98,0.56c0.7,0.14,1.26,0,1.68-0.42
		c0.42-0.56,0.56-0.98,0.42-1.26c-0.14-0.28-0.28-0.42-0.56-0.56c-0.28-0.14-0.56-0.28-0.84-0.28l-2.1-0.56
		c-0.56-0.14-0.98-0.42-1.26-0.84c-0.42-0.7-0.56-1.4-0.14-2.1c0.42-0.98,1.26-1.4,2.38-1.54
		C326.42,193.72,326.84,193.72,326.98,193.72 M313.37,198.35c-0.14-0.14-0.14-0.28,0-0.42c0.84-0.42,1.68-0.84,2.38-0.98
		c0.42,0,0.56,0.14,0.42,0.42c-0.28,0.14-0.42,0.42-0.42,0.7c0.28,1.12,0.7,2.1,0.98,2.95v0.14c0.28,0.7,0.56,1.26,0.98,1.96
		c0.14,0.28,0.28,0.42,0.7,0.42c0.56,0.14,0.98,0.14,1.54,0c0.56-0.14,0.98-0.56,1.26-0.98c0.14-0.42,0.14-0.98,0.14-1.4v-0.14l0,0
		c-0.42-1.54-1.12-2.95-1.68-4.35c0-0.14-0.14-0.14-0.28-0.28c-0.14,0-0.28,0-0.56,0c-0.14,0-0.14-0.14-0.14-0.14s0-0.14,0-0.28
		c0.56-0.42,1.12-0.7,1.96-0.84c0.28,0,0.42,0.14,0.28,0.28c0,0.14,0,0.14,0,0.28c0,0-0.14,0.14-0.28,0.28
		c-0.14,0.14-0.28,0.28-0.14,0.56l1.68,4.21c0,0.14,0.14,0.28,0.14,0.42v0.14c0,0.28,0,0.7,0,0.98c-0.14,0.28-0.14,0.56-0.28,0.7
		c0,0.14-0.28,0.42-0.42,0.56c-0.28,0.28-0.7,0.56-0.98,0.7c-0.28,0.14-0.7,0.28-1.12,0.42c-0.7,0.14-1.4,0.14-1.82,0
		c-0.7-0.28-1.26-0.84-1.54-1.4l-1.82-4.35c-0.14-0.14-0.14-0.28-0.28-0.28C313.79,198.49,313.51,198.49,313.37,198.35
		 M313.09,206.48c0-0.14,0-0.28,0-0.28c-0.7-1.82-1.68-3.65-2.67-5.33l-0.28-0.14h-0.42c-0.28,0-0.42-0.28-0.14-0.56
		c0.7-0.42,1.4-0.84,2.24-1.26c0.14,0,0.28,0,0.42,0.14c0,0.14,0,0.14,0,0.28c0,0.14-0.14,0.28-0.28,0.42c0,0.14,0,0.28,0,0.28
		c0.7,1.54,1.54,3.37,2.67,5.33l0.14,0.14h0.28c0.28-0.14,0.56,0,0.56,0.14c0.14,0.14,0,0.28-0.14,0.56
		c-0.7,0.42-1.4,0.84-2.24,1.12c-0.14,0-0.28-0.14-0.28-0.14c0-0.14,0-0.28,0-0.28L313.09,206.48 M315.62,221.21
		c0.28-0.42,0.42-0.7,0.28-0.98c0.14,0.28,0.14,0.98-0.14,1.82c0,0.14,0,0.42,0,0.7s0.14,0.7,0.14,1.12s0,0.98,0,1.68v0.14
		l0.14,0.14c0.14,0.14,0.14,0.28-0.14,0.28c-0.28-0.28-0.42-0.56-0.42-0.84c0,0,0-0.28,0-0.42c0-0.14,0-0.28,0-0.42
		c-0.14-0.42-0.42-0.7-0.84-0.98c0-0.14,0-0.28,0-0.56c0-0.28,0-0.56,0.14-0.7c0-0.14,0.14-0.28,0.28-0.42
		C315.34,221.49,315.34,221.35,315.62,221.21 M313.23,224.16c0.28-0.28,0.28-0.7,0.28-0.84c0-0.56,0-0.98-0.14-1.4
		c0.56,0.7,0.84,1.4,0.7,1.96c-0.14,0.42,0,0.84,0.28,0.98c0.28,0.28,0.56,0.42,0.56,0.56c0.14,0.28,0.14,0.42,0.14,0.7v0.7
		c-0.14,0-0.28-0.14-0.28-0.28c0-0.14,0-0.28,0-0.42c0-0.14,0-0.28-0.14-0.42c-0.14-0.14-0.14-0.14-0.28,0
		c-0.14,0.14-0.28,0.28-0.28,0.42c0,0.14,0,0.28,0.14,0.42l0.28,0.42c0,0.42,0,0.7-0.14,0.84c-0.28-0.42-0.56-0.84-0.7-1.26
		c-0.14-0.14-0.14-0.42,0-0.84c0-0.14,0-0.28,0-0.42c0-0.14-0.14-0.14-0.28-0.28c-0.14-0.28-0.28-0.42-0.28-0.7
		C313.09,224.44,313.09,224.3,313.23,224.16 M317.3,223.46c-0.14-0.56-0.14-1.12-0.14-1.68c0.14-0.7,0.28-1.12,0.56-1.26
		c-0.28,0.98-0.14,1.96,0.28,2.95c0.14,0.28,0.28,0.42,0.28,0.7s0,0.42-0.14,0.56c-0.42,0.42-0.7,1.12-0.7,1.96
		c-0.14-0.14-0.28-0.28-0.28-0.42c0-0.14,0-0.28,0.14-0.56l0.28-0.42c0-0.28,0-0.56,0-0.7C317.58,224.16,317.44,223.88,317.3,223.46
		 M319.68,223.46c0,0.14,0,0.28-0.14,0.42c0,0.28,0,0.56,0.14,0.84c0.28,0.42,0.14,0.98-0.7,1.96c-0.14,0-0.14-0.28-0.14-0.42
		c0.28-0.28,0.42-0.56,0.28-0.84c-0.28-0.42-0.28-0.84,0-1.26c0,0,0.14-0.28,0.28-0.56c0.14-0.28,0.28-0.42,0.28-0.7
		C319.68,223.18,319.68,223.32,319.68,223.46 M318.14,228.93L318.14,228.93c0.14,0.28,0.14,0.56,0,0.7l0,0c0,0.14,0,0.28,0,0.56
		c0,0.28,0.28,0.56,0.7,0.84c-0.14,0.14-0.42,0.28-0.7,0.28h-0.28c-0.14-0.42-0.28-0.7-0.28-0.98c0-0.14,0-0.42,0.14-0.56
		c0.14-0.28,0.28-0.42,0.28-0.42L318.14,228.93l-0.14-0.14L318.14,228.93 M315.2,228.65v0.14c0,0,0,0.14,0,0.28
		c0,0,0,0.14,0.14,0.28l0.14,0.28c0.14,0.42,0.14,0.98,0,1.68c-0.14,0-0.28,0-0.28-0.14c-0.14-0.14-0.28-0.14-0.28-0.14
		c0-0.14-0.14-0.28-0.14-0.42c0-0.14,0-0.28,0.14-0.42c0-0.14,0-0.28,0-0.42c0-0.28-0.14-0.28-0.14-0.42
		C314.77,229.07,314.77,228.79,315.2,228.65c0-0.14,0.14-0.28,0.14-0.42C315.2,228.37,315.2,228.51,315.2,228.65 M316.88,227.66
		c-0.14-0.28-0.14-0.42-0.14-0.56c-0.14-0.56-0.14-0.98,0.28-1.4c-0.14,0.56,0,1.12,0.42,1.68c0.14,0.14,0.14,0.42,0.14,0.56
		c0,0.14,0,0.28-0.14,0.42c0,0.14-0.14,0.14-0.28,0.42v0.14l0,0v0.28l-0.14-0.28c0-0.14-0.14-0.28-0.14-0.28c0-0.14,0-0.42,0.14-0.7
		C316.88,227.95,316.88,227.8,316.88,227.66 M316.6,229.77l0.14-0.28L316.6,229.77L316.6,229.77c0,0.14,0,0.28,0,0.42
		c0,0.28,0.14,0.7,0.56,1.26c-0.28,0-0.56,0-0.84,0c-0.14-0.42-0.14-0.7,0-1.12C316.32,230.05,316.46,229.91,316.6,229.77
		 M376.36,219.67v4.35 M374.81,265.4L374.81,265.4 M354.75,277.88v-0.56 M317.86,271.15c0-0.28,0-0.42,0-0.56h-4.35
		c0,0.14,0,0.28,0,0.56c0,0.28,0,0.42,0,0.56h0.42c0-0.14,0.14-0.28,0.28-0.42c0.14-0.14,0.28-0.28,0.28-0.28s0.14,0,0.28,0
		c0.14,0,0.28,0,0.42,0.14v4.07c0,0.42-0.28,0.56-0.7,0.7v0.14h2.1c0-0.14,0-0.14,0-0.28s0.14-0.28,0.14-0.28
		c-0.28-0.14-0.42-0.14-0.56-0.42v-3.79c0.42-0.14,0.7-0.14,0.98,0c0.28,0.14,0.28,0.28,0.28,0.56h0.42
		C317.86,271.71,317.86,271.43,317.86,271.15z M314.21,265.26l1.4,4.35l0.84,0.14l0.14-0.14l-0.42-0.42l1.68-4.07
		c0.28-0.28,0.56-0.42,0.98-0.56v-0.28h-1.68l0.28,0.28l-1.26,3.09l-0.98-3.23h-1.68v0.42
		C313.79,264.84,314.07,264.98,314.21,265.26z M343.81,292.19c-0.14-0.14-0.42-0.14-0.84-0.28c-0.42-0.14-0.7-0.14-0.98-0.28
		c-0.14-0.14-0.28-0.28-0.42-0.56c0-0.28,0-0.42,0.14-0.56c0.14-0.14,0.28-0.28,0.56-0.28c0.28,0,0.42,0,0.7,0.28l-0.14,0.42h0.7
		l0.42-1.26h-0.7l-0.14,0.14c-0.56-0.14-0.98-0.14-1.26-0.14c-0.28,0-0.56,0.14-0.84,0.42c-0.28,0.28-0.28,0.7-0.28,0.98
		c0,0.42,0.42,0.7,0.98,0.98c0.7,0.28,1.12,0.56,1.26,0.84c0.28,0.28,0.28,0.7,0,0.84c-0.56,0.28-0.98,0.28-1.54,0v-0.42l-0.42-0.28
		l-0.42,1.68l1.12,0.14v-0.14c1.54,0.28,2.38,0,2.67-0.7c0.14-0.56,0.14-0.98,0-1.26C344.23,292.47,344.09,292.33,343.81,292.19z
		 M340.59,287.98c0.14,0.28,0.28,0.56,0.42,0.7c0.28,0.14,0.42,0.28,0.7,0.28c0.28,0,0.56,0,0.84,0c0.42-0.14,0.84-0.28,0.98-0.42
		l0.14-0.14v-0.14v0.56h0.56v-2.24l-0.84,0.14c0,0.14,0,0.28,0,0.42c-0.14,0.28-0.14,0.28-0.14,0.42c0,0,0,0,0.14,0l0,0l0,0
		c0,0.28-0.14,0.42-0.28,0.56c-0.14,0.14-0.28,0.14-0.56,0.14c-0.28,0-0.42-0.14-0.56-0.28c-0.14-0.28-0.28-0.56-0.42-0.84
		c0-0.28,0.14-0.56,0.56-0.56c0.28,0,0.7,0,1.12,0.14l-0.14-0.98c0,0.14-0.14,0.28-0.28,0.28c-0.28,0-0.56,0-0.7,0
		c-0.42-0.28-0.56-0.56-0.42-0.98c0.14-0.56,0.42-0.98,0.84-0.98c0.14,0,0.42,0,0.56,0.28c0.14,0.14,0.28,0.28,0.28,0.56h-0.28
		c0,0,0,0.14,0,0.28c0.14,0.14,0.14,0.28,0.14,0.42l0.84,0.14l0.28-1.96h-0.42l-0.42,0.28c-0.56-0.56-1.12-0.7-1.82-0.56
		c-0.28,0-0.56,0.28-0.7,0.42s-0.28,0.42-0.42,0.7v0.7c0,0.14,0.14,0.42,0.42,0.7C340.59,286.72,340.3,287.28,340.59,287.98z
		 M292.47,233.7c0.56,2.67,1.54,5.89,2.67,9.54c-3.09,3.37-5.75,8.28-7.72,14.73C287.28,249.13,288.96,240.99,292.47,233.7z
		 M296.54,243.24c-0.84-2.52-1.54-4.77-2.1-6.59c-0.7-2.38-1.12-4.49-1.4-6.45c-1.4,2.67-2.52,5.05-3.51,7.43
		c-1.12,2.81-1.82,5.75-2.24,8.56c-0.56,3.37-0.84,6.45-0.84,9.26c0,3.51,0.28,6.87,0.84,10.24c0.28-4.07,1.26-8,2.81-11.78
		C291.63,250.25,293.87,246.74,296.54,243.24z M321.09,272.69c0,0.14,0,0.28-0.14,0.28s-0.42,0-0.7,0c-0.14,0-0.14-0.14-0.28-0.28
		c0-0.42,0.14-0.98,0.28-1.4c0.28-0.14,0.56-0.14,0.7,0.14C321.09,271.99,321.09,272.27,321.09,272.69z M322.21,275.08
		c-0.28-0.98-0.56-1.96-0.7-3.23c0-0.56,0.28-0.7,0.84-0.7l0.28-0.56l-4.35,0.14c0,0.14,0,0.28,0.14,0.42c0,0,0.14,0.14,0.42,0.14
		c0.14,0,0.28,0,0.28,0.14c0,0.14,0,0.28,0,0.42l-0.84,3.23c0,0.42-0.28,0.56-0.56,0.7l0.14,0.28h1.4l0.42-1.54
		c0.14-0.7,0.7-0.98,1.68-0.84l0.7,2.52l0.84-0.14l0.14-0.42C322.63,275.5,322.35,275.36,322.21,275.08z M318.56,266.38
		c0,0.14,0.14,0.42,0.42,0.7c-0.42,0.56-0.7,1.26-0.42,1.82c0.14,0.28,0.28,0.42,0.42,0.7c0.14,0.14,0.42,0.28,0.7,0.28
		c0.28,0,0.56,0,0.84,0c0.42-0.14,0.84-0.28,0.98-0.42l0.14-0.14l0,0v0.56h0.56v-2.24l-0.84,0.14c0,0.14,0,0.28,0,0.42
		c-0.14,0.28-0.14,0.28-0.14,0.42c0,0,0,0,0.14,0l0,0v0.14c0,0.28-0.14,0.42-0.28,0.56c-0.14,0.14-0.28,0.14-0.56,0
		c-0.28,0-0.42-0.14-0.56-0.28c-0.14-0.28-0.28-0.56-0.42-0.84c0-0.28,0.14-0.42,0.42-0.56c0.28,0,0.7,0,1.12,0.14l-0.14-0.98
		c0,0.14-0.14,0.28-0.28,0.28c-0.28,0-0.56,0-0.7,0c-0.42-0.28-0.56-0.56-0.42-0.98c0.14-0.56,0.42-0.98,0.84-0.98
		c0.14,0,0.42,0,0.56,0.28c0.14,0.14,0.28,0.28,0.28,0.56l-0.28,0.14c0,0,0,0.14,0,0.28c0.14,0.14,0.14,0.28,0.14,0.42l0.84,0.14
		l0.28-1.96h-0.28l-0.42,0.28c-0.56-0.56-1.26-0.7-1.82-0.56c-0.28,0-0.56,0.28-0.7,0.42c-0.14,0.28-0.28,0.42-0.42,0.7
		L318.56,266.38z M347.6,291.63l-0.42-0.84l-0.42,0.84h-0.84l0.42,0.7l-0.28,0.7h0.7l0.42,0.7l0.42-0.7h0.7l-0.42-0.7l0.42-0.7
		H347.6z M333.85,290.93c0-0.14,0-0.42,0-0.7c0-0.28,0-0.42,0-0.56h-4.35c0,0.14,0,0.28,0,0.56c0,0.28,0,0.42,0,0.7h0.42
		c0-0.14,0.14-0.42,0.28-0.56s0.28-0.14,0.28-0.28c0,0,0.14,0,0.28,0s0.28,0,0.28,0v4.07c0,0.42-0.28,0.56-0.7,0.7V295h2.1v-0.28
		c0-0.14,0.14-0.28,0.14-0.28c-0.28-0.14-0.42-0.14-0.56-0.42v-3.79c0.42-0.14,0.7-0.14,0.98,0c0.28,0.14,0.28,0.28,0.28,0.56
		L333.85,290.93z M353.07,272.83c0,0.14,0,0.28-0.14,0.28s-0.42,0.14-0.7,0c-0.14,0-0.28-0.14-0.28-0.28c0-0.56,0-0.98,0.28-1.4
		c0.28-0.14,0.56-0.14,0.7,0.14C353.07,272.13,353.07,272.41,353.07,272.83z M354.19,275.08c-0.28-0.98-0.56-1.96-0.7-3.23
		c0-0.56,0.28-0.7,0.7-0.7l0.28-0.56l-3.93,0.14v0.28v0.14c0,0,0.14,0.14,0.28,0.14l0.28,0.14c0,0.14,0,0.28,0,0.42l-0.84,3.23v0.14
		h-0.28c-0.14,0-0.28-0.14-0.28-0.28v-3.37c0-0.28,0.14-0.42,0.42-0.56v-0.28h-1.68v0.42c0.14,0,0.28,0.14,0.42,0.42v3.51
		c0,0.42-0.14,0.56-0.56,0.56l0.28,0.42l1.12-0.14l0.14,0.14h1.26l0.42-1.54c0.14-0.7,0.56-0.98,1.54-0.84l0.7,2.52l0.84-0.14
		l0.14-0.42C354.47,275.5,354.19,275.36,354.19,275.08z M388.42,270.73c-0.42,2.95-1.26,5.75-2.52,8.56
		c-1.26,2.67-2.52,5.05-3.93,6.87c-1.26,1.96-3.51,3.93-6.31,5.89c-2.95,1.96-6.03,3.51-9.4,4.63c-3.37,1.12-6.73,1.68-10.1,1.68
		c0.98-0.7,1.82-1.4,2.67-2.1c2.1-0.14,4.21-0.56,6.45-1.12c2.24-0.56,4.63-1.82,7.29-3.51c2.67-1.68,4.91-3.79,6.87-6.17
		c1.96-2.38,3.51-5.05,4.77-7.86c1.12-2.81,1.96-5.75,2.1-8.7c0.28-2.95,0.14-5.89-0.42-8.7s-1.54-5.61-2.95-8.14
		c-1.26-2.38-3.09-5.05-5.61-7.72l2.67-0.14c2.24,2.24,4.07,4.77,5.33,7.72c1.26,2.95,2.24,6.03,2.67,9.26
		C388.84,264.42,388.84,267.64,388.42,270.73z M353.21,298.36c-0.28,0.14-0.56,0.28-0.7,0.42c-0.14,0.14-0.28,0.14-0.42,0.28h-25.67
		c-1.12-0.7-2.38-1.4-3.51-2.24c-0.42-0.28-0.84-0.56-1.26-0.98h2.81h1.68c0,0.42,0,0.84,0,0.98v0.14c0,0.42,0,0.7,0,0.84
		c0,0.28,0.14,0.42,0.28,0.56s0.7,0.14,1.68,0.14s1.96-0.14,3.09-0.28c1.12-0.14,2.24-0.42,3.65-0.7c0.42-0.14,0.98-0.14,1.54-0.28
		c0.42,0,0.7-0.14,0.84-0.14l0.28,0.14l0.14,0.14c0.14,0.14,0.56,0.28,1.4,0.28l0,0c0.7,0,1.26-0.14,1.4-0.28l0.14-0.14l0.14-0.14
		c0.14,0,0.42,0,0.84,0c0.42,0,1.26,0.14,2.24,0.28s2.1,0.28,3.23,0.56c1.12,0.14,1.96,0.28,2.52,0.28c0.84,0,1.4,0,1.54,0
		c0.14,0,0.28-0.14,0.42-0.42c0.14-0.28,0.14-0.56,0.14-0.84s0-0.7,0-1.4h4.77C355.59,296.68,354.47,297.52,353.21,298.36z
		 M365.69,300.33c-6.45,3.65-13.19,5.89-20.48,6.87c1.68-1.54,3.09-3.23,4.35-5.05c0.98-0.42,1.82-0.84,2.67-1.26
		C356.3,301.45,360.78,301.31,365.69,300.33z M339.18,302.99c-4.35-0.28-8.14-1.4-11.64-3.23h23.29
		C347.32,301.59,343.53,302.57,339.18,302.99z M339.74,306.22v-1.82c0.98-0.14,1.82-0.14,2.67-0.28
		C341.57,305.1,340.73,305.8,339.74,306.22z M339.74,307.76v-0.98c1.4-0.7,2.52-1.54,3.37-2.81c0.56-0.14,0.98-0.14,1.4-0.28
		C342.97,305.52,341.43,306.78,339.74,307.76z M336.1,304.11c0.84,0.14,1.68,0.28,2.67,0.28v1.82
		C337.5,305.52,336.52,304.82,336.1,304.11z M334.13,303.69c0.42,0.14,0.84,0.14,1.26,0.28l0,0c0.84,1.26,1.96,2.24,3.37,2.81v0.98
		C337.08,306.78,335.54,305.52,334.13,303.69z M333.29,307.06c-7.29-0.98-13.89-3.23-19.92-6.73c4.49,0.84,8.84,0.98,13.19,0.42
		c0.84,0.42,1.68,0.84,2.52,1.26L333.29,307.06z M312.39,296.54c-3.37-1.12-6.45-2.67-9.4-4.63c-2.95-1.96-5.05-3.93-6.31-5.89
		c-1.26-1.96-2.67-4.21-3.79-6.87c-1.26-2.67-2.1-5.47-2.52-8.56c-0.42-2.95-0.42-6.17,0-9.54s1.4-6.45,2.67-9.26
		c1.26-2.95,3.09-5.47,5.33-7.72l2.67,0.14c-2.38,2.81-4.21,5.33-5.61,7.72c-1.4,2.52-2.38,5.33-2.95,8.14s-0.7,5.75-0.42,8.7
		c0.28,2.95,0.98,5.89,2.1,8.7c1.26,2.81,2.81,5.47,4.77,7.86s4.35,4.49,6.87,6.17c2.67,1.68,5.05,2.81,7.43,3.51
		c2.24,0.56,4.35,0.98,6.31,1.12c0.14,0.14,0.42,0.28,0.56,0.42c0.7,0.56,1.54,1.12,2.24,1.68
		C319.12,298.22,315.76,297.66,312.39,296.54z M295.14,230.33l2.24,1.26c0.98,3.93,2.24,7.72,3.65,11.5l-2.38-0.14
		C297.1,238.61,295.84,234.4,295.14,230.33z M302.29,227.1v2.24c-1.54,0.28-2.95,0.7-4.35,1.4l-2.38-1.4
		C297.24,228.51,299.48,227.8,302.29,227.1z M298.78,231.59c1.12-0.56,2.24-0.84,3.37-0.98v11.78
		C300.47,238.19,299.34,234.68,298.78,231.59z M302.71,268.91c0.56,2.67,1.26,5.33,2.24,7.72c2.1,5.05,4.91,9.54,8.56,13.61
		c1.4,1.68,3.09,3.23,4.63,4.77c-1.4-0.28-2.95-0.56-4.63-0.98c-1.68-0.42-3.79-1.54-6.45-2.95c-2.67-1.54-4.91-3.37-6.87-5.75
		c-1.96-2.38-3.65-4.77-4.63-7.15c-0.98-2.38-1.82-5.05-2.24-7.86c-0.42-2.81-0.42-5.61,0-8.42s1.4-5.89,3.09-9.12
		c1.68-3.23,3.51-5.89,5.61-7.72v17.11C302.15,264.14,302.29,266.38,302.71,268.91z M297.52,225.14c1.12-1.54,2.67-3.51,4.63-5.47
		v4.49C301.03,224.16,299.48,224.58,297.52,225.14z M314.63,247.86c-0.7,0-1.26,0-1.54-0.28c0.28,0,0.56-0.14,0.84-0.14
		c0,0,0.14,0,0.28,0.14C314.35,247.72,314.49,247.86,314.63,247.86z M315.34,246.6h-0.84l-0.42-0.28h0.56L315.34,246.6z
		 M314.07,236.92h-0.56l-0.28-0.28C313.65,236.64,314.07,236.64,314.07,236.92z M316.6,244.36h0.28l0.42,0.42
		C317.16,244.78,316.88,244.64,316.6,244.36z M315.34,245.2l-0.14-0.14h0.56l0.56,0.28L315.34,245.2z M316.88,258.38
		c0,0-0.14-0.14-0.28-0.14c-0.28-0.14-0.42-0.42-0.42-0.56c0-1.12,0-1.82,0-2.38c0.14-0.28,0.28-0.42,0.42-0.42
		c0.14,0,0.42,0.28,0.7,0.7c0.28,0.28,0.42,1.12,0.28,2.24c-0.28,0.28-0.42,0.56-0.14,0.7c0.28,0.28,0.28,0.42,0.28,0.7
		c0,0.14-0.14,0.28-0.42,0.28c-0.14,0-0.42,0-0.56,0c-0.28-0.14-0.28-0.28-0.42-0.56c0-0.14,0.14-0.28,0.7-0.28v-0.28H316.88z
		 M318.7,245.06l-0.56-0.56l0.42,0.14L318.7,245.06z M317.3,233.84c0,0,0.14,0.14,0.42,0.14c0.28,0,0.56,0,0.7,0
		c0.28,0,0.42,0.28,0.28,0.56c-0.14,0.42-0.14,0.98-0.14,1.4l-0.84,0.7c0,0,0,0.14,0.28,0.28c0.28,0.14,0.28,0.28,0.28,0.42
		c0,0,0,0.14-0.14,0.28c-0.14,0.14-0.14,0.14-0.28,0.28c0,0.14,0,0.28,0.14,0.42c0.14,0.14,0.14,0.28,0.14,0.42v2.52
		c0,0-0.14,0.14-0.14,0.56c0,0.28,0,0.7,0,1.12c0,0.28,0,0.7-0.14,0.98c0,0.28,0,0.56,0,0.84c-0.42-0.28-0.98-0.42-1.4-0.28
		c0.28,0.28,0.28,0.56,0.42,0.84c-0.14-0.28-0.42-0.28-0.56-0.28l-0.28-7.29l0.28-1.4c-0.14-0.14-0.28-0.28-0.28-0.42
		c0-0.14,0-0.28,0.14-0.42c0.14-0.28,0.28-0.42,0.28-0.42c0-0.14,0-0.28,0-0.28l-0.7-0.14c0-0.28,0-0.42,0.14-0.42
		c0.14-0.14,0.28-0.14,0.42-0.14c0.28,0,0.28,0,0.42-0.14c0.14,0,0.14-0.14,0-0.28l-1.4-0.28c-0.14-0.14-0.28-0.28-0.28-0.28v-0.28
		c0.14-0.14,0.14-0.28,0.14-0.28c0-0.14,0-0.28,0-0.42h0.14c0,0,0.14,0,0.28,0.14c0.42,0.14,0.7,0.14,0.84,0.14
		c0,0.28,0.14,0.56,0.14,0.56c0.14,0,0.28-0.14,0.56-0.42c0.28-0.14,0.56-0.28,0.98-0.14h0.14c0.14,0,0.28,0,0.28,0
		c0.14,0,0.28,0,0.28-0.14c0.14-0.14,0.28-0.28,0.42-0.28l0.28-0.14v0.28l0.14,0.28c0,0.14,0,0.28-0.14,0.42
		c-0.42,0.28-0.84,0.56-1.26,0.7C318,233.7,317.58,233.84,317.3,233.84C317.16,233.7,317.16,233.7,317.3,233.84z M320.95,251.23
		c-0.14-0.28-0.28-0.42-0.28-0.56c-0.14-0.14-0.28-0.28-0.28-0.42c0.28,0.14,0.42,0.14,0.56,0c-0.28-0.14-0.28-0.28-0.28-0.42
		c0,0,0.14,0.14,0.42,0.28c0.28,0.14,0.42,0.28,0.7,0.56c0-0.14,0-0.28-0.14-0.56c0.28,0.28,0.56,0.42,0.84,0.56
		c0.14,0,0.28,0.14,0.56,0.28c0.56,0.28,1.12,0.7,1.96,1.26c0.28,0.28,0.98,0.28,1.68,0.28c0,0.28-0.14,0.42-0.42,0.56
		c-0.14,0-0.42,0.14-0.7,0c-0.14,0-0.42,0-0.56,0c-0.28,0-0.42,0.14-0.56,0.14c-0.42,0.14-0.84,0.14-1.4,0
		c-0.28,0-0.56-0.14-0.84-0.42c0,0-0.28-0.28-0.7-0.7c0.14,0,0.28,0,0.42-0.14C321.51,251.93,321.23,251.65,320.95,251.23z
		 M344.93,235.38c-0.28,0-0.42,0-0.7-0.14c0-0.14,0.14-0.28,0.42-0.42C344.79,234.96,344.79,235.1,344.93,235.38z M346.76,235.66
		c-0.28,0-0.42,0-0.56-0.14c0-0.14,0.14-0.28,0.28-0.28C346.62,235.38,346.62,235.52,346.76,235.66z M343.25,228.79l-0.56,0.7
		l-0.14-0.14v-0.56h0.42H343.25z M345.64,228.93l-0.42,0.56l-0.28-0.7L345.64,228.93z M347.46,229.35l-0.42,0.28l-0.14-0.42
		L347.46,229.35z M303.69,219.81h71.12l0.14,40.96h-13.75c-0.14-0.14-0.28-0.28-0.28-0.56c0-0.14,0-0.42,0-0.84
		c0-0.42,0-0.84,0-0.98c0-0.42-0.14-0.7-0.28-0.84c0-0.14,0-0.14,0.14-0.14c0,0,0.14,0.14,0.28,0.28c0-0.28,0-0.7-0.14-1.26
		c-0.14-0.42-0.14-0.84-0.14-0.98c0.14,0,0.28,0,0.42,0.42c0.56-2.24,0.84-4.63,0.84-7.01c0.14,0.14,0.28,0.42,0.42,0.98
		c0.28-0.98,0.28-1.96,0-3.23c-0.14-0.42,0-0.98,0.14-1.82c0.28-1.26,0.14-2.38-0.14-3.65c0.28,0.42,0.56,0.7,0.98,0.7
		c-0.56-1.12-0.98-2.38-1.4-3.79c0-0.28,0-0.7,0-0.98c0-0.14,0.14-0.42,0.28-0.98c0.14-0.42,0.14-0.7,0.28-0.7l0.14,0.56
		c0.14,0,0.14-0.14,0.28-0.28c0-0.14,0-0.42,0.14-0.7c0.14-0.7,0.28-1.12,0.42-1.26c0.14,0.28,0.14,0.56,0.14,0.7
		c0.28-1.26,0.28-2.67-0.14-4.35l-0.28-2.67c0.42-0.28,0.56-0.56,0.56-0.98v-0.98c0.14,0,0.28,0.28,0.42,0.42
		c-0.14-0.28-0.14-0.7-0.14-1.12c0-0.28-0.14-0.56-0.28-0.7c-0.84-0.98-1.96-1.26-3.23-0.98c0-0.56-0.14-0.98-0.42-1.4
		c0-0.14,0-0.14,0.28-0.14c-0.28-0.42-0.7-0.56-1.12-0.56c-0.14,0-0.28,0-0.42-0.14c-0.14,0-0.28-0.14-0.42-0.14
		c-0.42-0.14-0.7-0.14-0.98,0c-0.84,0.14-1.4,0.7-1.68,1.4c-1.96-0.42-3.23-0.42-3.93-0.14c0-0.14,0.14-0.28,0.28-0.28
		c-0.7,0.14-1.12,0.28-1.54,0.7c-1.82,0.28-3.65,0.56-5.47,0.98c-1.12,0.14-2.24,0.14-2.95,0c-0.14,0.28-0.28,0.42-0.28,0.56
		c-0.14,0.28,0,0.42,0,0.7c0.42,0.7,0.56,1.4,0.28,2.1l-0.42,0.98c-0.14,0.28-0.14,0.42-0.14,0.56v0.42c0,0.14,0.14,0.28,0.28,0.42
		c0.28,0,0.42,0.14,0.56,0.42l0.7,0.56c0.28-0.56,0.56-0.98,0.98-1.26c0.14-0.14,0.28,0,0.28,0c0.28,0.42,0.7,0.84,1.26,1.26
		c0.14-0.42,0.42-0.7,0.7-0.84h0.14l0.14,0.14c0,0.14,0.28,0.28,0.42,0.42c0.28,0.14,0.42,0.28,0.42,0.28
		c0.14-0.14,0.28-0.14,0.42-0.28c0.14,0,0.28,0,0.28,0s0,0.14,0,0.28c0,0.42,0.14,0.7,0.42,0.98c0.42-0.28,0.7-0.28,0.98-0.14
		c0.84,0.7,1.12,1.12,0.7,1.26c-2.38-0.14-3.93-0.14-4.35-0.28c-1.26-0.14-2.52-0.28-3.51-0.56s-1.68-0.7-2.38-1.12
		c-0.42-0.28-0.7-0.84-1.12-1.4c-0.14-0.28-0.42-0.42-0.7-0.42s-0.42,0-0.7,0.14c-0.14,0.14-0.28,0.42-0.28,0.7s0,0.7,0.14,1.12
		c1.12,2.52,3.79,3.79,7.72,4.07c3.51,0.28,5.05,0.7,4.77,1.26c0,0.14-0.14,0.14-0.28,0.14c-0.28-0.14-0.42-0.28-0.56-0.42
		L349,235.1c-0.56,0.28-0.98,0.56-1.26,0.98c-0.42-0.28-0.7-0.56-0.84-0.84c-0.42,0.14-0.84,0.42-1.12,0.84
		c-0.42-0.56-0.56-0.98-0.7-1.4c-0.7,0.14-1.12,0.56-1.4,1.26c-0.14,0-0.28,0.14-0.28,0.28c0,0.14,0,0.28,0.14,0.42v0.42v0.14
		l-0.14,0.28c-0.14,0.28,0,0.56,0.14,0.84c0.14-0.28,0.28-0.42,0.56-0.42c0,0.42,0.14,0.84,0.7,1.12c0-0.28,0.14-0.42,0.42-0.56
		c0,0.14,0.14,0.28,0.14,0.28s0.14,0.14,0.28,0.14c0-0.14,0-0.28,0-0.42c0.28,0.28,0.7,0.28,1.12,0.28
		c-0.14,0.14-0.28,0.42-0.14,0.7c-0.56,0.28-1.12,0.7-1.54,1.12c-0.7,0-1.12,0.14-1.68,0.56c0.14,0,0.28,0,0.42,0.14
		c-0.7,0.28-1.54,0.98-2.52,1.96c-0.28,0.28-0.7,0.56-0.98,0.98l-0.42,0.42c0.14,0,0.28,0,0.28,0c0.14,0,0.28,0,0.28,0l-2.52,2.95
		c-0.84,0-1.54,0-1.96,0.28c-0.42-0.14-0.84-0.28-1.26-0.42c-0.56-0.14-0.84-0.14-0.98-0.14s-0.28,0-0.42,0h-0.28l0.28-0.14
		l0.14-0.14c-0.42,0.14-0.98,0.14-1.54,0c-0.7,0-1.26,0-1.54,0c0-0.14,0.14-0.28,0.28-0.28c-0.14,0-0.28,0-0.7,0s-0.7,0-0.98,0
		c0.14-0.14,0.28-0.28,0.28-0.28c-0.42,0.14-0.98,0.14-1.68,0c-0.7-0.14-1.12-0.14-1.26-0.14v-0.28c0,0,0.14-0.14,0.28-0.14
		l-1.82-0.14c0.28-0.14,0.28-0.28,0.42-0.56c-0.56,0.28-0.98,0.28-1.4,0.14c-0.42-0.14-0.7-0.42-0.7-0.84
		c-0.14,0-0.14,0.28-0.14,0.42c-0.14-0.28-0.42-0.7-0.7-0.84c-0.28-0.28-0.56-0.42-0.7-0.56c-0.28-0.14-0.42-0.7-0.42-1.54
		c0-0.42-0.14-0.7-0.14-1.12c0-0.28-0.14-0.56-0.14-0.7c-0.14-0.14-0.14-0.42-0.14-0.56c0.14,0.14,0.28,0.14,0.42,0.14
		c-0.56-0.7-0.84-1.54-0.84-2.38h0.14c0.14,0,0.14,0.14,0.28,0.14h0.14c-0.42-0.42-0.56-0.84-0.56-1.26c0-0.14,0-0.28,0-0.56
		c0-0.28-0.14-0.56,0-0.7c0-0.14,0.14-0.28,0.28-0.42c0.14-0.14,0.28-0.28,0.14-0.42c0-0.14,0.14-0.28,0.28-0.42l0.42-0.42
		c0.14-0.14,0.28-0.42,0.28-0.56c0-0.14,0-0.28-0.28-0.56c-0.28-0.28-0.28-0.42-0.42-0.56c0-0.14,0-0.28,0.28-0.56
		c0.28-0.28,0.42-0.56,0.42-0.7c0-0.28,0.14-0.56,0.14-0.84c0-0.28,0-0.56-0.14-1.12c-0.14-0.42-0.14-0.7-0.14-0.84
		c0-0.7,0.28-1.54,0.84-2.24c-0.84,0.14-1.54,0.56-1.82,1.54c-0.42,0.98-0.84,1.68-1.4,2.24v0.28l0.14,0.14
		c0.14,0,0.14-0.14,0.28-0.28c0-0.14,0.14-0.28,0.14-0.28c0.7,0,0.98,0.14,0.7,0.84c-0.14,0.14-0.28,0.42-0.42,0.7
		c0.28,0.28,0.28,0.7,0.28,1.26c-0.14,0-0.28,0-0.42,0.14c-0.28,0.14-0.56,0.28-0.84,0.42l-0.28,0.14
		c-0.28,0.14-0.84,0.14-1.26,0.14c-0.7,0-1.26,0-1.68-0.28l-0.42-0.28c-0.14-0.14-0.28-0.14-0.42-0.14c0-0.14,0-0.28-0.14-0.28
		s-0.28,0-0.42-0.14l-0.56-1.4c0-0.28,0-0.56,0-0.56h0.14h0.14c0.14,0.28,0.28,0.56,0.28,0.84c0.28-0.14,0.28-0.42,0-0.56
		c-0.14-0.14-0.14-0.42-0.14-0.98c0-0.14-0.14-0.28-0.28-0.56c-0.28-0.28-0.42-0.42-0.56-0.7c-0.28-0.28-0.42-0.7-0.28-1.26
		c-0.28,0.84-0.28,1.68,0,2.67c0.14,0.42,0.14,0.7,0,1.12c0,0.42,0,0.7,0.14,0.98c0.28,0.56,0.28,0.98,0,1.26
		c-0.14,0.28-0.14,0.56,0,0.98l0.84,0.56c-0.14,0.28,0,0.56,0.42,0.7c0.42,0.56,0.7,0.98,0.56,1.54c-0.28-0.14-0.56-0.14-0.84,0
		c0.56,0.42,0.98,0.84,1.12,1.54c-0.7-0.42-1.54-0.7-2.24-0.56c0.56,0.42,0.84,0.98,0.98,1.68c-0.28,0.56-0.14,1.12,0.28,1.82
		c-0.28,0.28-0.28,0.84-0.28,1.68l0.28-0.56c0,0.42,0.14,0.98,0.56,1.4c0-0.42,0.14-0.7,0.28-0.56l0.42,0.84l0.14,2.1l-0.56,0.14
		c0.28,0.28,0.42,0.7,0.56,1.12l-0.14,0.14h-0.14l0,0c-0.42-0.28-0.98-0.28-1.68,0c0.42,0.14,0.7,0.56,1.12,0.98l-0.14,0.14
		c-0.42-0.14-1.12-0.14-1.82,0.14c0.56,0.42,0.98,0.84,1.4,1.4l-0.14,0.56c-0.14,0.28,0,0.56,0.28,0.84
		c-0.28,0.28-0.42,0.84-0.28,1.68c0.14-0.42,0.28-0.7,0.42-0.7c0,0.7,0.14,1.4,0.56,1.96c0-0.28,0-0.7,0.28-0.84l0.56,0.98
		l0.14,3.79c0,0.14,0,0.28,0,0.28c0,0.14-0.14,0.28-0.42,0.28h-0.14v0.14v0.28c0.14,0,0.28,0,0.28,0s0,0.14,0.14,0.28
		c0,0.14,0.14,0.42,0.42,0.56c0.28,0.14,0.42,0.28,0.84,0.28c0.28,0,0.56,0,0.84-0.14c0.28-0.14,0.56-0.42,0.7-0.84v-0.14h0.14
		c0.14-0.14,0.14-0.28,0-0.56l-0.28-0.14c0,0,0-0.14,0-0.28V256h0.14c0,0,0,0.14,0.14,0.28c0.14,0.28,0.14,0.42,0.28,0.56
		c0-0.28,0-0.42,0.28-0.42c0.28,1.26,0.84,2.38,1.68,3.37c0-0.14-0.14-0.42-0.14-0.7c0.28,0.42,0.7,0.7,1.26,0.7
		c-0.28-0.14-0.28-0.28-0.28-0.42c1.4,0.28,2.67,0.28,3.79,0.14c0,0.14-0.14,0.14-0.28,0.28h1.96c-0.14,0-0.14-0.14,0-0.14h0.14
		l0.28,0.14c0.42,0.14,0.98,0.28,1.68,0.42c-0.14-0.14-0.28-0.14-0.14-0.28c0,0,0.28,0,0.84,0c0.56,0.14,1.12,0.14,1.54,0.14
		c-0.14,0-0.28-0.14-0.28-0.14s0.14,0,0.42,0l0.98,0.28c1.12,0.28,1.96,0.28,2.52,0.14c0.14,0,0.28,0,0.42,0.28l-0.14-0.42
		c0.98,0,1.68,0.14,2.1,0.56h-33.67L303.69,219.81z M316.04,209.71c-2.67,2.24-5.33,5.05-7.72,8.56h-4.35
		C307.06,215.04,310.99,212.09,316.04,209.71z M362.05,218.13H316.6c2.67-3.23,5.75-5.75,9.4-7.72c4.07-2.1,8.42-3.23,12.91-3.23
		c4.63,0,8.98,0.98,13.19,3.09C355.88,212.23,359.24,214.76,362.05,218.13z M317.86,212.52c1.82-1.68,3.79-3.23,5.89-4.35
		c2.24-1.26,4.49-2.1,6.87-2.81c2.52-0.7,5.19-1.12,7.86-1.12c2.24-0.14,4.63,0.14,7.29,0.7c2.67,0.56,5.05,1.26,7.43,2.52
		c2.52,1.12,4.77,2.81,7.01,4.77c2.1,1.82,3.93,3.93,5.47,6.17h-2.1c-3.09-3.93-6.87-6.87-11.08-8.98c-4.35-2.1-8.7-3.09-13.47-3.09
		c-4.63,0-9.12,1.12-13.33,3.23c-4.07,2.1-7.57,5.05-10.52,8.84h-2.1C314.07,216.44,315.62,214.62,317.86,212.52z M362.33,209.57
		c5.05,2.52,9.12,5.33,12.34,8.56h-4.63C367.66,214.62,364.99,211.81,362.33,209.57z M352.09,294.58c0.14,0,0.28,0,0.42,0
		c0.28,0,0.42,0,0.56-0.28c0.14-0.14,0.28-0.28,0.28-0.56c0-0.28,0-0.42-0.28-0.56c-0.14-0.14-0.28-0.28-0.56-0.28
		c-0.14,0-0.28,0-0.42,0.14v-1.12h8.98c-1.12,1.12-2.38,2.24-3.65,3.23h-5.47L352.09,294.58z M364.71,288.26
		c-0.28,0.28-0.56,0.7-0.84,0.98c-0.7,0.7-1.4,1.54-2.1,2.24h-9.68l0.14-3.23L364.71,288.26L364.71,288.26z M352.23,287.56
		l0.14-1.26c0.14,0,0.28,0,0.42,0c0.28,0,0.42-0.14,0.56-0.28c0.14-0.14,0.28-0.28,0.28-0.56c0-0.28-0.14-0.42-0.28-0.56
		s-0.28-0.28-0.56-0.28c-0.14,0-0.28,0-0.28,0v-0.28h15.15c-0.7,1.12-1.54,2.1-2.24,3.09h-13.19V287.56z M310.43,276.76
		c0,0.7,0,0.98,0,1.26c0,0.42,0,0.7,0.14,0.84c0.14,0.28,0.28,0.28,0.56,0.42c0.28,0.14,0.56,0.14,0.98,0.14
		c1.4,0,2.67-0.14,3.79-0.28c0.84-0.14,1.96-0.28,3.37-0.56c0.42-0.14,0.98-0.14,1.54-0.28c0.42-0.14,0.7-0.14,0.84-0.14h0.28
		l0.14,0.14c0.14,0.14,0.56,0.28,1.4,0.28l0,0c0.7,0,1.26-0.14,1.4-0.28l0.14-0.14c0,0,0.14,0,0.28,0c0.14,0,0.42,0,0.98,0.14
		c0.42,0.14,1.26,0.28,2.1,0.42c0.98,0.14,1.96,0.28,2.95,0.42c0.98,0.14,1.96,0.14,2.81,0.28c0.84,0,1.4,0,1.54-0.14
		s0.28-0.28,0.42-0.42c0.14-0.14,0.14-0.42,0.14-0.84c0-0.14,0-0.56,0-1.26h5.75c0,0.7,0,0.98,0,1.26c0,0.28,0,0.7,0.14,0.84
		c0.14,0.28,0.28,0.42,0.42,0.56c0.14,0.14,0.7,0.14,1.68,0.14s1.96-0.14,3.09-0.28s2.24-0.42,3.65-0.7
		c0.42-0.14,0.98-0.14,1.54-0.28c0.42,0,0.7-0.14,0.84-0.14l0.28,0.14l0.14,0.14c0.14,0.14,0.56,0.28,1.4,0.28l0,0
		c0.7,0,1.26-0.14,1.4-0.28l0.14-0.14c0,0,0.14,0,0.28,0s0.42,0,0.98,0.14c0.42,0.14,1.26,0.28,2.1,0.28
		c0.98,0.14,1.96,0.28,2.95,0.42c1.26,0.14,2.24,0.28,2.81,0.28c0.84,0,1.4,0,1.54-0.14c0.14,0,0.28-0.28,0.42-0.56
		c0.14-0.14,0.14-0.42,0.14-0.84c0-0.14,0-0.56,0-1.26h4.07l-1.54,3.09h-62c-0.84-1.4-1.4-2.38-1.54-3.09h3.51V276.76z
		 M310.43,272.97v0.98l0,0c-0.14,0-0.28,0-0.28,0c-0.28,0-0.42,0-0.56,0.28c-0.14,0.14-0.28,0.28-0.28,0.56
		c0,0.28,0.14,0.42,0.28,0.56c0.14,0.14,0.28,0.28,0.56,0.28c0.14,0,0.28,0,0.28-0.14l0,0v0.7h-4.07c-0.42-0.98-0.84-2.1-1.12-3.09
		h5.19V272.97z M310.43,269.19v3.09h-5.33c-0.28-0.98-0.56-2.1-0.7-3.09H310.43z M310.43,265.4v0.28l0,0c-0.14,0-0.28,0-0.28,0
		c-0.28,0-0.42,0-0.56,0.28c-0.14,0.14-0.28,0.28-0.28,0.56c0,0.28,0.14,0.42,0.28,0.56c0.14,0.14,0.28,0.28,0.56,0.28
		c0.14,0,0.28,0,0.28-0.14l0,0v1.26h-6.31c-0.28-1.12-0.42-2.1-0.42-3.09H310.43z M322.07,276.62c-0.42,0-1.26,0.14-2.38,0.28
		c-1.12,0.14-2.24,0.28-3.09,0.42c-0.98,0.14-1.82,0.14-2.95,0.14c-0.28,0-0.42-0.14-0.56-0.28c0-0.14-0.14-0.28-0.14-0.28l0,0
		v-0.28l0.14-13.47c1.54,0.28,2.67,0.42,3.37,0.28c0.7,0,1.68-0.28,3.09-0.42c1.26-0.14,2.24-0.14,2.81,0
		c0.56,0.14,0.84,0.42,1.12,0.56v13.33C322.91,276.76,322.49,276.76,322.07,276.62z M312.39,277.04c0,0.28,0,0.56,0.14,0.7
		c0.14,0.14,0.28,0.28,0.56,0.28c0.98,0,2.1-0.14,3.23-0.28c0.56-0.14,1.4-0.28,2.67-0.42c0.98-0.14,1.68-0.28,2.24-0.28
		c0.7,0,1.4,0,1.96,0.28v0.56c-0.28-0.14-0.7-0.28-1.4-0.14c-0.42,0-1.26,0.14-2.52,0.42c-1.4,0.28-2.52,0.42-3.37,0.56
		c-1.4,0.14-2.67,0.28-3.93,0.14c-0.56,0-0.98-0.28-0.98-0.7s0-0.98,0-1.4c-0.14-3.51-0.14-7.57,0-12.2
		c0.28-0.7,0.84-1.12,1.54-1.54c0,1.54-0.14,3.93-0.28,7.01C312.39,272.83,312.39,275.22,312.39,277.04z M323.89,276.9v-13.33
		c0,0,0.14,0,0.28-0.14c0.28-0.14,0.42-0.28,0.7-0.28c0.56-0.14,0.98-0.28,1.26-0.28c0.28,0,0.84,0.14,1.54,0.28
		c0.84,0.28,1.82,0.28,3.09,0.28c0.84,0,1.96,0,3.37-0.28c0.14,4.49,0,8.98-0.14,13.61c0,0.14-0.14,0.28-0.28,0.42
		c-0.14,0-0.42,0-0.98,0c-0.84,0-1.54-0.14-1.96-0.14c-1.26-0.14-2.38-0.14-3.23-0.28c-1.26-0.14-1.96-0.14-2.52-0.14
		C324.59,276.62,324.17,276.76,323.89,276.9z M323.89,277.32c0.56-0.28,1.26-0.28,1.96-0.28c0.98,0,1.68,0.14,2.24,0.28
		c0.84,0.14,1.82,0.28,2.67,0.28c1.26,0.14,2.24,0.28,3.09,0.28c0.28,0,0.42,0,0.56-0.28c0.14-0.14,0.14-0.42,0.14-0.7
		c0-2.67,0.14-4.91,0-6.87c0-1.12,0-2.52,0-4.07c0-1.68,0-2.52,0-2.95c0.42,0.14,0.7,0.42,0.98,0.7c0.28,0.28,0.42,0.42,0.56,0.84
		c0,1.96,0,4.07,0,6.03c0,2.52-0.14,5.05-0.14,7.57c0,0.42-0.28,0.7-0.98,0.7c-0.98,0-2.24,0-3.79-0.28
		c-1.4-0.14-2.52-0.28-3.37-0.56c-1.26-0.28-2.1-0.42-2.52-0.42c-0.84-0.14-1.26,0-1.4,0.14V277.32z M336.52,268.48l0.14-1.4l0,0
		c0.14,0,0.28,0.14,0.28,0.14c0.28,0,0.42-0.14,0.56-0.28c0.14-0.14,0.28-0.28,0.28-0.56c0-0.14-0.14-0.42-0.28-0.56
		c-0.14-0.14-0.28-0.28-0.56-0.28c-0.14,0-0.28,0-0.28,0l0,0l0,0v-0.28h5.33v0.28l0,0l0,0c-0.14,0-0.28,0-0.28-0.14
		c-0.28,0-0.42,0.14-0.56,0.28s-0.28,0.28-0.28,0.56c0,0.28,0.14,0.42,0.28,0.56c0.14,0.14,0.28,0.28,0.56,0.28
		c0.14,0,0.28,0,0.28-0.14l0,0v1.4h-5.47V268.48z M336.38,272.41l0.14-3.23h5.47v3.23H336.38z M341.01,275.36
		c0.14,0.14,0.28,0.28,0.56,0.28c0.14,0,0.28,0,0.28-0.14l0,0v0.7h-5.61v-0.7l0,0l0.28,0.14c0.28,0,0.42-0.14,0.56-0.28
		c0.14-0.14,0.28-0.28,0.28-0.56c0-0.14-0.14-0.42-0.28-0.56c-0.14-0.14-0.28-0.28-0.56-0.28h-0.28l0,0v-0.98h5.61v0.98l0,0
		c-0.14,0-0.28-0.14-0.28-0.14c-0.28,0-0.42,0.14-0.56,0.28s-0.28,0.28-0.28,0.56C340.73,274.94,340.87,275.22,341.01,275.36z
		 M353.49,276.76c-0.42,0-1.26,0-2.38,0.14c-1.12,0.14-2.24,0.28-3.09,0.42c-0.84,0.14-1.68,0.14-2.38,0.28c-0.7,0-0.98,0-1.12-0.14
		c-0.14-0.14-0.14-0.28-0.14-0.28s0-0.14,0-0.42v-13.47c1.54,0.28,2.67,0.28,3.37,0.28c0.7,0,1.68-0.28,3.09-0.42
		c1.26-0.14,2.24-0.14,2.81,0c0.56,0.28,0.84,0.42,1.12,0.56v13.33C354.33,276.76,353.91,276.76,353.49,276.76z M342.55,276.76
		c-0.14-3.51-0.14-7.57,0-12.2c0.28-0.7,0.84-1.12,1.54-1.54c0,1.54-0.14,3.93-0.14,7.01c0,2.67,0,5.05,0,7.01
		c0,0.28,0,0.56,0.14,0.7c0.14,0.14,0.28,0.28,0.56,0.28c0.98,0,2.1,0,3.23-0.28c0.56,0,1.4-0.28,2.67-0.42
		c0.98-0.14,1.68-0.28,2.24-0.28c0.7,0,1.4,0,1.96,0.28v0.56c-0.28-0.14-0.7-0.28-1.4-0.14c-0.42,0-1.26,0.14-2.52,0.42
		c-1.4,0.28-2.67,0.56-3.79,0.7c-1.26,0.28-2.24,0.28-3.09,0.28s-1.26-0.42-1.26-0.98C342.55,277.74,342.55,277.32,342.55,276.76z
		 M355.45,276.9v-13.33c0,0,0.14,0,0.28-0.14c0.28-0.14,0.42-0.28,0.7-0.28c0.56-0.14,0.98-0.28,1.26-0.28
		c0.28,0,0.84,0.14,1.54,0.28c0.84,0.14,1.82,0.28,3.09,0.28c0.84,0,1.96,0,3.37-0.28c0.14,4.49,0.14,8,0,10.38
		c0,0.7,0,1.54-0.14,2.52c0,0.56,0,0.84,0,0.84c-0.14,0.14-0.28,0.28-0.42,0.42c-0.14,0.14-0.42,0.14-0.7,0.14l-5.19-0.56
		c-1.26-0.14-1.96-0.14-2.52-0.14C356.16,276.62,355.73,276.76,355.45,276.9z M355.45,277.32c0.56-0.42,1.26-0.56,2.1-0.42
		c0.84,0.14,1.68,0.14,2.38,0.28c0.7,0.14,1.68,0.28,2.67,0.42c1.12,0.14,1.96,0.28,2.38,0.28c0.56,0,0.84-0.14,0.98-0.28
		s0.14-0.42,0.14-0.7c0-2.52,0.14-4.77,0-6.87c0-1.26,0-2.52,0-4.07s0-2.52,0-2.95c0.42,0.14,0.7,0.42,0.98,0.7
		c0.14,0.28,0.42,0.42,0.56,0.84c0,2.1,0,4.21,0,6.03c0,2.67-0.14,5.19-0.14,7.57c0,0.56-0.28,0.7-0.98,0.84
		c-0.84,0-2.1,0-3.79-0.28c-0.56,0-1.12-0.14-1.82-0.28s-1.12-0.28-1.4-0.28c-1.54-0.28-2.38-0.42-2.52-0.42
		c-0.56,0-1.12,0-1.4,0.28v-0.7H355.45z M368.08,268.48l0.14-1.26c0.14,0,0.28,0,0.42,0c0.28,0,0.42,0,0.56-0.28
		c0.14-0.14,0.28-0.28,0.28-0.56s0-0.42-0.28-0.56c-0.14-0.14-0.28-0.28-0.56-0.28c-0.14,0-0.28,0-0.28,0v-0.42h6.59l-0.42,3.09
		h-6.45V268.48z M373.41,272.41h-5.47l0.14-3.23h6.17 M368.78,274.24c-0.14-0.14-0.28-0.28-0.56-0.28c-0.14,0-0.28,0-0.42,0.14
		v-1.12h5.33c-0.28,1.12-0.7,2.1-1.12,3.23h-4.35v-0.7c0.14,0,0.28,0,0.42,0c0.28,0,0.42,0,0.56-0.28c0.14-0.14,0.28-0.28,0.28-0.56
		C369.06,274.52,369.06,274.38,368.78,274.24z M353.35,225.7c-0.14-0.14-0.28-0.14-0.28-0.14h-0.14l0,0l0.14-0.14
		c0.42-0.14,0.7-0.14,0.98,0.14c0.14,0.14,0.42,0.28,0.7,0.7c-0.28,0.28-0.56,0.28-0.84,0.42c-0.14,0-0.28,0-0.28-0.14
		C353.49,225.98,353.49,225.84,353.35,225.7z M349.42,233.7c-2.67,0-5.05-0.28-7.01-0.7c-1.12-0.28-2.1-0.7-2.95-1.4
		c-0.7-0.56-1.26-1.12-1.4-1.54c-0.14-0.42-0.14-0.7,0-0.84c0.14-0.14,0.42,0,0.7,0.42c1.12,1.26,2.67,1.96,4.63,2.1
		c2.81,0.28,4.77,0.7,5.89,1.4c0.14,0.14,0.28,0.14,0.28,0.28C349.7,233.7,349.7,233.7,349.42,233.7z M348.58,235.38
		c0-0.14,0.14-0.28,0.14-0.28c0,0.14,0.14,0.28,0.28,0.28H348.58z M375.09,261.75l-0.14,2.95h-6.73c-0.14-0.42-0.42-0.84-0.7-1.26
		c-0.28-0.42-0.7-0.7-1.12-0.84c0,0-0.28,0-0.56,0c-1.68,0.28-2.81,0.42-2.95,0.42c-0.28,0-0.7,0-1.26,0
		c-0.56,0-1.26-0.14-1.82-0.28c-0.7-0.14-1.12-0.28-1.26-0.28c-0.7,0-1.26,0-1.96,0.28c-0.28,0.14-0.56,0.28-0.7,0.28
		c-0.28,0.14-0.42,0.14-0.7,0.14c-0.14,0-0.28,0-0.42-0.14c-0.14-0.14-0.42-0.28-0.56-0.28c-0.56-0.28-1.54-0.28-2.95,0
		c-1.26,0.28-2.24,0.28-2.95,0.28c-0.56,0-1.26-0.14-1.96-0.28c-1.54-0.28-2.52-0.28-2.67-0.14c-1.12,0.84-1.68,1.54-1.82,1.96
		h-5.33c-0.14-0.28-0.28-0.56-0.42-0.84c-0.14-0.14-0.14-0.28-0.28-0.42c-0.28-0.42-0.7-0.7-1.12-0.84c0,0-0.28,0-0.56,0
		c-1.68,0.28-2.67,0.28-2.95,0.28c-0.14,0-0.56,0-1.12,0c-0.7,0-1.4,0-2.1-0.28c-0.7-0.14-1.12-0.28-1.26-0.28
		c-0.7,0-1.4,0-1.96,0.28c-0.28,0.14-0.56,0.28-0.7,0.28c-0.28,0.14-0.42,0.14-0.7,0.14c-0.14,0-0.28,0-0.42-0.14
		c-0.14-0.14-0.42-0.28-0.56-0.28c-0.56-0.28-1.54-0.28-2.81-0.14c-1.26,0.14-2.38,0.28-3.23,0.28c-0.42,0-0.98,0-1.68-0.14
		c-1.68-0.28-2.52-0.42-2.81-0.28c-1.12,0.84-1.68,1.54-1.68,2.1h-6.87c0-0.7-0.14-1.26-0.14-1.54c0-0.56,0-0.98,0-1.4h71.96V261.75
		z M326.14,288.26v3.09h-9.54c-0.14-0.14-0.28-0.28-0.42-0.42l-1.54-1.54l0,0c-0.28-0.28-0.56-0.7-0.84-0.98h12.34V288.26z
		 M325.16,286.02c0.14,0.14,0.28,0.28,0.56,0.28c0.14,0,0.28,0,0.28,0l0,0v1.4h-13.05l-2.38-3.23H326v0.28l0,0l0,0
		c-0.14,0-0.28,0-0.28-0.14c-0.28,0-0.42,0.14-0.56,0.28c-0.14,0.14-0.28,0.28-0.28,0.56C325.01,285.74,325.16,285.88,325.16,286.02
		z M325.16,294.29c0.14,0.14,0.28,0.28,0.56,0.28c0.14,0,0.28,0,0.28-0.14h0.14v0.7h-5.33l-3.51-3.09h8.98v0.98h-0.14
		c-0.14,0-0.28,0-0.28,0c-0.28,0-0.42,0-0.56,0.28c-0.14,0.14-0.28,0.28-0.28,0.56C325.01,294.01,325.16,294.15,325.16,294.29z
		 M328.52,295.98c0,0,0-0.14,0-0.42v-13.47c1.4,0.28,2.52,0.28,3.37,0.28c0.14,0,0.56-0.14,1.12-0.28s1.12-0.28,1.68-0.28
		c0.56,0,1.12,0,1.82,0c0.28,0,0.7,0.14,1.26,0.28c0.56,0.14,0.98,0.28,1.12,0.42v13.33c-0.28-0.14-0.7-0.28-1.26-0.28
		c-0.42,0-1.26,0-2.38,0.14c-1.12,0.14-2.24,0.28-3.09,0.42c-0.84,0.14-1.68,0.14-2.38,0.28c-0.7,0-0.98,0-1.12-0.14
		C328.52,296.26,328.52,296.12,328.52,295.98z M326.84,296.82c0-0.28,0-0.7,0-0.98c-0.14-3.51-0.14-7.57,0-12.2
		c0.28-0.7,0.84-1.26,1.54-1.54c0,1.54-0.14,3.93-0.14,7.01c0,2.67,0,5.05,0,7.01c0,0.28,0,0.42,0.14,0.7
		c0.14,0.14,0.56,0.28,1.12,0.28c0.56,0,1.54,0,2.67-0.28c0.56,0,1.4-0.28,2.67-0.42c0.98-0.14,1.68-0.28,2.24-0.28
		c0.7,0,1.4,0,1.96,0.28v0.56c-0.28-0.28-0.84-0.42-1.26-0.28c-0.56,0.14-1.4,0.28-2.67,0.56c-1.26,0.28-2.52,0.56-3.65,0.84
		c-1.12,0.28-2.24,0.28-3.09,0.28c-0.28,0-0.56,0-0.7,0s-0.28,0-0.42-0.14c-0.14-0.14-0.14-0.42-0.14-0.7
		C326.84,297.1,326.84,296.96,326.84,296.82z M351.81,282.51c-0.28-0.28-0.56-0.56-0.84-0.7l-0.28-0.14c0,0-0.28,0-0.56,0
		l-1.12,0.14c-1.12,0.14-1.68,0.28-1.82,0.28s-0.56,0-1.12,0c-0.7,0-1.12,0-1.54-0.14c-0.42,0-0.7-0.14-0.84-0.14s-0.42,0-0.84,0
		c-0.42,0-0.84,0-1.26,0c-0.42,0-0.7,0.14-0.84,0.14c-0.28,0-0.42,0.14-0.7,0.14c-0.14,0-0.42,0.14-0.56,0.14c-0.28,0-0.42,0-0.42,0
		c-0.14-0.14-0.56-0.14-1.4-0.28s-1.26-0.28-1.54-0.28c-0.98,0-1.54,0-1.54,0c-0.56,0.14-1.12,0.14-1.68,0.14
		c-0.98,0.14-1.68,0.14-2.1,0c-0.28,0-0.7-0.14-0.98-0.28c-0.28,0-0.7-0.14-1.12-0.14s-0.7,0.14-0.98,0.28
		c-0.28,0.28-0.56,0.56-0.84,0.98c-0.28,0.28-0.42,0.7-0.42,0.98h-15.71l-1.82-3.09h61.3c-0.56,0.98-1.26,2.1-1.82,3.09h-15.57
		C352.37,283.35,352.09,282.79,351.81,282.51z M339.6,282.65c0,0,0.14,0,0.56-0.14c0.42-0.14,0.7-0.14,0.84-0.28
		c0.42,0,0.7-0.14,1.12-0.14c0.14,0,0.28,0,0.7,0c0.28,0,0.7,0,0.98,0.14c1.26,0.14,2.24,0.28,2.95,0.28c0.42,0,1.54-0.14,3.37-0.28
		c0,1.96,0,4.91,0,8.56c0,3.51-0.14,5.19-0.14,5.19s0,0.14-0.14,0.28c0,0.14-0.14,0.14-0.28,0.28c-0.14,0-0.28,0-0.7,0
		c-1.82,0-3.65-0.28-5.33-0.56c-1.26-0.14-2.1-0.28-2.38-0.28c-0.42,0-0.84,0.14-1.26,0.28L339.6,282.65z M339.6,296.4
		c0.28-0.14,0.56-0.28,0.98-0.28c0.28,0,0.7,0,1.12,0c0.84,0.14,1.68,0.14,2.38,0.28c0.7,0.14,1.68,0.28,2.67,0.42
		c0.84,0.14,1.68,0.14,2.38,0.14c0.42,0,0.84-0.14,0.98-0.28c0.14-0.14,0.14-0.42,0.14-0.7c0-2.52,0.14-4.77,0-6.87
		c0-1.26,0-2.67,0-4.07c0-1.54,0-2.52,0-2.95c0.42,0.14,0.7,0.42,0.98,0.7c0.28,0.28,0.42,0.56,0.56,0.84c0,1.96,0,3.93,0,6.03
		c0,2.67-0.14,5.05-0.14,7.57c0,0.7-0.42,0.98-1.12,0.98c-0.7,0-1.68-0.14-2.67-0.28c-0.98-0.14-1.96-0.28-2.81-0.42
		c-0.7-0.14-1.12-0.14-1.4-0.28c-1.54-0.28-2.38-0.42-2.52-0.42c-0.7,0-1.12,0-1.4,0.28v-0.7H339.6z M375.79,268.91
		c0-0.14,0-0.28,0-0.42c0.42-2.24,0.56-4.49,0.56-6.59v-17.11c2.24,1.82,4.21,4.49,5.89,7.72c1.68,3.37,2.67,6.31,3.09,9.12
		c0.42,2.81,0.28,5.61,0,8.42c-0.42,2.81-1.12,5.47-2.24,7.86c-1.12,2.38-2.67,4.77-4.63,7.15c-1.96,2.38-4.35,4.35-6.87,5.75
		c-2.52,1.54-4.63,2.52-6.45,2.95c-1.68,0.42-3.23,0.84-4.77,0.98c1.54-1.4,3.09-2.95,4.63-4.63c3.65-4.07,6.45-8.7,8.56-13.61
		c0.7-1.54,1.26-3.23,1.68-4.77C375.37,270.87,375.51,269.89,375.79,268.91z M380.84,225.14c-1.82-0.56-3.23-0.98-4.49-0.98v-4.35
		C378.32,221.77,379.86,223.6,380.84,225.14z M383.37,229.35l-2.38,1.4c-1.4-0.56-2.95-1.12-4.63-1.54v-2.24
		C379.16,227.8,381.55,228.65,383.37,229.35z M376.36,242.67v-12.06c1.26,0.14,2.52,0.56,3.65,0.98
		C379.44,234.82,378.18,238.47,376.36,242.67z M379.86,242.95l-2.38,0.14c1.54-3.79,2.67-7.57,3.65-11.5l2.24-1.26
		C382.67,234.54,381.55,238.75,379.86,242.95z M386.45,250.95c-1.4-2.95-3.23-5.47-5.33-7.72c1.96-4.77,3.23-9.54,3.93-14.45
		c-1.68-0.98-3.37-1.54-5.05-1.96c-1.68-0.42-2.81-0.7-3.65-0.84v-0.7c2.81,0.42,5.33,1.26,7.43,2.24c-1.96-3.37-4.49-6.59-7.43-9.4
		c-1.4-1.4-2.95-2.81-4.63-4.07c-5.05-3.93-10.94-7.01-17.39-8.98c5.75,3.09,10.52,7.43,14.31,13.05h-1.4
		c-0.14-0.14-0.28-0.42-0.42-0.56c-0.14-0.28-0.28-0.56-0.56-0.84c-0.14-0.28-0.42-0.56-0.56-0.84c-0.14-0.28-0.42-0.56-0.7-0.98
		c-0.28-0.28-0.56-0.7-0.84-0.98c-0.28-0.28-0.7-0.7-0.98-1.12c-0.42-0.56-0.98-0.98-1.54-1.4c-2.1-1.96-4.63-3.65-7.29-5.05
		c-2.38-1.26-4.91-2.1-7.57-2.67c-1.26-0.28-2.52-0.42-3.37-0.56c-1.12-0.14-2.38-0.14-3.79-0.14s-2.81,0.14-4.35,0.28
		c-1.54,0.14-2.95,0.42-4.07,0.7c-2.52,0.7-4.91,1.54-7.29,2.95c-5.33,2.95-9.4,6.73-12.2,11.36h-1.54
		c3.79-5.61,8.56-9.96,14.31-13.05c-6.45,2.1-12.2,5.05-17.39,8.98c-5.05,3.79-8.98,8.28-12.06,13.47c2.1-0.98,4.63-1.68,7.57-2.24
		v0.56c-0.7,0.14-1.82,0.42-3.51,0.84c-1.68,0.42-3.23,1.12-5.05,1.96c0.7,4.77,1.96,9.54,3.93,14.45
		c-2.24,2.24-3.93,4.77-5.33,7.72c-1.26,2.81-2.24,5.61-2.95,8.7c-0.7,3.09-0.84,6.17-0.42,9.26c0.28,3.23,1.12,6.31,2.24,9.4
		c1.26,3.09,2.81,5.89,4.63,8.42c1.96,2.52,4.21,4.77,7.01,6.59c2.81,1.96,6.03,3.37,9.54,4.49c3.51,1.12,7.43,1.54,11.5,1.4
		c0.28,0.14,0.56,0.28,0.7,0.42h-0.14c-6.87,0.84-13.33-0.42-19.5-3.79c9.4,7.86,20.2,12.06,32.4,12.62
		c-1.96-1.12-4.07-3.09-6.31-5.61c0.56,0.14,1.12,0.28,1.68,0.56h0.14c1.54,2.1,3.51,3.79,6.03,5.33c0.14,0,0.28,0.14,0.42,0.14
		c0.14,0,0.28-0.14,0.42-0.14c2.52-1.26,4.49-3.09,6.03-5.19c0.56-0.14,1.12-0.28,1.68-0.56c-2.38,2.81-4.49,4.63-6.31,5.75
		c12.2-0.56,23-4.63,32.4-12.62c-6.31,3.37-12.91,4.63-19.5,3.93c0.28-0.14,0.42-0.28,0.7-0.42c4.21,0.14,8.14-0.42,11.78-1.4
		c3.51-1.12,6.73-2.52,9.54-4.49c2.81-1.96,5.19-4.07,7.01-6.59c1.96-2.52,3.51-5.33,4.63-8.42c1.26-3.09,1.96-6.17,2.24-9.4
		c0.28-3.23,0.14-6.31-0.42-9.26C388.84,256.7,387.86,253.76,386.45,250.95z M394.31,238.19l0.28,0.28
		C394.59,238.33,394.45,238.19,394.31,238.19z M391.22,258.1c-1.96-6.59-4.63-11.5-7.72-14.73c1.26-3.65,2.1-6.87,2.67-9.54
		C389.82,241.13,391.5,249.27,391.22,258.1z M391.36,246.18c-0.42-2.81-1.26-5.61-2.24-8.56c-0.84-2.38-1.96-4.77-3.51-7.43
		c-0.28,1.96-0.7,4.07-1.4,6.45c-0.56,1.82-1.26,4.07-2.1,6.59c2.81,3.51,4.91,7.01,6.45,10.66c1.54,3.79,2.38,7.72,2.52,11.78
		c0.84-3.37,1.12-6.87,1.12-10.38C392.21,252.63,391.93,249.55,391.36,246.18z M346.62,284.48c0.84,0,1.4,0.14,1.4,0.56
		c0,0.28,0,0.42-0.14,0.56s-0.28,0.28-0.7,0.28c-0.28,0.14-0.42,0-0.56-0.14V284.48z M344.93,288.4v0.28l1.54-0.14v-1.96
		c0.14,0,0.14-0.14,0.28,0l0.28,0.14c0,0,0.14,0.28,0.42,0.84c0.14,0.14,0.14,0.28,0.28,0.56c0.14,0.14,0.14,0.28,0.28,0.28
		c0.14,0.14,0.28,0.14,0.28,0.28c0.42,0,0.84,0,1.26,0c-0.42-0.28-0.7-0.56-0.98-1.12c-0.14-0.28-0.14-0.56-0.28-0.7
		c-0.14-0.28-0.28-0.42-0.28-0.7c0.42-0.42,0.56-0.84,0.7-1.26c0-0.42,0-0.7-0.28-0.98c-0.56-0.56-1.82-0.56-3.65-0.28v0.28
		c0.42,0,0.56,0.28,0.56,0.7v3.09C345.49,288.12,345.35,288.26,344.93,288.4z M360.64,269.33l0.28,0.42l1.54-0.14v-0.28
		c0-0.14,0.14-0.28,0.14-0.28h-0.28c-0.14,0-0.28-0.14-0.28-0.28v-3.37c0-0.28,0.14-0.42,0.42-0.56v-0.28h-1.82v0.42
		c0.14,0,0.28,0.14,0.42,0.42v3.51C361.21,269.19,360.92,269.33,360.64,269.33z M344.65,269.47l0.28,0.42l1.54-0.14v-0.28l0.14-0.28
		h-0.28c-0.14,0-0.28-0.14-0.28-0.28v-3.37c0-0.28,0.14-0.42,0.42-0.56v-0.28h-1.82v0.42c0.14,0,0.28,0.14,0.42,0.42v3.37
		C345.21,269.19,344.93,269.47,344.65,269.47z M359.66,272.69h-0.84l0.42,0.7l-0.28,0.7h0.7l0.42,0.7l0.42-0.7h0.7l-0.42-0.7
		l0.42-0.7h-0.7l-0.42-0.84L359.66,272.69z M351.53,265.12c-0.28,0.28-0.28,0.7-0.28,0.98c0,0.42,0.28,0.7,0.84,0.98
		c0.56,0.28,0.98,0.56,1.12,0.84c0.14,0.28,0.28,0.7,0,0.84c-0.42,0.28-0.84,0.28-1.26,0v-0.42l-0.42-0.28l-0.42,1.68l0.98,0.14
		v-0.14c1.26,0.28,2.1,0,2.24-0.7c0.14-0.56,0.14-0.98,0-1.26c0-0.28-0.14-0.42-0.42-0.56c-0.14-0.14-0.28-0.14-0.7-0.28
		c-0.28-0.14-0.7-0.14-0.84-0.28c-0.14-0.14-0.28-0.28-0.28-0.56c0-0.28,0-0.42,0.14-0.56c0.14-0.14,0.28-0.28,0.42-0.28
		c0.14,0,0.42,0,0.7,0.28l-0.14,0.42h0.56l0.28-1.26h-0.56l-0.14,0.14c-0.42-0.14-0.84-0.14-1.12-0.14
		C351.95,264.56,351.67,264.84,351.53,265.12z M348.58,271.01c0-0.28,0-0.42,0-0.56h-4.07c0,0.14,0,0.28,0,0.56
		c0,0.28,0,0.42,0,0.56h0.42c0-0.14,0.14-0.28,0.28-0.42l0.14-0.14v-0.14h0.28c0.14,0,0.28,0,0.42,0.14v4.07
		c0,0.42-0.28,0.56-0.7,0.7v0.14h2.1c0-0.14,0-0.14,0-0.28s0-0.28,0-0.28c-0.28-0.14-0.42-0.14-0.56-0.42v-3.79c0.42,0,0.7,0,0.84,0
		c0.28,0,0.28,0.28,0.28,0.56h0.42C348.58,271.57,348.58,271.29,348.58,271.01z M347.32,265.26l1.4,4.35l0.84,0.14l0.14-0.14
		l-0.42-0.42l1.68-4.07c0.14-0.14,0.28-0.28,0.28-0.28c0.14-0.14,0.28-0.14,0.42-0.14v-0.28h-1.54l0.28,0.28l-1.26,3.09l-0.98-3.23
		h-1.54v0.42C347.04,264.84,347.18,264.98,347.32,265.26z M357,264.98c0,0,0.14,0,0.28,0s0.28,0,0.28,0.14v4.07
		c0,0.42-0.28,0.56-0.7,0.7v0.14h2.1c0-0.14,0-0.14,0-0.28c0-0.14,0-0.28,0-0.28c-0.28-0.14-0.42-0.28-0.56-0.42v-3.79
		c0.42,0,0.7,0,0.98,0c0.28,0.14,0.28,0.28,0.28,0.56h0.42c0-0.14,0-0.42,0-0.7c0-0.28,0-0.42,0-0.56h-4.35c0,0.14,0,0.28,0,0.56
		c0,0.28,0,0.42,0,0.7h0.42c0-0.14,0.14-0.42,0.28-0.56C356.86,265.12,357,265.12,357,264.98z M330.35,269.47l0.28,0.42l1.54-0.14
		v-0.28l0.14-0.28h-0.28c-0.14,0-0.28-0.14-0.28-0.28v-3.37c0-0.28,0.14-0.42,0.42-0.56v-0.28h-1.82v0.42
		c0.14,0,0.28,0.14,0.42,0.42v3.51C330.91,269.33,330.77,269.47,330.35,269.47z M329.08,288.82l0.14,0.28l3.09-0.14l0.56-1.82
		c-0.42,0.7-0.98,1.26-1.26,1.4c-0.14,0-0.42,0-0.56,0l-0.42-0.42v-3.65c0-0.28,0.14-0.42,0.42-0.56l0.14-0.42l-1.96,0.28l0.14,0.42
		c0.14,0,0.14,0,0.28,0.14l-0.14,3.65C329.5,288.4,329.36,288.68,329.08,288.82z M333.15,284.62v3.37c0,0.28-0.14,0.56-0.56,0.56
		l0.28,0.42l1.54-0.14v-0.28l0.14-0.28h-0.28c-0.14,0-0.28-0.14-0.28-0.28v-3.37c0-0.28,0.14-0.42,0.42-0.56v-0.28h-1.82v0.42
		C332.87,284.2,333.01,284.34,333.15,284.62z M335.96,284.62h0.98c0.28,0.14,0.42,0.28,0.56,0.42c0,0.14,0,0.28,0,0.42
		c-0.14,0.28-0.56,0.42-1.26,0.42C336.1,285.88,335.96,285.46,335.96,284.62z M337.92,287.14c0.14,0.42,0,0.84-0.42,0.98
		c-0.56,0.28-0.98,0.28-1.26-0.14v-1.4C336.66,286.44,337.36,286.72,337.92,287.14z M337.78,288.82c0.28-0.14,0.56-0.28,0.7-0.56
		c0.14-0.28,0.28-0.56,0.28-0.84c0-0.28,0-0.56-0.28-0.84c-0.14-0.28-0.42-0.42-0.7-0.56c0.98-0.98,0.98-1.68-0.14-2.38l-2.67,0.14
		c0.14,0.14,0.14,0.28,0,0.42h0.14c0.14,0,0.28,0.14,0.28,0.28l-0.14,3.37c0,0.28-0.14,0.56-0.42,0.7l0.14,0.14h2.81V288.82z
		 M325.58,274.8v-0.42l-0.42-0.28l-0.42,1.68l1.12,0.14v-0.28c1.54,0.28,2.38,0,2.67-0.7c0.14-0.56,0.14-0.98,0-1.26
		c0-0.28-0.28-0.42-0.42-0.56c-0.14-0.14-0.42-0.14-0.84-0.28c-0.42-0.14-0.7-0.14-0.98-0.28c-0.28-0.14-0.28-0.28-0.42-0.56
		c0-0.28,0-0.42,0.14-0.56c0.14-0.14,0.28-0.28,0.56-0.28c0.28,0,0.42,0.14,0.7,0.28l-0.14,0.42h0.7l0.42-1.26h-0.7l-0.14,0.14
		c-0.56-0.14-0.98-0.14-1.26-0.14c-0.28,0-0.56,0.14-0.84,0.42c-0.28,0.28-0.28,0.56-0.28,0.98c0,0.42,0.42,0.7,0.98,0.98
		c0.7,0.28,1.12,0.56,1.26,0.84c0.28,0.28,0.28,0.7,0.14,0.84C326.7,275.22,326.14,275.22,325.58,274.8z M330.06,273.67l-0.28,0.7
		h0.7l0.42,0.7l0.42-0.7h0.84l-0.42-0.7l0.42-0.7h-0.84l-0.42-0.7l-0.42,0.7h-0.84L330.06,273.67z M326.7,265.26
		c0.84,0,1.26,0.14,1.4,0.56c0,0.28,0,0.42-0.14,0.56c-0.14,0.14-0.28,0.14-0.7,0.28c-0.28,0.14-0.42,0-0.56-0.14V265.26z
		 M325.01,269.33v0.28l1.54-0.14v-1.96c0,0,0.14-0.14,0.28,0l0.28,0.14c0,0,0.14,0.28,0.42,0.84c0.14,0.14,0.14,0.28,0.28,0.42
		c0.14,0.14,0.14,0.28,0.28,0.28c0.14,0.14,0.28,0.28,0.28,0.28c0.42,0,0.84,0.14,1.26,0c-0.42-0.28-0.7-0.56-0.84-1.12
		c-0.14-0.28-0.14-0.56-0.28-0.7c-0.14-0.28-0.28-0.42-0.28-0.7c0.42-0.42,0.56-0.84,0.7-1.26c0-0.42,0-0.7-0.28-0.84
		c-0.56-0.56-1.82-0.56-3.65-0.28v0.28c0.42,0,0.56,0.28,0.56,0.7v3.09C325.58,268.91,325.44,269.19,325.01,269.33z M336.8,291.63
		c0,0.14,0,0.28-0.14,0.28s-0.42,0-0.7,0c-0.14,0-0.14-0.14-0.28-0.28c0-0.42,0.14-0.98,0.28-1.4c0.28-0.14,0.56-0.14,0.7,0.14
		C336.8,290.93,336.94,291.21,336.8,291.63z M338.06,294.01c-0.28-0.98-0.56-1.96-0.7-3.23c0-0.42,0.28-0.7,0.7-0.7l0.28-0.56
		l-4.35,0.14c0,0.14,0,0.28,0.14,0.42c0.14,0,0.28,0.14,0.42,0.14s0.28,0,0.28,0.14c0,0.14,0,0.28,0,0.42l-0.84,3.23
		c0,0.42-0.28,0.56-0.56,0.7l0.14,0.28h1.4l0.42-1.54c0.14-0.7,0.7-0.98,1.68-0.7l0.7,2.52l0.98-0.14l0.14-0.42
		C338.34,294.58,338.06,294.44,338.06,294.01z M350.4,275.08L350.4,275.08 M350.26,275.08c-0.14,0.28-0.28,0.42-0.56,0.56l0,0
		 M339.04,296.96v-0.56 M339.74,306.22v-1.82 M338.9,307.76v-0.98 M339.74,307.76v-0.98 M338.76,306.36v-1.82 M320.81,295.28
		l-3.51-3.09 M339.6,282.65v13.33 M313.23,287.56l-2.38-3.23 M400.62,238.04c-0.14-0.14-0.28-0.28-0.42-0.28s-1.4,0-3.79-0.14
		c-1.26-0.14-2.38-0.14-3.51-0.28c-0.28-0.28-0.7-0.42-0.98-0.7c-0.28,0-0.28,0-0.42,0.28c0,0.42,0.14,0.84,0.28,1.26l0,0l0.14,0.14
		c0.14,0.28,0.28,0.7,0.42,0.98c0.14,0.14,0.28,0.14,0.28,0c0.14-0.14,0.14-0.28,0.14-0.56l0,0c0-0.14,0-0.28,0-0.28l0.14-0.28h0.14
		c0.28-0.14,0.56-0.14,1.12,0l0.28,0.28c0.28,0.7,0.56,1.68,0.84,2.81c-0.28,0.42-0.7,0.7-1.26,0.84c-0.14,0-0.28,0-0.28-0.14
		c-0.14-0.28-0.28-0.28-0.28-0.42c-0.28-0.14-0.42-0.14-0.56,0.28c0.14,0.98,0.42,1.96,0.98,2.81c0.14,0.14,0.28,0.14,0.28,0.14
		c0.14,0,0.14-0.14,0.28-0.28c0-0.14,0-0.28,0-0.42c0-0.14,0.14-0.42,0.28-0.56c0.84-0.7,1.96-1.68,3.51-2.95
		c1.54-1.26,2.24-1.96,2.38-2.1C400.76,238.33,400.76,238.19,400.62,238.04z M398.66,238.75l-2.38,1.96l-0.7-2.38l3.09,0.28V238.75z
		 M376.92,205.64v-0.14l-0.28-0.42c-0.14-0.28,0-0.42,0.42-0.28c0.42,0.28,0.7,0.42,0.98,0.7c0.28,0.28,0.7,0.56,0.98,0.84
		c0.14,0.14,0.14,0.28,0,0.42c0,0-0.14,0.14-0.28,0.14c-0.14,0-0.28,0-0.56,0c-0.14,0-0.28,0-0.28,0.14
		c-1.12,1.26-2.24,2.95-3.65,4.77c0,0.14-0.14,0.28-0.14,0.28v0.28c0.14,0.28,0.28,0.42,0.14,0.56c-0.14,0.14-0.28,0.14-0.56,0
		c-0.7-0.42-1.4-0.98-1.96-1.54c0-0.14,0-0.28,0-0.28c0-0.14,0.14-0.14,0.28-0.14h0.42c0.14,0,0.28,0,0.28-0.14
		c1.26-1.4,2.52-3.09,3.65-4.77L376.92,205.64 M372.85,201.99L372.85,201.99l-0.14,0.28c0,0-0.14,0-0.42,0c-0.14,0-0.28,0-0.28,0
		c-0.98,1.26-2.1,2.95-3.09,5.05c-0.14,0.14-0.14,0.28,0,0.56c0,0.14,0.56,0.56,1.54,0.98c0.28,0,0.56,0,0.7,0l0.98-0.56
		c0.28-0.14,0.42,0,0.42,0.42c-0.42,0.7-0.84,1.26-1.54,1.68c-0.14,0-0.28,0-0.42-0.14c-0.14-0.14-0.28-0.28-0.42-0.42l-3.79-2.38
		c-0.14-0.14-0.28-0.28-0.14-0.42c0.14-0.14,0.28-0.28,0.56-0.14c0.14,0,0.28,0,0.28,0l0.28-0.14c0.98-1.54,1.96-3.09,2.81-4.63
		c0.14-0.14,0.14-0.28,0.28-0.42c0.14-0.14,0-0.42-0.28-0.7v-0.28l0.28-0.14c0.98,0.42,1.68,0.84,2.24,1.4L372.85,201.99
		 M394.59,224.44L394.59,224.44c-0.7-1.26-1.54-2.52-2.38-3.79c-0.42-0.28-0.56-0.14-0.56,0.42v0.28c0,0.14,0,0.28-0.14,0.28
		c-1.12,0.84-2.24,1.54-3.51,2.24c-0.56,0.28-0.98,0.56-1.54,0.84c-0.14,0-0.28,0.14-0.42,0l-0.42-0.28l-0.28,0.14v0.28
		c0,0.42,0.28,0.84,0.56,1.26c0.28,0.42,0.56,0.84,0.98,1.12c0.14,0,0.28-0.14,0.42-0.28v-0.56c0-0.14,0-0.28,0.14-0.28
		c0.28-0.14,0.56-0.28,0.84-0.56c0.42-0.28,0.84-0.56,1.12-0.7c0.14-0.14,0.28-0.14,0.42,0c0.42,0.7,0.7,1.26,0.56,1.68
		c0,0.28-0.28,0.7-0.84,1.26c-0.28,0.42-0.56,0.56-0.56,0.7c-0.28,0.28-0.42,0.56-0.56,0.7c-0.14,0.42-0.14,0.84,0,1.12
		s0.42,0.7,0.84,0.84c0.28,0,0.42,0,0.42-0.14v-0.28c-0.28-0.14-0.28-0.42-0.14-0.7c0.14-0.28,0.42-0.7,0.84-0.98
		c0.28-0.28,0.42-0.42,0.42-0.56c0.14-0.28,0.28-0.42,0.28-0.7c0-0.14,0.14-0.42,0-0.56c0-0.14-0.14-0.28-0.14-0.42l0.14-0.14
		c0.42,0.42,0.98,0.56,1.54,0.56c0.42,0,0.84-0.14,1.26-0.42c0.28-0.14,0.42-0.42,0.56-0.56c0-0.14,0.14-0.28,0.14-0.42
		C394.87,225.42,394.87,224.86,394.59,224.44z M393.61,224.86c-0.14,0.28-0.28,0.56-0.56,0.84c-0.28,0.28-0.56,0.28-0.98,0.28
		c-0.42,0-0.7-0.28-1.12-0.56c-0.28-0.42-0.56-0.84-0.84-1.26l2.24-1.26c0.28-0.28,0.7,0.14,1.12,0.98
		C393.75,224.16,393.75,224.58,393.61,224.86z M386.6,214.34c0-0.56,0.28-0.56,0.7-0.28l3.23,3.79c0.42,0.28,0.56,0.42,0.42,0.56
		c-0.28,0.42-0.56,0.84-0.98,1.26c-0.28,0-0.42,0-0.42-0.14c0-0.14,0-0.28,0.14-0.7c0.14-0.28,0.14-0.56,0-0.84l-1.26-1.54
		l-0.14-0.14c-0.14-0.14-0.42-0.14-0.56,0.14c-0.42,0.28-0.98,0.7-1.54,1.12c-0.14,0.14-0.14,0.28,0,0.42l0.84,0.98
		c0.14,0.28,0.28,0.28,0.56,0.28c0.14,0,0.28-0.14,0.56-0.28l0.28-0.14h0.14l0.14,0.14v0.28c-0.14,0.14-0.28,0.28-0.28,0.42
		c-0.56,0.7-1.26,1.12-2.24,1.54l-0.14-0.14v-0.28l0.42-0.7c0.14-0.14,0.14-0.42,0-0.56l-0.98-1.12c-0.14,0-0.28,0-0.42,0.14
		l-1.68,1.54c-0.14,0.14-0.14,0.28-0.14,0.56c0.42,0.7,0.98,1.26,1.54,1.82c0.14,0.28,0.56,0.28,0.84,0.28l0.7-0.14h0.28
		c0.28,0,0.14,0.28-0.14,0.56c-0.56,0.42-1.12,0.7-1.68,0.84c-0.14,0-0.28,0-0.42-0.14c0-0.14,0-0.28-0.14-0.42
		c-1.26-1.4-2.1-2.52-2.67-3.23c-0.42-0.42-0.56-0.84-0.7-0.98c-0.14-0.28,0-0.42,0.28-0.42c0.14,0,0.28,0,0.42,0.14
		c0.14,0,0.14,0,0.28,0c0.84-0.42,2.38-1.68,4.77-3.79c0.14-0.14,0.14-0.28,0.14-0.28L386.6,214.34 M384.49,211.39
		c0-0.28-0.14-0.42-0.14-0.56c-0.14-0.14-0.28-0.28-0.42-0.42l-3.23-2.95c-0.56,0-0.7,0.14-0.42,0.7c0.14,0.14,0.14,0.42,0,0.56
		c-1.4,1.68-2.81,3.23-3.93,4.35c-0.14,0.14-0.42,0.14-0.7,0.14c-0.28-0.14-0.42-0.14-0.56,0c0,0.42,0.28,0.7,0.7,0.98l2.38,2.24
		c0.42,0.42,0.84,0.7,1.4,0.84c0.56,0.14,0.98,0,1.54-0.14c0.42-0.14,0.84-0.56,0.98-0.98c0.28-0.42,0.28-0.98,0-1.54
		c-0.14-0.28-0.28-0.56-0.42-0.84l-0.28-0.42l0.56,0.14c0.42,0.14,0.84,0.14,0.98,0.14c0.42,0,0.7-0.14,0.98-0.42
		c0.28-0.28,0.42-0.42,0.56-0.84C384.49,212.09,384.49,211.81,384.49,211.39z M380,215.74c-0.28,0.28-0.84,0.28-1.68-0.14
		l-0.84-0.84c-0.28-0.28-0.28-0.56,0-0.84l1.68-1.68c0.7,0.42,1.26,0.98,1.54,1.68C381.12,214.48,380.84,215.18,380,215.74z
		 M382.39,212.52c-0.42,0.28-0.7,0.28-1.12,0.14c-0.56-0.14-1.12-0.56-1.54-1.26c0.56-0.56,1.12-1.26,1.68-1.68
		c0.14-0.14,0.28-0.14,0.56,0c0.7,0.56,0.98,0.98,1.12,1.54C383.23,211.53,382.95,212.09,382.39,212.52z M395.15,245.06h0.14
		c0.28,0,0.56-0.14,0.84-0.14c0.28,0.14,0.28,0.42,0.14,0.7l-0.7,0.7c-0.28,0.28-0.56,0.7-0.56,0.98c-0.14,0.7,0,1.26,0.28,1.68
		c0.56,0.42,0.98,0.7,1.26,0.42c0.28-0.14,0.42-0.28,0.56-0.56s0.28-0.56,0.42-0.84l0.7-2.1c0.14-0.56,0.42-0.98,0.84-1.12
		c0.7-0.42,1.4-0.42,2.1-0.14c0.98,0.56,1.4,1.26,1.4,2.52c0,0.7,0,1.12,0,1.26c0.28,0.28,0.28,0.56,0,0.7
		c-0.28,0.14-0.7,0.42-1.54,0.7c-0.28,0-0.42,0-0.42-0.28c0-0.14,0.14-0.42,0.42-0.7c0.28-0.28,0.56-0.7,0.56-0.98
		c0.14-1.12-0.14-1.68-0.7-1.96c-0.84-0.28-1.4,0.28-1.82,1.54l-0.42,1.68c-0.28,0.84-0.7,1.26-1.4,1.54
		c-0.84,0.28-1.54,0.14-1.96-0.28c-0.42-0.28-0.7-0.7-0.98-1.26c-0.28-0.7-0.42-1.68-0.28-2.67c0-0.56,0.28-0.98,0.42-1.12
		C394.73,245.2,394.87,245.06,395.15,245.06 M396.84,228.09l0.14,0.28c0.56,1.26,0.84,2.24,0.98,2.67c0.42,0.98,0.84,1.82,1.12,2.52
		c0,0.14,0.14,0.28,0.14,0.28l-0.14,0.28c-0.56,0.42-1.12,0.7-1.54,0.84c-0.14,0-0.28-0.14-0.28-0.28c0.14-0.14,0.28-0.42,0.56-0.7
		c0.14-0.28,0.28-0.42,0.28-0.56c0-0.42,0-0.84-0.28-1.12c-0.14-0.14-0.28-0.28-0.56-0.14c-0.7,0.28-1.54,0.56-2.24,0.84
		c-0.28,0.14-0.56,0.28-0.84,0.28c-0.84,0.42-1.68,0.84-2.67,1.12v0.7l-0.14,0.14h-0.14c-0.28-0.28-0.56-0.56-0.7-1.12
		c-0.28-0.42-0.42-0.98-0.42-1.4c0-0.28,0.14-0.42,0.42-0.28l0.42,0.28c0.14,0,0.28,0,0.42,0l5.47-2.24
		c0.14-0.14,0.28-0.28,0.14-0.42c-0.14-0.28-0.14-0.56-0.28-0.84c-0.28-0.28-0.7-0.42-1.26-0.42c-0.42-0.14-0.56-0.28-0.42-0.56
		c0.42-0.28,1.12-0.56,1.82-0.56C396.69,227.95,396.69,227.95,396.84,228.09 M289.81,215.74c0.14-0.14,0.14-0.28,0.28-0.28
		s0.14,0,0.28,0c0.7,0.28,1.12,0.56,1.54,0.98 M289.81,215.74c-0.42,0.7-0.98,1.4-1.68,2.24c-0.28,0.42-0.84,1.12-1.82,2.24
		l-0.14,0.14l0.14,0.28c0.42,0.56,0.98,0.98,1.4,1.26c0.28,0,0.42-0.28,0.28-0.7c-0.28-0.42-0.42-0.84-0.28-1.26
		c0.14-0.28,0.28-0.42,0.42-0.7c0.14-0.14,0.28-0.14,0.42,0l4.77,3.51l0.14,0.28v0.56c0,0.28,0.14,0.28,0.42,0.14
		c0.7-0.56,1.26-1.4,1.54-2.38c0-0.14-0.14-0.28-0.28-0.14l-0.7,0.28c-1.68-1.12-3.37-2.38-4.91-3.65
		c-0.28-0.14-0.28-0.28-0.14-0.56c0.28-0.42,0.56-0.7,0.84-0.84c0.14,0,0.28,0,0.7,0c0.42,0.14,0.7,0.14,0.84,0.14
		c0.14-0.14,0.14-0.28,0.14-0.42 M300.19,205.64c-0.98,0.56-1.54,1.4-1.54,2.52c0,0.84,0.42,1.4,1.12,1.82
		c0.42,0.28,0.84,0.28,1.4,0.14l2.1-0.42c0.28,0,0.56,0,0.84,0c0.28,0,0.56,0.14,0.7,0.28c0.28,0.28,0.42,0.7,0.14,1.4
		c-0.28,0.56-0.7,0.84-1.26,0.98c-0.28,0.14-0.7,0.14-1.12-0.14l-0.98-0.28c-0.28-0.14-0.42,0-0.56,0.42
		c0.28,0.7,0.7,0.98,1.26,1.26c0.28,0.14,0.7,0,1.12-0.14c0.98-0.42,1.68-0.98,2.24-1.54c0.42-0.42,0.7-0.98,0.7-1.54
		c0.14-0.7-0.14-1.26-0.7-1.82c-0.56-0.56-1.26-0.7-1.96-0.56l-1.68,0.42c-1.26,0.28-2.1,0-2.24-0.84c0-0.7,0.42-1.26,1.4-1.68
		c0.28,0,0.7,0,1.12,0c0.42,0.14,0.7,0.14,0.7,0c0.14-0.14,0.14-0.28,0-0.56c-0.56-0.56-1.12-0.84-1.4-0.98
		c-0.28-0.14-0.56,0-0.7,0.42C301.17,204.94,300.75,205.22,300.19,205.64 M285.32,222.19l-1.26,2.24c0,0.42,0.14,0.56,0.42,0.42
		l0.42-0.28h0.28c1.82,0.84,3.51,1.96,5.19,3.09c0.14,0,0.14,0.14,0.14,0.28v0.42c0,0.14,0,0.28,0.14,0.28h0.28
		c0.56-0.7,0.98-1.4,1.26-2.1c0-0.28,0-0.42-0.14-0.56c-0.14-0.14-0.28,0-0.56,0.28l-0.28,0.14c0,0-0.14,0-0.28-0.14
		c-1.96-0.98-3.65-2.1-5.19-2.95c-0.14-0.14-0.28-0.42-0.14-0.84C285.88,222.05,285.6,221.91,285.32,222.19 M280.69,235.38
		c-0.56-0.14-0.98-0.28-1.54-0.14c-0.14,0-0.28,0.28-0.28,0.7l-1.4,4.77c0,0.56,0.14,0.7,0.56,0.42l0.28-0.28
		c0-0.14,0.14-0.14,0.28-0.14c2.95,0.84,4.91,1.4,5.75,1.82c0.14,0,0.14,0.14,0.14,0.28c0,0.14,0,0.28,0.14,0.42
		c0.14,0.28,0.28,0.28,0.42,0c0.14-0.14,0.28-0.42,0.42-0.98c0.28-0.98,0.7-2.24,1.12-4.07c0-0.14,0.14-0.28,0.28-0.42
		c0.14-0.14,0.14-0.28,0-0.42c-0.42-0.42-0.98-0.7-1.54-0.98c-0.56-0.14-0.7,0-0.56,0.28l0.14,0.28l0.56,0.56
		c0.28,0.28,0.42,0.56,0.28,0.84c-0.14,0.7-0.42,1.54-0.7,2.24c-0.14,0.14-0.28,0.14-0.42,0.14l-2.1-0.56
		c-0.28-0.14-0.28-0.28-0.28-0.28l0.42-1.54c0.14-0.28,0.28-0.28,0.56-0.28h0.84l0.28-0.14v-0.14c-0.98-0.56-1.96-0.98-3.09-0.98
		l-0.14,0.14v0.28c0,0.14,0.14,0.14,0.42,0.28c0.28,0.14,0.42,0.28,0.56,0.28c0.14,0.14,0.14,0.42,0,0.56l-0.42,1.26
		c0,0.14-0.14,0.28-0.42,0.14c-0.7-0.14-1.26-0.42-1.82-0.7c-0.28-0.14-0.42-0.28-0.42-0.7l0.56-1.96c0.28-0.28,0.42-0.42,0.7-0.56
		c0.28,0,0.42-0.14,0.56-0.28C280.97,235.66,280.97,235.52,280.69,235.38 M290.65,229.35c0-0.14-0.14-0.28-0.28-0.28
		s-0.28,0-0.28,0.14c0,0.28-0.28,0.42-0.56,0.56c-0.28,0-0.7,0-1.4-0.14c-0.28,0-0.56-0.14-0.7-0.14c-0.28,0-0.42,0-0.7,0.14
		c-0.28,0-0.42,0.14-0.42,0.28c-0.14,0.14-0.14,0.28-0.28,0.42s-0.14,0.14-0.14,0c0-0.56,0-1.12-0.28-1.54
		c-0.28-0.42-0.56-0.7-0.98-0.84c-0.42-0.14-0.84-0.14-1.26,0s-0.84,0.42-1.12,0.98c-0.7,1.26-1.26,2.67-1.96,4.07
		c0,0.42,0.28,0.56,0.56,0.28l0.14-0.14c0.14-0.14,0.28-0.14,0.42,0c1.82,0.7,3.65,1.54,5.33,2.67c0.14,0,0.28,0.14,0.28,0.28v0.56
		l0.28,0.14h0.28c0.28-0.28,0.56-0.7,0.7-1.12c0.14-0.42,0.28-0.98,0.42-1.4c-0.14-0.14-0.28-0.28-0.42-0.14l-0.42,0.28
		c-0.14,0.14-0.28,0.14-0.42,0c-0.7-0.28-1.4-0.56-2.1-0.98c-0.14,0-0.28-0.14-0.14-0.42c0.28-0.7,0.7-1.26,1.12-1.4
		c0.28-0.14,0.84-0.14,1.54,0c0.56,0,0.84,0.14,0.84,0.14c0.28,0,0.7,0,0.84,0c0.42-0.14,0.7-0.28,0.98-0.7
		C290.51,230.19,290.65,229.77,290.65,229.35z M284.9,231.03c-0.14,0.42-0.42,0.98-0.7,1.4l-2.24-1.12c-0.42-0.14-0.28-0.7,0.28-1.4
		c0.28-0.28,0.56-0.56,0.84-0.56c0.28-0.14,0.7-0.14,0.98,0c0.28,0.14,0.56,0.28,0.7,0.7C284.9,230.19,284.9,230.61,284.9,231.03z
		 M302.29,214.06c-0.14-0.14-0.28-0.14-0.42,0c-0.14,0.14-0.28,0.14-0.28,0.14c-0.14,0-0.42,0-0.56,0
		c-0.98-0.42-2.52-0.98-4.35-1.68c-1.82-0.7-2.81-1.12-2.95-0.98c-0.14,0-0.28,0.14-0.42,0.28c-0.14,0.14-0.14,0.28,0,0.42
		c0.14,0.14,0.7,1.26,1.68,3.51c0.42,1.12,0.98,2.24,1.4,3.23c0,0.42-0.14,0.84-0.14,1.12s0.14,0.28,0.42,0.14
		c0.28-0.28,0.7-0.56,0.98-0.84l0,0l0.14-0.14c0.28-0.28,0.42-0.56,0.7-0.84c0-0.14,0-0.28-0.14-0.28s-0.28,0-0.56,0l0,0
		c-0.14,0-0.28,0.14-0.42,0.14h-0.28h-0.14c-0.28-0.14-0.42-0.42-0.56-0.98c0-0.14,0-0.28,0.14-0.42c0.56-0.7,1.26-1.4,1.96-1.96
		c0.56,0.14,0.98,0.28,1.4,0.7v0.28c-0.14,0.28-0.14,0.42-0.28,0.42c0,0.28,0.14,0.42,0.42,0.28c0.84-0.7,1.54-1.26,2.1-2.1
		C302.43,214.34,302.43,214.2,302.29,214.06z M295.98,216.16l-1.26-2.81l0.14-0.14l2.81,1.26L295.98,216.16z M284.62,248.14
		c0.28-0.14,0.28-0.28,0-0.42c-2.95-1.82-5.05-3.09-6.59-4.07c-0.28-0.14-0.28-0.42-0.42-0.7c-0.14-0.42-0.42-0.56-0.7-0.14
		c-0.14,0.7-0.28,1.4-0.28,2.1c0,0.28,0.14,0.42,0.28,0.42s0.28,0,0.42-0.28c0.14-0.28,0.28-0.28,0.28-0.42c0.14,0,0.28,0,0.56,0
		h0.14c1.4,0.7,2.67,1.4,3.79,2.24l0.14,0.14l-0.14,0.14c-1.82,0.56-3.37,0.98-4.91,1.12c-0.14,0-0.28-0.14-0.28-0.28
		c0,0,0-0.14,0-0.28c0-0.28-0.14-0.28-0.28-0.28c-0.14,0-0.28,0.14-0.42,0.28c-0.14,0.28-0.14,0.7-0.28,1.26c0,0.28,0,0.7-0.14,1.26
		c0,0.28,0.14,0.28,0.28,0.28c0.14,0,0.28-0.14,0.28-0.28c0.14-0.28,0.42-0.42,0.7-0.56C279.85,249.41,282.37,248.85,284.62,248.14
		 M276.2,262.59c0,0.14,0.14,0.28,0.42,0.28c3.23-0.14,5.33-0.42,6.31-0.84l0.14-0.14v-0.28c0.14-0.28,0.28-0.42,0.7-0.14
		c0.14,0.56,0.42,2.24,0.7,5.19c0.14,0.42,0.28,0.7,0.28,0.84c-0.42,0.42-0.98,0.56-1.68,0.56l0,0c-0.28-0.14-0.42-0.28-0.28-0.56
		l0.28-0.14c0.28-0.28,0.42-0.56,0.56-0.98c0-0.7-0.14-1.4-0.28-2.1c0-0.28-0.14-0.42-0.28-0.56h-0.14l-2.38,0.28l0.28,1.82
		c0.14,0.28,0.28,0.28,0.42,0.28c0.42,0,0.84,0,0.98,0.14s0,0.28-0.14,0.42c-0.28,0.14-0.7,0.28-1.26,0.28
		c-0.7,0.14-1.26,0.14-1.82,0c-0.28,0-0.28-0.14-0.14-0.42l0.7-0.42c0.28-0.14,0.42-0.28,0.42-0.42l-0.14-1.54
		c0-0.14-0.14-0.28-0.28-0.14l-2.67,0.42c-0.14,0-0.28,0.14-0.28,0.28c-0.14,0.56-0.28,0.7-0.7,0.42c-0.14-0.42-0.28-1.26-0.42-2.67
		C275.5,262.17,275.78,262.17,276.2,262.59 M286.16,274.38c-0.28,0.42-0.56,0.7-0.98,0.84c-0.42,0.14-0.84,0.14-1.4,0
		c-0.28-0.14-0.56-0.14-0.7-0.42c-0.28-0.14-0.42-0.42-0.56-0.7c-0.14-0.14-0.14,0-0.14,0c0,0.14,0,0.28,0,0.42
		c0,0.14-0.14,0.28-0.14,0.42c-0.14,0.28-0.28,0.42-0.42,0.56c-0.14,0.14-0.28,0.28-0.7,0.42c-0.56,0.28-0.98,0.56-1.12,0.84
		c-0.14,0.28-0.28,0.42,0,0.7c0.14,0.14,0,0.28-0.14,0.28c-0.14,0.14-0.28,0.14-0.42,0c-0.28-0.28-0.56-0.7-0.56-1.12
		s0-0.84,0.28-1.12c0.14-0.14,0.42-0.42,0.7-0.56c0,0,0.28-0.28,0.7-0.56c0.56-0.42,0.98-0.7,1.12-1.12
		c0.14-0.42,0.14-0.98-0.14-1.82c-0.14-0.14-0.28-0.28-0.42-0.14c-0.7,0.28-1.54,0.42-2.24,0.7c-0.14,0-0.28,0.14-0.28,0.28v0.56
		c-0.14,0.14-0.28,0.14-0.42,0.14c-0.28-0.42-0.56-0.84-0.7-1.4c-0.14-0.42-0.28-0.98-0.14-1.4l0.14-0.14h0.28l0.28,0.42
		c0.14,0.14,0.28,0.14,0.42,0.14c1.68-0.28,3.23-0.7,4.77-1.26c0.42-0.14,0.7-0.28,1.12-0.42c0.14,0,0.28-0.14,0.28-0.28v-0.28
		c0.14-0.42,0.28-0.56,0.7-0.28c0.56,1.54,0.98,2.95,1.26,4.35C286.44,273.39,286.3,273.96,286.16,274.38z M285.46,271.99
		c-0.14-0.98-0.42-1.4-0.84-1.26l-2.52,0.7c0,0.56,0.28,1.12,0.42,1.54c0.14,0.28,0.28,0.42,0.56,0.56
		c0.14,0.14,0.28,0.14,0.42,0.28c0.42,0.14,0.7,0.14,0.98,0c0.28-0.14,0.56-0.42,0.7-0.7C285.32,272.69,285.46,272.41,285.46,271.99
		z M286.44,276.34l-0.14,0.28c-1.26,0.7-2.38,1.12-3.23,1.54c-1.12,0.56-1.96,0.84-2.52,0.98c-0.14,0-0.28,0-0.28,0
		c-0.14-0.14-0.28-0.28-0.42-0.28c-0.28,0-0.42,0-0.42,0.28c0,0.14,0.14,0.56,0.42,1.12c0.42,0.98,0.98,2.24,1.82,3.93
		c0,0.14,0.14,0.28,0,0.42c0,0.14,0.14,0.28,0.28,0.28c0.28,0,0.7,0,0.98,0c0.28,0,0.56-0.14,0.98-0.28
		c0.42-0.28,0.56-0.42,0.28-0.56h-0.28h-0.7h-0.14c-0.28,0-0.56-0.14-0.7-0.42c-0.42-0.7-0.7-1.4-0.98-2.24c0-0.14,0-0.28,0.28-0.42
		l1.96-1.12c0.28,0,0.42,0,0.42,0l0.7,1.4c0.14,0.28,0,0.42-0.14,0.56l-0.7,0.56v0.28l0.14,0.14c0.98-0.14,1.82-0.56,2.67-0.98
		c0.14-0.14,0.28-0.28,0.42-0.28l0.14-0.28l-0.14-0.14H287c0,0-0.14,0-0.28,0c-0.28,0.14-0.56,0.14-0.56,0.14
		c-0.28,0-0.42-0.14-0.42-0.42l-0.56-1.26c-0.14-0.14,0-0.28,0.14-0.42c0.7-0.28,1.26-0.56,1.82-0.7c0.28-0.14,0.42,0,0.7,0.14
		l0.14,0.14l0.84,1.96c0,0.42,0,0.7-0.14,0.84c-0.14,0.28-0.28,0.42-0.28,0.56c0,0.14,0.14,0.28,0.42,0.28
		c0.56-0.28,0.98-0.56,1.26-0.98c0.14-0.14,0-0.42-0.28-0.7l-2.1-4.63c-0.42-0.42-0.7-0.42-0.7,0L286.44,276.34 M289.95,283.35v0.28
		l-0.14,0.14c-1.96,1.26-3.65,2.38-5.19,3.23c-0.28,0.14-0.56,0-0.84-0.14c-0.28-0.14-0.42,0-0.42,0.42l1.4,2.24
		c0.28,0.14,0.56,0.14,0.56-0.28l-0.14-0.56c0-0.14,0-0.28,0.14-0.28c1.68-1.26,3.51-2.24,5.33-3.23c0.14,0,0.28,0,0.28,0l0.42,0.28
		c0.14,0,0.28,0.14,0.42,0c0.14,0,0.14-0.14,0.14-0.28c-0.28-0.84-0.84-1.54-1.26-2.24c-0.28-0.14-0.42-0.28-0.56-0.14
		C289.81,282.79,289.81,282.93,289.95,283.35 M293.03,286.72c-0.42-0.42-0.7-0.28-0.7,0.14v0.42c0,0.14,0,0.28-0.14,0.28
		c-2.38,1.96-4.07,3.23-4.91,3.65c-0.14,0.14-0.28,0.14-0.28,0c-0.14-0.14-0.28-0.14-0.42-0.14c-0.28,0-0.42,0.14-0.28,0.42
		c0,0.14,0.28,0.42,0.7,0.98c0.56,0.84,1.54,1.96,2.67,3.37c0.14,0.14,0.14,0.28,0.14,0.42c0,0.14,0.14,0.28,0.28,0.14
		c0.56,0,1.12-0.28,1.68-0.84c0.42-0.28,0.42-0.56,0.14-0.7h-0.28l-0.84,0.14c-0.42,0-0.7,0-0.98-0.28
		c-0.56-0.56-0.98-1.26-1.4-1.96c0-0.14,0-0.28,0.14-0.56l1.68-1.54c0.28-0.14,0.42-0.14,0.42,0l0.98,1.26
		c0.14,0.28,0.14,0.42,0,0.56l-0.56,0.7v0.28l0.14,0.14c0.98-0.42,1.68-0.98,2.38-1.54c0.14-0.14,0.28-0.28,0.28-0.42v-0.28
		l-0.28-0.14h-0.14l-0.28,0.14c-0.28,0.14-0.42,0.28-0.56,0.28s-0.42-0.14-0.56-0.28l-0.84-0.98c-0.14-0.14-0.14-0.28,0.14-0.42
		c0.56-0.42,1.12-0.84,1.54-1.12c0.14-0.14,0.42-0.14,0.56,0l0.14,0.14l1.26,1.68c0.14,0.42,0.14,0.7,0,0.98
		c-0.14,0.28-0.14,0.42-0.14,0.7c0,0.14,0.14,0.28,0.42,0.14c0.42-0.28,0.84-0.7,0.98-1.26c0-0.14-0.14-0.42-0.42-0.56
		L293.03,286.72 M394.87,260.77c0.28-0.28,0.56-0.28,0.7,0.14c0,0.28,0,0.42,0.28,0.56c2.38,0.42,4.77,0.84,7.15,1.12l0.14,0.14
		c0,0,0,0.14,0,0.28c0,0.28-0.84,0.84-2.52,1.96c-0.98,0.7-2.67,1.68-4.91,2.95l5.19,0.7c0.42-0.14,0.7-0.28,0.7-0.42
		c0.28-0.42,0.56-0.28,0.7,0.28c0,0.56,0,1.12-0.14,1.68c-0.14,0.28-0.28,0.42-0.42,0.42s-0.28-0.14-0.28-0.28
		c0-0.14-0.14-0.28-0.14-0.28l-0.14-0.14c-2.1-0.42-4.07-0.7-6.17-0.84c-0.14,0-0.28,0-0.28,0.28c-0.28,0.42-0.56,0.42-0.84,0
		c0-0.56,0-1.12,0.14-1.68c2.52-1.4,4.77-2.67,6.73-4.07c-1.54-0.42-3.23-0.56-4.77-0.7c-0.14,0-0.28,0-0.42,0.14l-0.28,0.42
		c-0.42,0-0.56,0-0.56-0.28C394.45,262.17,394.59,261.47,394.87,260.77 M393.33,269.75c-0.42,0.84-0.56,1.68-0.7,2.52
		c0,0.28,0.14,0.42,0.28,0.42s0.28,0,0.56-0.42l0.28-0.14c0,0,0.14,0,0.28,0c2.24,0.42,4.35,0.98,6.03,1.54
		c0.14,0,0.14,0.14,0.28,0.28c0.14,0.28,0.14,0.42,0.14,0.56s0.14,0.28,0.28,0.28c0.14,0,0.28,0,0.42-0.28
		c0.14-0.42,0.28-0.84,0.42-1.4c0.14-0.42,0.14-0.84,0.28-1.26c-0.14-0.42-0.28-0.56-0.56-0.28l-0.28,0.42l-0.14,0.14h-0.14
		c-2.1-0.42-4.07-0.98-6.03-1.68l-0.28-0.28l-0.14-0.42c0-0.14-0.14-0.28-0.28-0.28L393.33,269.75 M391.22,275.64
		c-0.42,0.7-0.84,1.54-0.98,2.67l0.14,0.28h0.28c0.28-0.42,0.56-0.56,0.7-0.42c0.14,0,0.42,0.14,0.56,0.14
		c1.82,0.56,3.65,1.26,5.33,2.1l0.28,0.14c0,0,0,0.14,0,0.28c0,0.28,0.14,0.56,0.28,0.56c0.14,0,0.28,0,0.42-0.28l1.68-4.35
		c0-0.14,0.14-0.42,0.28-0.56c0.14-0.14,0.28-0.28,0.14-0.42c-0.56-0.56-1.12-0.98-1.96-1.26c-0.28,0-0.42,0.14-0.28,0.42l0.7,0.98
		c0.14,0.28,0.14,0.56,0.14,0.84c-0.42,1.12-0.7,1.68-0.84,1.68c-0.28,0.14-0.42,0.14-0.56,0.14c-2.24-0.7-4.21-1.54-5.75-2.38
		c-0.14,0-0.14-0.14-0.14-0.28c0-0.28,0-0.28,0-0.42 M384.07,290.09l1.26-1.68c0.28-0.28,0.7-0.28,0.84-0.28c0.28,0,0.56,0,0.7,0
		c0.14-0.14,0.14-0.28,0-0.42c-0.42-0.42-0.98-0.56-1.54-0.7c-0.14,0-0.28,0.14-0.42,0.56l-3.23,4.21c-0.28,0.56-0.14,0.84,0.42,0.7
		l0.28-0.14c0.14-0.14,0.28-0.14,0.42,0c2.67,1.82,4.35,3.23,4.91,3.93c0.14,0.14,0.14,0.28,0.14,0.28c-0.14,0.14-0.14,0.28,0,0.42
		c0.14,0.28,0.28,0.28,0.42,0.14s0.42-0.42,0.84-0.84c0.7-0.84,1.54-1.96,2.67-3.51c0.14-0.14,0.28-0.28,0.42-0.28
		c0.14-0.14,0.14-0.28,0.14-0.42c-0.14-0.56-0.56-1.12-1.26-1.54c-0.42-0.28-0.7-0.28-0.7,0l0.14,0.28l0.28,0.7
		c0.14,0.42,0.14,0.7,0,0.98c-0.42,0.7-0.98,1.26-1.54,1.96c-0.14,0.14-0.28,0.14-0.56,0l-1.96-1.26c-0.14-0.14-0.28-0.28-0.14-0.42
		l0.98-1.26c0.14-0.14,0.42-0.28,0.56-0.14l0.84,0.28h0.28v-0.14c-0.7-0.84-1.4-1.4-2.1-1.82c-0.14-0.14-0.28-0.14-0.42-0.28h-0.28
		c-0.14,0-0.14,0.14-0.14,0.28v0.14l0.28,0.28c0.28,0.28,0.28,0.42,0.42,0.56c0,0.14,0,0.42-0.14,0.56l-0.84,1.12
		c-0.14,0.14-0.28,0.14-0.42,0c-0.56-0.42-1.12-0.84-1.4-1.26c-0.28-0.14-0.28-0.42-0.28-0.56L384.07,290.09 M397.26,282.93
		c0,0.42-0.14,0.84-0.28,1.12c-0.28,0.28-0.56,0.56-0.98,0.56c-0.28,0-0.56,0-0.84,0c0,0-0.28,0-0.84-0.14
		c-0.7-0.14-1.26-0.14-1.54,0c-0.42,0.14-0.84,0.7-1.26,1.4c0,0.14,0,0.28,0.14,0.42c0.42,0.28,0.84,0.42,1.26,0.7
		c0.28,0.14,0.56,0.28,0.84,0.42c0.14,0.14,0.28,0,0.42,0l0.42-0.28c0.14,0,0.28,0,0.42,0.28c-0.14,0.56-0.28,0.98-0.42,1.4
		c-0.28,0.42-0.56,0.84-0.84,1.12h-0.28l-0.28-0.14v-0.56c0-0.14-0.14-0.28-0.28-0.28c-0.56-0.28-0.98-0.7-1.54-0.98
		c-1.26-0.7-2.38-1.4-3.79-1.96c-0.14-0.14-0.28-0.14-0.42,0l-0.28,0.14c-0.42,0.28-0.56,0.14-0.56-0.28c0.7-1.4,1.4-2.81,2.1-3.93
		l0,0c0.28-0.42,0.7-0.7,1.26-0.84c0.14,0,0.28-0.14,0.42-0.14c0.28,0,0.56,0,0.84,0.14c0.42,0.14,0.7,0.56,0.98,0.98
		c0.28,0.42,0.28,0.98,0.28,1.68c0,0.14,0,0.14,0.14,0s0.14-0.28,0.28-0.42c0.14-0.14,0.28-0.14,0.42-0.14c0.28,0,0.42-0.14,0.7,0
		c0.14,0,0.42,0,0.7,0.14c0.56,0.28,1.12,0.28,1.4,0.28c0.28,0,0.42-0.14,0.56-0.42c0-0.14,0.14-0.28,0.28-0.14
		C396.98,282.51,397.12,282.65,397.26,282.93z M391.22,283.07c-0.14-0.42-0.42-0.56-0.7-0.7c-0.28-0.14-0.7-0.14-0.98,0
		c-0.42,0.14-0.7,0.28-0.84,0.56c-0.56,0.84-0.7,1.26-0.28,1.4l2.24,1.26c0.28-0.42,0.56-0.98,0.7-1.4
		C391.36,283.77,391.36,283.35,391.22,283.07z M386.31,298.78c0,0.14,0,0.28,0,0.42c-0.14,0.56-0.42,0.98-0.98,1.4l-2.52,2.24
		c-0.42,0.56-0.7,0.7-1.12,0.7c-0.14,0-0.14-0.28,0-0.56c0.14-0.28,0.14-0.56-0.14-0.7c-1.12-1.26-2.52-2.81-4.35-4.35
		c-0.14-0.14-0.42-0.14-0.56,0c-0.14,0-0.28,0.14-0.42,0.14c-0.14,0-0.28-0.14-0.28-0.42v-0.14l3.37-3.23
		c0.14-0.14,0.28-0.28,0.56-0.42c0.14,0,0.28-0.14,0.56-0.14c0.14,0,0.28,0,0.56,0c0.14,0,0.42,0,0.56,0.14
		c0.28,0.14,0.56,0.28,0.84,0.56c0.28,0.28,0.28,0.7,0.42,0.98c0,0.28,0,0.56-0.28,1.12l-0.28,0.56l0.42-0.28
		c0.28-0.14,0.7-0.28,0.98-0.42c0.56-0.14,1.12-0.14,1.54,0.14c0.42,0.28,0.7,0.7,0.98,1.12
		C386.17,297.94,386.31,298.36,386.31,298.78z M381.55,297.1c0.14-0.42,0.14-0.84,0-1.12c-0.42-0.7-0.98-0.98-1.4-0.84
		c-0.42,0-0.98,0.42-1.68,1.12c-0.14,0.28-0.14,0.42,0,0.56c0.56,0.7,1.12,1.26,1.68,1.82C380.84,298.22,381.26,297.66,381.55,297.1
		z M384.63,298.5c-0.56-0.98-1.12-1.26-1.96-0.84c-0.7,0.28-1.26,0.7-1.82,1.54l1.68,1.82c0.28,0.28,0.56,0.28,0.84,0l0.98-0.84
		C384.91,299.48,384.91,298.92,384.63,298.5z M341.01,319.26c0-0.14-0.14-0.28-0.28-0.14c-0.28,0-0.56,0-0.7-0.28
		c-0.14-0.28-0.28-0.7-0.42-1.4c-0.14-0.28-0.14-0.56-0.28-0.7c-0.14-0.28-0.28-0.42-0.42-0.7c-0.14-0.14-0.28-0.28-0.42-0.28
		s-0.28-0.14-0.42-0.14s-0.14-0.14,0-0.14c0.28-0.14,0.56-0.28,0.84-0.42c0.28-0.14,0.42-0.42,0.56-0.56
		c0.28-0.42,0.42-0.84,0.42-1.26s-0.14-0.84-0.56-1.26c-0.28-0.42-0.84-0.7-1.4-0.7c-1.54-0.14-3.09-0.14-4.63-0.14
		c-0.42,0.28-0.42,0.42,0,0.7l0.28,0.14c0.14,0,0.14,0.14,0.14,0.42c0,0.42,0,0.7,0,1.12c0,1.68,0,3.37-0.28,4.91
		c0,0.14,0,0.28-0.14,0.42l-0.42,0.28c-0.14,0-0.14,0.14,0,0.28l0.14,0.14c0.42,0.14,0.84,0.28,1.4,0.28c0.56,0,0.98,0,1.54-0.14
		c0.14-0.14,0.14-0.28,0-0.42l-0.42-0.28c-0.14,0-0.28-0.14-0.28-0.28c0-0.84,0-1.68,0-2.38c0-0.28,0.14-0.28,0.28-0.28
		c0.84,0,1.4,0.14,1.82,0.42c0.28,0.14,0.42,0.7,0.7,1.4c0.14,0.56,0.28,0.84,0.28,0.84c0.14,0.28,0.28,0.56,0.28,0.84
		c0.28,0.42,0.56,0.56,0.98,0.7c0.42,0,0.84,0,1.26-0.28C341.01,319.68,341.01,319.54,341.01,319.26z M338.06,314.35
		c-0.14,0.14-0.28,0.28-0.42,0.42c-0.14,0.14-0.42,0.28-0.7,0.28c-0.56,0-0.98,0-1.54,0l0.14-2.67c0-0.42,0.42-0.56,1.4-0.42
		c0.42,0.14,0.7,0.28,0.98,0.56c0.28,0.28,0.42,0.56,0.42,0.98C338.34,313.79,338.2,314.07,338.06,314.35z M342.83,315.34
		c-0.56-0.28-0.98-0.56-1.12-0.98c-0.42-0.7-0.42-1.54,0-2.24c0.56-0.98,1.4-1.4,2.67-1.26c0.7,0,1.26,0,1.26,0
		c0.28-0.28,0.56-0.28,0.7,0c0.28,0.28,0.42,0.7,0.7,1.54c0,0.28-0.14,0.42-0.28,0.42s-0.42-0.14-0.7-0.42
		c-0.28-0.42-0.7-0.56-0.98-0.7c-1.12-0.28-1.82,0-2.1,0.7c-0.28,0.84,0.14,1.54,1.4,1.96l1.68,0.56c0.84,0.28,1.26,0.84,1.54,1.54
		c0.14,0.84,0,1.54-0.42,1.96c-0.28,0.42-0.7,0.7-1.4,0.98c-0.7,0.28-1.68,0.28-2.81,0.14c-0.56-0.14-0.98-0.28-1.12-0.56
		c-0.28-0.56-0.42-1.12-0.42-1.82c0.28-0.28,0.42-0.28,0.7,0l0.7,0.84c0.28,0.42,0.7,0.56,0.98,0.7c0.7,0.14,1.26,0.14,1.68-0.14
		c0.56-0.56,0.7-0.98,0.56-1.26c-0.14-0.28-0.28-0.42-0.56-0.7c-0.28-0.28-0.56-0.42-0.7-0.42L342.83,315.34 M347.88,310.99
		c0-0.14,0-0.28,0.28-0.42c0.84-0.28,1.68-0.42,2.52-0.42l0.28,0.28l-0.14,0.28l-0.28,0.28l-0.14,0.28c0.28,1.96,0.7,4.07,1.12,6.03
		l0.14,0.28l0.56,0.14c0.28,0.14,0.28,0.42,0,0.7l-2.52,0.56c-0.42,0-0.42-0.28-0.28-0.56c0.28-0.28,0.56-0.42,0.56-0.7
		c-0.28-1.68-0.7-3.79-1.26-6.03c0-0.14-0.14-0.28-0.14-0.28l-0.28-0.14C348.02,311.27,347.88,311.13,347.88,310.99 M354.33,310.15
		c-0.28,0-0.7,0.14-0.84,0.28c-0.42,0.28-0.56,0.7-0.56,1.26c-0.14,0.42-0.28,0.56-0.7,0.42c-0.28-0.56-0.42-1.26-0.28-1.96
		c0-0.14,0-0.28,0.14-0.28l0.28-0.14c1.4-0.28,2.38-0.56,2.81-0.7c0.98-0.28,1.96-0.56,2.81-0.84c0.14,0,0.28-0.14,0.28,0
		c0.14,0,0.14,0.14,0.28,0.28c0.42,0.56,0.7,1.26,0.7,1.68c0,0.14-0.14,0.28-0.42,0.28c-0.14-0.14-0.42-0.28-0.7-0.7
		c-0.14-0.28-0.28-0.42-0.42-0.42c-0.42,0-0.84,0-1.26,0.14c-0.14,0-0.28,0.28-0.14,0.56c0.14,0.84,0.42,1.54,0.7,2.38
		c0.14,0.28,0.14,0.56,0.28,0.84c0.28,0.98,0.56,1.96,0.84,2.81l0.7,0.14l0.14,0.14v0.14c-0.28,0.28-0.7,0.42-1.26,0.7
		c-0.56,0.14-0.98,0.28-1.54,0.28c-0.28-0.14-0.28-0.28-0.28-0.42l0.42-0.42c0-0.14,0.14-0.28,0-0.42l-1.68-5.89
		C354.61,310.15,354.47,310.01,354.33,310.15 M318.28,307.2c0.7,0.14,1.12,0.28,1.26,0.28c0.56,0.14,0.98,0.28,1.26,0.56
		c0.28,0.14,0.28,0.28,0.28,0.42c0,0.14-0.14,0.28-0.42,0.28c-0.28,0-0.28,0-0.28,0l-0.28,0.28c-0.14,1.54-0.14,3.23,0.14,5.19
		l0.14,0.14l0.28-0.14c1.12-0.98,2.1-2.1,3.09-3.37v-0.14c0.14-0.14,0.14-0.28,0.14-0.56c0-0.14-0.14-0.28-0.28-0.42
		c-0.14-0.14-0.28-0.28-0.14-0.42c0-0.14,0.14-0.14,0.42-0.14c0.7,0.14,1.4,0.42,2.1,0.7c0.28,0.28,0.28,0.56-0.28,0.7
		c-0.28,0-0.56,0-0.7,0.28c-1.26,1.26-3.09,3.23-5.47,5.89c-0.14,0.14-0.28,0.14-0.42-0.14c-0.28-2.38-0.42-5.05-0.42-7.86
		c0-0.28-0.14-0.56-0.42-0.84c-0.14-0.14-0.28-0.28-0.28-0.42C318,307.34,318.14,307.2,318.28,307.2 M317.72,307.2
		c0,0.14,0.14,0.28,0,0.28c0,0.14-0.14,0.14-0.28,0.14h-0.42c-0.14,0-0.28,0.14-0.28,0.28c-0.98,1.82-1.96,3.65-2.67,5.61v0.14
		l0.14,0.14l0.28,0.42c0.14,0.28,0,0.42-0.42,0.42c-0.42-0.14-0.84-0.28-1.12-0.42c-0.42-0.14-0.84-0.42-1.26-0.7
		c-0.14-0.14-0.14-0.28-0.14-0.42c0-0.14,0.14-0.14,0.28-0.14s0.28,0,0.56-0.14c0.14,0,0.28-0.14,0.28-0.14
		c0.84-1.54,1.68-3.51,2.67-5.61c0-0.14,0-0.28,0-0.28l-0.14-0.28c-0.28-0.28-0.42-0.42-0.28-0.56c0-0.14,0.28-0.14,0.56-0.14
		C316.18,306.36,317.02,306.64,317.72,307.2 M312.67,306.08c0.14-0.14,0.14-0.28,0-0.42l-0.28-0.42c0.14-0.28,0.28-0.42,0.42-0.28
		c0.7,0.28,1.26,0.56,1.82,1.12c0.14,0.42,0,0.56-0.28,0.56c-0.28-0.14-0.42-0.14-0.7,0c-1.26,1.96-2.52,4.07-3.79,6.17l-0.14,0.14
		c0,0-0.14,0-0.28-0.14c-0.14-0.14-0.42-1.12-0.84-3.09c-0.28-1.26-0.56-3.09-0.84-5.75l-2.67,4.63c-0.14,0.42,0,0.7,0.14,0.7
		c0.28,0.42,0,0.7-0.56,0.56c-0.56-0.14-0.98-0.42-1.4-0.84c-0.28-0.14-0.28-0.42-0.28-0.56c0-0.14,0.28-0.14,0.42-0.14
		c0.14,0,0.28,0,0.42,0l0.28-0.14c1.12-1.68,2.24-3.51,3.23-5.33c0-0.14,0-0.28-0.14-0.42c-0.28-0.56-0.28-0.7,0.28-0.7
		c0.56,0.14,1.12,0.42,1.54,0.84c0.28,2.81,0.7,5.33,1.26,7.72C311.13,308.88,311.97,307.48,312.67,306.08 M326.42,310.71
		c-0.28-0.42-0.14-0.56,0.42-0.7l5.05,0.98c0.42-0.14,0.7,0,0.7,0.14c0.14,0.56,0.14,1.12,0,1.68c-0.14,0.14-0.28,0.28-0.42,0.14
		c-0.14-0.14-0.28-0.28-0.28-0.56c0-0.28-0.28-0.42-0.56-0.7l-2.1-0.42h-0.28c-0.28,0-0.42,0.28-0.42,0.42
		c-0.14,0.56-0.28,1.12-0.42,1.82c0,0.28,0,0.28,0.28,0.42l1.26,0.28c0.28,0,0.42,0,0.56-0.14c0.14-0.14,0.14-0.28,0.28-0.56
		c0-0.14,0.14-0.28,0.14-0.28l0.14-0.14h0.28l0.14,0.14c0,0.14,0,0.42,0,0.56c0,0.84-0.28,1.82-0.7,2.67h-0.14l-0.14-0.14
		l-0.14-0.84c0-0.28-0.14-0.42-0.42-0.42l-1.54-0.28c-0.14,0-0.14,0.14-0.28,0.42l-0.28,2.24c0,0.28,0.14,0.42,0.28,0.42
		c0.84,0.28,1.68,0.42,2.38,0.42c0.28,0,0.56-0.14,0.84-0.28v-0.14l0.56-0.56l0.28-0.28c0.28-0.14,0.28,0,0.28,0.56
		c0,0.28-0.14,0.7-0.28,0.98c-0.14,0.28-0.28,0.56-0.56,0.84c-0.14,0.14-0.28,0.28-0.42,0.14c-0.14-0.14-0.28-0.14-0.42-0.28
		c-1.82-0.28-3.23-0.56-4.21-0.7c-0.56-0.14-0.98-0.28-1.12-0.28c-0.28-0.14-0.28-0.28,0-0.56c0.14-0.14,0.28-0.14,0.42-0.14
		c0.14,0,0.28-0.14,0.28-0.28c0.14-0.56,0.42-1.4,0.7-2.52c0.14-0.98,0.42-2.1,0.56-3.51c0-0.14,0-0.28-0.14-0.28L326.42,310.71
		 M302.85,297.66c0.14,0.28,0.14,0.56-0.28,0.56c-0.28-0.28-0.56-0.28-0.84,0c-0.84,0.7-1.54,1.54-2.24,2.24l-0.14,0.14
		c-0.42,0.56-0.84,1.12-1.26,1.68c-0.14,0.28-0.14,0.42-0.14,0.84c0.14,0.56,0.42,0.98,0.84,1.4c0.42,0.42,0.84,0.56,1.4,0.7
		c0.56,0,0.98-0.28,1.26-0.56h0.14l0,0c1.12-1.12,2.24-2.38,3.23-3.65c0.14-0.14,0.14-0.28,0.14-0.42c0-0.14-0.14-0.28-0.28-0.42
		c0-0.14,0-0.14,0-0.28s0.14-0.14,0.28-0.14c0.56,0.28,1.12,0.7,1.68,1.4c0.14,0.28,0,0.42-0.14,0.42h-0.14c0,0-0.14,0-0.42-0.14
		c-0.28-0.14-0.42,0-0.56,0.14l-2.95,3.37c-0.14,0.14-0.28,0.28-0.42,0.28l-0.14,0.14c-0.28,0.14-0.56,0.28-0.98,0.42
		c-0.28,0-0.56,0.14-0.7,0.14c-0.14,0-0.42,0-0.7-0.14c-0.42-0.14-0.7-0.28-0.98-0.56c-0.28-0.28-0.56-0.42-0.84-0.84
		c-0.42-0.56-0.7-1.12-0.84-1.68c0-0.84,0.14-1.54,0.56-1.96l3.09-3.65c0.14-0.14,0.14-0.28,0.14-0.42
		c-0.14-0.28-0.28-0.42-0.28-0.56c0.14-0.14,0.14-0.28,0.42-0.14C301.73,296.54,302.29,297.24,302.85,297.66 M371.45,302.99
		c-0.28-0.14-0.42-0.28-0.56-0.28c-0.42,0-0.7,0.14-1.12,0.42c-0.14,0.14-0.14,0.28,0,0.56c0.42,0.7,0.84,1.4,1.26,2.1
		c0.14,0.28,0.28,0.56,0.42,0.7c0.56,0.84,0.98,1.68,1.54,2.52h0.7l0.28,0.14v0.14c-0.14,0.28-0.56,0.56-0.98,0.98
		c-0.42,0.28-0.98,0.56-1.4,0.7c-0.28,0-0.42-0.14-0.28-0.42l0.28-0.56c0-0.14,0-0.28,0-0.42l-3.09-5.33
		c-0.14-0.14-0.28-0.14-0.42-0.14c-0.28,0.14-0.56,0.28-0.7,0.42c-0.28,0.28-0.42,0.84-0.28,1.4c0,0.42-0.14,0.7-0.56,0.56
		c-0.42-0.42-0.7-0.98-0.84-1.82c0-0.14,0-0.28,0-0.28l0.28-0.14c1.26-0.7,2.1-1.12,2.52-1.4c0.98-0.56,1.82-1.12,2.38-1.54
		c0.14-0.14,0.28-0.14,0.28-0.14c0.14,0,0.14,0,0.28,0.14c0.56,0.42,0.84,0.98,1.12,1.54c0,0.14-0.14,0.28-0.28,0.42
		C372.01,303.41,371.73,303.27,371.45,302.99 M363.17,305.94L363.17,305.94l0.98-0.42h0.14h0.14l0.56,0.98v0.14l0,0l-0.98,0.42
		h-0.14l0,0L363.17,305.94L363.17,305.94 M360.78,307.2l0.42,0.98l0,0l0,0l-0.98,0.42h-0.14l0,0l-0.42-0.98v-0.14l0,0l0.98-0.42
		L360.78,307.2L360.78,307.2 M369.34,311.69c0-0.14-0.14-0.28-0.28-0.28s-0.28,0-0.42,0c-0.14,0-0.42,0-0.56-0.14
		c-0.84-0.7-2.1-1.82-3.51-3.09c-1.54-1.4-2.38-1.96-2.52-2.1c-0.14,0-0.28,0-0.56,0.14c-0.14,0.14-0.28,0.28-0.14,0.42
		c0,0.14,0.14,1.4,0.28,3.93c0.14,1.26,0.14,2.38,0.28,3.65c-0.14,0.42-0.42,0.7-0.56,0.98c0,0.28,0.14,0.28,0.42,0.28
		c0.42-0.14,0.84-0.28,1.26-0.42l0,0l0.14-0.14c0.28-0.14,0.7-0.42,0.98-0.56c0-0.14,0-0.28,0-0.28c-0.14-0.14-0.28-0.14-0.56-0.14
		c-0.14,0-0.28,0-0.42,0l-0.28-0.14l0,0c-0.14-0.28-0.14-0.56-0.14-1.12c0-0.14,0-0.28,0.28-0.42c0.84-0.42,1.68-0.84,2.67-1.26
		c0.42,0.28,0.84,0.7,1.12,1.12c0,0.14,0,0.28,0,0.28c-0.14,0.14-0.28,0.28-0.42,0.42c-0.14,0.28,0,0.42,0.28,0.42
		c0.98-0.28,1.96-0.7,2.67-1.26C369.34,311.97,369.34,311.83,369.34,311.69z M362.47,311.55l-0.14-3.23l0.14-0.14l2.24,2.24
		L362.47,311.55z M277.32,256.14l1.4-0.56l-0.14-1.54l1.12,0.84l1.26-0.98l-0.28,1.54l1.4,0.56l-1.4,0.56l0.14,1.54l-1.26-0.98
		l-1.26,0.84l0.28-1.54L277.32,256.14 M399.22,255.02l-1.12-0.98l0.14,1.54l-1.4,0.56l1.4,0.56l-0.28,1.54l1.26-0.84l1.26,0.98
		l-0.14-1.54l1.4-0.56l-1.4-0.56l0.28-1.54L399.22,255.02"/>
</g>
</svg>
