<?xml version="1.0" encoding="utf-8"?>
<!-- Generator: Adobe Illustrator 26.5.0, SVG Export Plug-In . SVG Version: 6.00 Build 0)  -->
<svg version="1.1" id="Layer_1" xmlns="http://www.w3.org/2000/svg" xmlns:xlink="http://www.w3.org/1999/xlink" x="0px" y="0px"
	 viewBox="0 0 512 512" style="enable-background:new 0 0 512 512;" xml:space="preserve">
<style type="text/css">
	.st0{fill:#C00000;}
</style>
<g id="XMLID_1_">
	<path id="XMLID_6_" class="st0" d="M194.28,468.84c-27.36-2.81-52.19-9.96-76.6-22.31c-41.95-21.18-73.51-52.75-94.69-94.69
		c-9.4-18.66-14.59-33.11-18.38-51.91c-9.96-48.26-3.79-95.96,18.38-139.87c21.18-42.09,52.61-73.51,94.69-94.69
		c40.26-20.34,82.49-27.08,127.38-20.62c9.82,1.4,12.35,1.4,22.73-0.28c15.71-2.53,46.3-2.53,62.15,0
		c14.59,2.24,34.65,7.58,46.01,12.06c59.76,23.71,105.92,72.39,125.28,132.15c35.35,108.72-18.94,224.04-125.28,266.27
		c-11.36,4.49-31.42,9.82-46.01,12.06c-15.85,2.53-46.44,2.53-62.15,0c-10.38-1.68-12.77-1.68-22.73-0.14
		C230.61,469.4,207.04,470.24,194.28,468.84z M327.13,463.93c46.44-6.59,86.98-26.8,119.81-59.62
		c39.98-39.98,61.17-91.47,61.17-148.14s-21.32-108.3-61.17-148.14c-33.67-33.67-76.04-54.29-124.15-60.18
		c-13.33-1.68-50.22-0.98-53.59,0.98c-1.82,1.12-1.96,1.26-0.28,1.26c7.15,0.14,37.04,12.63,54.15,22.73
		c42.51,24.83,77.58,68.6,93.15,116.3c25.25,77.86,5.33,161.47-52.47,218.85c-17.4,17.4-36.47,30.58-60.32,41.95
		c-11.08,5.33-30.86,12.35-34.51,12.35c-0.98,0-1.4,0.42-0.98,0.84C270.59,465.61,310.15,466.31,327.13,463.93z M253.9,51.06
		l-3.09,0.7c-8.28,1.82-26.37,7.86-35.49,11.78c-54.57,23.71-97.08,70.42-115.88,127.24c-7.86,23.99-9.54,35.35-9.54,65.23
		c0,29.74,1.68,41.24,9.54,65.23c21.18,64.67,72.95,115.6,137.06,135.1c10.1,3.09,14.03,4.21,16.55,4.49L253.9,51.06z"/>
</g>
</svg>
