<?xml version="1.0" encoding="utf-8"?>
<!-- Generator: Adobe Illustrator 27.0.0, SVG Export Plug-In . SVG Version: 6.00 Build 0)  -->
<svg version="1.1" id="Layer_1" xmlns="http://www.w3.org/2000/svg" xmlns:xlink="http://www.w3.org/1999/xlink" x="0px" y="0px"
	 viewBox="0 0 512 512" style="enable-background:new 0 0 512 512;" xml:space="preserve">
<style type="text/css">
	.st0{fill:#990000;}
</style>
<g id="XMLID_1_">
	<path id="XMLID_13_" class="st0" d="M491.38,217.85l1.4-15.15h-24.55c-6.87,0-9.68-3.23-9.26-7.15c0.14-1.12,0.14-1.82,0.28-2.38
		l-18.94-0.14c-0.56,5.75,2.38,9.26,8.7,10.52v0.14h-8.28l-1.26,14.31h51.9V217.85z M495.59,174.22h-71.4l-1.4,15.01h71.4
		L495.59,174.22z M441.72,153.88h-16.27l-1.54,15.15h16.27L441.72,153.88z M497.55,153.88h-51.34l-1.54,15.15h51.34L497.55,153.88z
		 M412.12,312.11h43.91c16.83,0,27.77-9.54,29.04-23.15c1.12-11.64-7.72-22.16-25.39-22.16c-13.19,0-27.21,8.42-28.34,20.06
		c-0.42,4.35,0.7,6.45,2.38,9.54h-20.34L412.12,312.11z M465.85,224.86c4.77,3.23,7.72,9.96,7.29,14.45
		c-0.14,1.4-0.56,3.37-1.26,4.63l-17.81-21.74c-10.24,3.51-17.39,10.94-18.24,20.62c-1.12,12.06,8.42,22.02,25.95,22.02
		c14.17,0,26.65-9.4,27.91-22.58c0.7-8-0.7-11.78-4.63-18.38L465.85,224.86z M446.63,147.29h51.48l1.54-15.43h-30.3
		c-2.38,0-6.31-0.7-6.31-3.93c0-3.23,3.23-4.07,5.33-4.07h31.98l1.4-15.29h-33.95c-9.96,0-19.08,3.79-19.78,11.78
		c-0.28,3.93,1.96,8.56,6.87,11.78v0.28h-6.73L446.63,147.29z M392.77,97.21H512l-22.02,229.35
		c-2.81,66.63-57.79,119.93-125.12,119.93h-5.61L392.77,97.21z M457.43,296.26c-4.35,0-7.86-2.52-7.43-6.31
		c0.28-3.79,4.35-6.31,8.7-6.31c4.35,0,7.86,2.52,7.43,6.31C465.85,293.73,461.78,296.26,457.43,296.26z M462.76,248.71
		c-0.84,0.28-1.54,0.7-3.65,0.7c-4.35,0-8.56-2.67-8.28-6.59c0.14-2.1,0.84-3.65,3.09-4.91L462.76,248.71"/>
	<path id="XMLID_14_" class="st0" d="M375.93,130.45l-30.3,314.92c-67.33-11.78-112.78-46.71-106.61-111.94v-0.14l14.45-150.37
		H58.21C25.95,182.5,0,156.41,0,124.14s25.95-58.35,58.21-58.63h259.51c32.26,0.14,58.49,26.37,58.49,58.63
		C376.21,126.25,376.07,128.35,375.93,130.45"/>
	<polyline id="XMLID_15_" class="st0" points="119.37,195.82 226.4,195.82 205.36,415.07 98.19,415.07 119.37,195.82 	"/>
</g>
</svg>
