<?xml version="1.0" encoding="utf-8"?>
<!-- Generator: Adobe Illustrator 27.0.0, SVG Export Plug-In . SVG Version: 6.00 Build 0)  -->
<svg version="1.1" id="Layer_1" xmlns="http://www.w3.org/2000/svg" xmlns:xlink="http://www.w3.org/1999/xlink" x="0px" y="0px"
	 viewBox="0 0 512 512" style="enable-background:new 0 0 512 512;" xml:space="preserve">
<style type="text/css">
	.st0{fill:#00305E;}
	.st1{fill:#FFFFFF;}
</style>
<g id="XMLID_1_">
	<rect id="XMLID_3_" class="st0" width="512" height="512"/>
	<path id="XMLID_12_" class="st1" d="M320.53,215.32v123.44H191.47V215.32H84.87v108.01l103.8,103.8h134.66l103.8-103.8V215.32
		H320.53z M414.93,318.42l-96.23,96.09H193.58L97.49,318.7v-92.16h81.36v123.44h154.3V226.54h82.2L414.93,318.42z"/>
	<path id="XMLID_13_" class="st1" d="M323.33,84.87H188.67l-103.8,103.8v14.03H202.7v123.44H309.3V202.7h117.83v-14.03L323.33,84.87
		z M298.08,191.47v123.44h-82.76V191.47H99.31l94.26-93.98H318.7l94.4,93.98H298.08z"/>
	<path id="XMLID_11_" class="st1" d="M332.87,61.02H179.55L61.02,179.55v152.9l118.53,118.53h153.32l118.11-118.53v-152.9
		L332.87,61.02z M438.36,327.82l-110.4,110.54H184.04L73.64,327.82V184.04l110.4-110.4h143.78l110.4,110.4v143.78H438.36z"/>
</g>
</svg>
