<?xml version="1.0" encoding="utf-8"?>
<!-- Generator: Adobe Illustrator 27.0.0, SVG Export Plug-In . SVG Version: 6.00 Build 0)  -->
<svg version="1.1" id="Layer_1" xmlns="http://www.w3.org/2000/svg" xmlns:xlink="http://www.w3.org/1999/xlink" x="0px" y="0px"
	 viewBox="0 0 512 512" style="enable-background:new 0 0 512 512;" xml:space="preserve">
<style type="text/css">
	.st0{fill:#949494;}
</style>
<g id="XMLID_1_">
	<path id="XMLID_3_" class="st0" d="M307.51,209.83c0.14,2.67-0.28,4.07-2.1,4.21C301.06,214.18,303.73,205.62,307.51,209.83z"/>
	<path id="XMLID_4_" class="st0" d="M317.06,209.27c0.84,2.39,0.28,4.63-1.82,4.77C311.44,214.18,312.43,206.32,317.06,209.27z"/>
	<path id="XMLID_7_" class="st0" d="M329.4,258.94c-3.65,0.56-9.12,0.42-12.77,0c-0.28-1.26,1.4-0.56,1.12-1.82
		c-1.26-4.07-2.53-8.14-3.79-12.21c-3.51,0-6.88,0-10.38,0c-1.68,3.65-3.23,7.44-3.51,12.49c0,1.4,3.09-0.28,2.95,1.12
		c-0.28,1.12-1.82,0.56-2.67,0.56c-2.67,0.14-6.88,0.14-9.54-0.28c-0.14-1.68,2.67-0.42,3.23-1.54c2.53-2.39,3.37-6.17,4.49-9.54
		c2.25-6.59,4.49-13.33,6.88-20.49c1.26-3.93,2.39-8,4.21-10.94c0.42-0.14,0.56,0.28,0.84,0.28c3.51,8.84,7.02,20.63,10.66,31.15
		c0.98,2.67,2.53,8.28,4.49,9.54C326.88,258.24,328.98,257.4,329.4,258.94z M304.29,242.1c2.81-0.14,6.45,0.42,8.84-0.28
		c-1.96-4.07-2.53-9.54-4.77-13.33C307.23,233.26,305.55,237.47,304.29,242.1z"/>
	<path id="XMLID_8_" class="st0" d="M51.16,257.54c0.7,0.98,3.37,0,3.79,1.12c-0.42,1.12-1.96,0.56-2.95,0.56
		c-2.95,0.14-7.3,0.14-10.1-0.28c0-1.68,2.81-0.42,3.51-1.54c1.26-12.49,0.7-26.94,1.12-40.27c1.68-0.14,2.95,1.82,3.79,2.95
		c7.44,8.98,15.29,19.22,23.15,28.06c-0.42-9.26,0.56-21.05-1.12-28.48c-0.7-0.98-2.81-0.56-3.79-1.12c0.84-1.82,3.37-0.7,5.33-0.56
		c2.67,0,5.75-0.84,7.44,0.28c-0.56,1.12-2.95,0.42-3.51,1.54c-1.26,12.49-0.28,27.08-1.12,39.99c-1.54,0-2.95-1.54-3.79-2.67
		c-7.44-8.28-14.87-18.24-22.17-26.94c0-0.28-0.28-0.28-0.28-0.56c-0.28,0-0.28-0.28-0.56-0.28
		C50.6,238.31,49.06,249.82,51.16,257.54z"/>
	<path id="XMLID_9_" class="st0" d="M167.2,217.27c0.28,0.14,0.56,0.28,0.56,0.56c-0.7,2.67,0.7,7.16-1.54,8.28
		c0-1.68-0.56-2.81-0.84-4.21c-2.1-1.26-5.89-0.84-9.12-0.84c0,4.77,0,9.68,0,14.45c2.53-0.42,5.75,0.42,8,0
		c1.4-0.28,1.68-1.4,2.95-1.54c-0.42,2.95-0.28,6.45-0.84,9.12c-1.68-0.28-0.42-3.65-2.1-4.21c-2.25-0.42-5.33-0.28-8-0.28
		c0.14,5.19-0.42,11.23,0.28,16c1.68,1.82,7.86,2.53,10.1,0.56c1.68-1.54,0.14-3.65,2.1-4.77c0.56,2.53,0.14,6.59-0.84,8.56
		c-6.74,0.56-15.01,0-21.89-0.28c0.14-1.68,3.09-0.42,3.51-1.82c0.84-11.23,0.98-25.82,0-37.04c-0.56-1.4-3.09-0.7-4.21-1.54
		c1.12-1.82,3.37-0.7,5.33-0.56c4.91,0.28,11.93,0.42,16-0.28C166.92,217.83,167.2,217.55,167.2,217.27z"/>
	<path id="XMLID_10_" class="st0" d="M231.75,218.39c-0.56,2.81,1.12,7.86-1.12,8.84c1.26-8.56-13.33-10.52-11.51-0.28
		c0.28,1.26,1.26,2.67,2.1,3.51c2.95,3.79,9.54,7.02,11.22,13.61c3.09,12.21-8.98,19.92-19.22,13.89c-0.7-1.4-0.14-3.37,0-5.33
		c0.14-1.68-0.42-4.21,1.12-4.77c0.56,4.63,1.68,8.42,5.33,9.12c5.47,1.12,8.7-3.09,7.72-8.28c-1.54-7.44-14.45-10.94-13.33-22.45
		C214.77,218.53,222.77,215.16,231.75,218.39z"/>
	<path id="XMLID_11_" class="st0" d="M291.52,217.55c0.56,2.39,0.56,6.59-0.28,8.56c-1.26-0.14-0.56-2.39-1.12-3.23
		c-2.1-2.1-7.3-1.12-10.66-1.82c0.28,11.93-0.7,25.12,0.56,36.06c0.7,1.26,3.65,0.28,4.49,1.54c-0.56,1.12-2.39,0.56-3.51,0.56
		c-3.37,0-8.28,0.14-11.51-0.28c0-1.54,2.53-0.56,3.23-1.54c1.26-10.94,0.28-24.27,0.56-36.06c-2.67,0.56-7.16-0.84-9.82,0.28
		c-2.1,0.98-1.12,2.95-2.95,3.79c-0.7-2.67,0.7-5.61,0.84-8.28C269.91,218.67,282.68,218.39,291.52,217.55z"/>
	<path id="XMLID_12_" class="st0" d="M359.99,217.55c-0.14,2.81,0.42,6.31-0.28,8.56c-1.68-1.26-0.56-2.67-2.1-3.79
		c-2.25-1.82-6.73-0.14-10.1-1.12c0.28,11.93-0.84,25.54,0.84,36.06c0.56,1.54,4.21,0,4.49,1.82c-4.35,0.42-10.8,0.56-15.15,0
		c-0.84-1.26,2.53-0.56,2.95-1.54c1.82-10.52,0.56-24.13,0.84-36.06c-2.67,0.56-7.86-0.98-10.38,0.56c-1.4,0.84-1.12,2.1-2.1,3.51
		c-1.96-1.26,0.28-5.19,0.28-7.44c-0.14-0.42,0.28-0.56,0.28-0.84C338.24,218.67,351.01,218.39,359.99,217.55z"/>
	<path id="XMLID_13_" class="st0" d="M14.68,218.11c-0.14,1.68-2.95,0.7-3.51,1.82c-0.84,6.31-0.98,17.96-0.28,26.38
		c0.56,6.88,4.49,13.19,12.49,10.1c3.93-1.54,5.33-6.03,5.61-11.79c0.42-7.58,0.14-17.68-0.56-24.27c-0.42-1.68-3.93-0.28-4.21-2.1
		c1.82-0.7,4.21,0,6.45,0s4.91-0.98,6.45,0.28c-0.42,1.12-2.81,0.56-3.51,1.54c-0.98,18.1,3.23,39.99-14.73,40.27
		c-18.24,0.28-13.75-21.61-14.73-39.71c-0.28-1.96-3.93-0.42-4.21-2.39C4.44,217.83,10.33,217.97,14.68,218.11z"/>
	<path id="XMLID_14_" class="st0" d="M102.66,218.39c-0.42,1.12-2.81,0.56-3.51,1.54c-0.98,9.4-0.7,21.33-0.28,31.43
		c0.14,1.96-0.42,4.21,0.56,5.89c0.56,1.4,4.21,0,4.49,1.82c-4.35,0.42-10.8,0.56-15.15,0c-0.84-1.26,2.67-0.7,3.23-1.54
		c1.12-11.08,0.56-25.4,0.28-37.04c-0.28-1.68-3.51-0.7-3.79-2.39c0.28,0,0.28-0.28,0.56-0.28c2.67,0,5.75,0.42,8.56,0.28
		C99.43,218.11,101.4,217.13,102.66,218.39z"/>
	<path id="XMLID_15_" class="st0" d="M119.78,218.39c-0.28,1.12-2.39,0.42-2.95,1.12c2.1,10.8,6.31,19.36,8.84,29.61
		c3.51-9.4,6.74-19.08,9.82-29.04c-0.42-1.26-2.53-0.84-3.51-1.54c0.84-1.68,3.37-0.7,5.33-0.56c2.39,0,5.19-0.84,6.45,0.28
		c-0.14,1.12-1.96,0.42-2.67,0.84c-2.39,2.81-3.09,6.59-4.49,10.1c-2.67,6.74-5.33,13.75-8,21.05c-1.26,3.37-1.96,7.44-4.77,9.82
		c-3.37-8.56-7.44-19.78-10.94-29.89c-1.68-4.63-1.96-11.37-8-11.22c0-0.28,0-0.56,0-0.84c0.28,0,0.28-0.28,0.56-0.28
		C110.38,218.53,115.99,217.27,119.78,218.39z"/>
	<path id="XMLID_18_" class="st0" d="M195.97,240c1.54,2.53,3.51,5.61,5.61,8.56c1.96,2.81,4.49,7.16,7.16,8.56
		c1.26,0.7,2.81,0.56,4.21,1.54c-0.84,1.12-2.81,0.56-4.21,0.56c-1.96,0-3.79,0-4.77-0.28c-6.03-1.82-8.84-12.35-12.77-16.56
		c-1.54,0-3.23,0-4.77,0c0.14,5.05-0.28,10.52,0.56,14.73c0.42,1.26,4.49,0.42,4.21,1.54c-0.56,1.12-2.1,0.56-3.23,0.56
		c-3.37,0.14-8.14,0.14-11.22-0.28c0-1.68,2.81-0.42,3.23-1.54c1.26-6.17,0.84-14.59,0.84-22.73c0-5.19,0.42-10.66-0.84-14.73
		c-0.56-1.26-3.79,0-3.79-1.82c10.94,0,24.55-2.67,25.82,8.28C202.56,232.28,199.19,236.49,195.97,240z M190.92,220.78
		c-1.4,0.28-4.35-0.84-4.49,0.84c0,5.75,0,11.51,0,17.12c1.4,0.98,4.07,0.56,6.17,0.56C197.93,235.93,197.23,222.6,190.92,220.78z"
		/>
	<path id="XMLID_19_" class="st0" d="M254.9,218.11c-0.14,1.68-2.95,0.7-3.51,1.82c-0.56,5.89-0.28,12.35-0.28,18.94
		c0,6.31-0.42,12.91,0.56,18.38c0.56,1.54,4.21,0,4.49,1.82c-4.35,0.42-10.8,0.56-15.15,0c0-1.54,2.53-0.56,3.23-1.54
		c1.12-11.23,0.7-25.4,0.28-37.04c-0.28-1.54-2.95-0.84-3.51-2.1c0-0.28,0-0.56,0.28-0.56C245.78,218.39,250.69,217.69,254.9,218.11
		z"/>
	<path id="XMLID_20_" d="M509.42,262.17c-0.84,1.12-2.53,0.56-3.51,0.56c-40.13,0.7-81.66,0-122.21,0c-126,0-252.98,0-379.26,0
		c-0.28,0-0.28-0.14-0.28-0.28c0-0.28,0-0.56,0.28-0.56C172.67,262.17,341.75,261.61,509.42,262.17z"/>
	<path id="XMLID_23_" d="M238.62,265.54c0.42,0.14,0.42,0.56,0.84,0.56c3.93,8.98,7.58,18.24,11.23,27.5
		c3.23-6.59,6.03-14.45,8.84-21.61c0.84-2.24,1.54-4.91,3.23-6.17c1.26,0.84,0.98,2.53,1.12,3.79c1.26,9.68,2.24,21.33,4.21,31.15
		c6.59,4.21,8-2.95,9.82-8c3.23-8.98,6.45-19.92,9.54-27.22c1.68,0.7,1.54,2.81,2.1,4.21c1.54,4.21,3.09,9.12,4.77,13.89
		c2.1,6.17,4.21,12.49,7.16,17.82c0.98,0.42,2.39,0.42,3.23,0.84c-1.26,1.68-4.49,0.7-7.16,0.56c-1.4-0.14-2.81,0.28-3.79-0.28
		c-0.42-1.12,1.26,0,0.84-1.12c-0.7-3.93-2.1-7.16-3.23-10.66c-3.09,0-6.17,0-9.12,0c-1.4,3.09-2.67,6.17-2.95,10.38
		c0.14,1.12,1.96,0.56,2.67,1.12c-0.84,1.54-3.79,0.56-6.17,0.56c-4.35,0.14-9.54,0.56-13.89-0.56c-0.14-0.98,1.26-0.42,0.84-1.82
		c-0.7-7.16-1.82-13.89-2.39-21.33c-3.93,7.58-6.59,16.28-10.38,23.99c-4.49-7.02-7.16-15.71-10.38-23.99
		c-1.12,6.88-1.96,14.03-2.39,21.61c0.42,1.12,1.96,1.12,3.51,1.12c-0.14,1.96-2.67,0.84-4.49,0.84c-2.1,0-4.77,0.7-5.89-0.28
		c0.14-0.98,1.68-0.7,2.67-0.84C235.67,290.51,235.82,276.62,238.62,265.54z M282.96,287.7c2.39-0.14,5.47,0.42,7.44-0.28
		c-1.54-3.51-2.1-8.14-3.79-11.51C285.49,279.85,283.8,283.5,282.96,287.7z"/>
	<path id="XMLID_24_" d="M478.28,265.54c0.42,0.14,0.42,0.56,0.84,0.56c3.79,9.12,7.58,18.24,11.22,27.5
		c4.35-8.98,7.44-19.22,11.79-28.06c1.82,2.25,1.4,5.61,1.82,8.56c0.98,8.56,2.39,18.38,3.79,26.66c0.98,0.98,2.81,0.98,4.21,1.54
		c-1.68,1.82-7.16,0.14-10.38,0.28c-0.98-0.98,0.98-0.98,0.56-2.39c-0.84-6.88-1.82-13.47-2.39-20.77c-1.26,1.26-2.1,3.65-2.95,5.61
		c-2.39,5.89-4.77,12.21-7.44,18.1c-2.67-3.23-4.07-7.44-5.61-11.51c-1.54-4.07-3.51-8-4.77-12.21c-1.12,6.73-1.96,13.75-2.39,21.33
		c0.28,1.4,2.39,0.98,3.51,1.54c-0.42,1.68-2.53,0.56-4.21,0.56c-2.24,0-5.05,0.7-6.17-0.28c0.28-1.12,2.53-0.42,2.95-1.54
		c1.26-7.86,2.53-17.12,3.51-25.82C477.01,271.71,476.73,267.92,478.28,265.54z"/>
	<path id="XMLID_25_" d="M309.62,265.82c0.42-0.14,0.56,0.28,0.84,0.28c7.3,9.26,14.87,18.38,22.45,27.22
		c-0.56-8,0.28-17.26-0.84-24.55c-0.28-1.54-3.79,0-3.79-1.82c3.09-0.42,8.14-0.42,11.22,0c-0.14,1.54-2.95,0.42-3.23,1.82
		c-0.56,11.23-0.14,23.43-0.84,34.66c-1.68,0-2.53-1.82-3.51-2.95c-6.59-7.44-13.47-15.57-19.78-23.71
		c0.42,8.14-0.14,17.12,1.12,24.27c0.56,0.98,2.53,0.56,3.51,1.12c-0.7,1.68-3.23,0.56-5.05,0.56c-2.39,0-5.19,0.84-6.45-0.28
		c0.42-1.12,2.81-0.28,3.23-1.54c0.98-10.8,0.14-23.29,0.84-34.38C309.2,266.24,309.62,266.1,309.62,265.82z"/>
	<path id="XMLID_26_" d="M349.33,265.82c0.42-0.14,0.56,0.28,0.84,0.28c7.3,9.26,14.73,18.38,22.45,27.22
		c-0.84-7.58,0.28-17.12-0.84-24.27c0-1.96-3.65-0.28-3.79-2.1c3.09-0.42,8.14-0.42,11.23,0c0.14,1.54-2.25,0.56-2.95,1.12
		c-1.4,10.8-0.42,23.85-1.12,35.22c-1.82,0-2.53-1.82-3.51-2.95c-6.59-7.44-13.47-15.57-19.78-23.71c0.42,8.14-0.42,17.4,1.12,24.27
		c0.7,0.7,1.96,0.98,3.51,0.84c-0.42,2.1-3.09,0.98-5.05,0.84c-2.39,0-5.47,0.84-6.88-0.28c0.56-1.12,3.09-0.28,3.51-1.54
		c0.7-11.08,0.28-23.29,0.84-34.38C348.91,266.24,349.19,266.1,349.33,265.82z"/>
	<path id="XMLID_27_" d="M445.16,266.38c0.42,1.96-0.14,5.33-0.56,7.44c-1.54,0.14-0.42-2.53-1.12-3.23c-1.82-1.26-5.19-0.84-8-1.12
		c-0.7,3.65-0.14,8.56-0.28,12.77c2.1,0.7,5.19,0.14,7.44,0c1.12-0.14,1.12-1.26,2.1-1.54c0.14,1.96-0.28,5.75-0.56,8.28
		c-1.68-0.14-0.42-3.09-1.82-3.51c-1.96-0.56-4.77-0.28-7.16-0.28c0.28,4.77-0.56,10.66,0.56,14.45c1.82,0.84,5.61,0.84,7.72,0.28
		c1.82-0.42,1.26-3.51,2.67-4.49c0.7,2.24-0.14,5.33-0.56,7.44c-3.09,0.56-7.44,0.28-10.66,0c-3.09-0.28-6.31,0.84-8.56-0.28
		c0.28-1.12,2.25-0.42,2.95-1.12c0.84-9.68,0.98-22.87,0-32.55c-0.14-1.54-3.09-0.28-3.51-1.54c0.98-1.12,2.95-0.56,4.49-0.56
		c4.49,0,10.1,0.28,14.45-0.28C444.74,266.38,445.02,266.38,445.16,266.38z"/>
	<path id="XMLID_28_" d="M397.88,266.94c0.14,1.68-2.67,0.28-2.95,1.54c-0.7,3.93-0.14,8.98-0.28,13.33c5.19,0,10.24,0,15.43,0
		c0.56-3.79,0.42-9.54-0.28-13.05c-0.14-1.68-3.65,0-3.51-1.82c3.65-0.42,9.4-0.42,13.05,0c0,1.54-2.81,0.28-3.23,1.54
		c-0.56,10.24-0.42,22.31,0,32.55c0.84,0.98,3.09,0.42,4.21,1.12c-0.7,1.68-2.95,0.7-4.77,0.56c-3.09-0.14-6.73,0.7-8.56-0.28
		c0.14-0.98,1.68-0.7,2.67-0.84c1.26-4.63,0.84-10.8,0.84-16.56c-4.63-0.7-10.52-0.14-15.71-0.28c0.14,5.33-0.28,11.37,0.28,16.28
		c0.84,0.98,3.09,0.56,4.21,1.12c-0.7,1.68-2.95,0.7-4.77,0.56c-3.23-0.14-6.88,0.7-8.84-0.28c0.56-0.98,2.67-0.42,3.23-1.54
		c0.42-10.24,0.56-22.31,0-32.55c-0.42-1.12-3.23,0.14-3.51-1.12c0-0.28,0-0.56,0.28-0.56
		C389.46,266.94,394.23,266.24,397.88,266.94z"/>
	<path id="XMLID_29_" d="M465.37,266.94c0.14,1.54-2.24,0.56-2.95,1.12c-0.98,9.82-0.98,23.15,0,32.83
		c0.84,0.98,3.09,0.56,4.21,1.12c-0.84,1.68-3.23,0.7-5.05,0.56c-3.09-0.14-6.59,0.7-8.56-0.28c0.56-1.12,2.67-0.56,3.23-1.54
		c0.42-10.1,0.56-22.17,0-32.27c-0.14-1.54-3.37,0-3.23-1.82C456.39,266.52,461.86,266.52,465.37,266.94z"/>
</g>
</svg>
